<svg width="85" height="177" viewBox="0 0 85 177" fill="none" xmlns="http://www.w3.org/2000/svg">
<path d="M23.438 123.016V151.199C23.438 152.355 23.6186 153.186 23.98 153.692C24.3413 154.198 24.9736 154.45 25.8769 154.45C26.3466 154.45 26.744 154.432 27.0692 154.396C27.3944 154.324 27.7557 154.216 28.1532 154.071L27.557 160.25C26.9066 160.719 25.9853 161.099 24.7929 161.388C23.6367 161.677 22.4805 161.821 21.3243 161.821C18.1809 161.821 15.9226 161.117 14.5496 159.708C13.1766 158.298 12.4901 155.986 12.4901 152.77V123.016H23.438ZM47.2513 134.181H58.5786L49.365 161.279H35.9783L26.7648 134.181H38.2004L42.6988 154.071L47.2513 134.181ZM71.8133 123.016V151.199C71.8133 152.355 71.9939 153.186 72.3553 153.692C72.7166 154.198 73.3489 154.45 74.2522 154.45C74.7219 154.45 75.1193 154.432 75.4445 154.396C75.7697 154.324 76.131 154.216 76.5284 154.071L75.9323 160.25C75.2819 160.719 74.3606 161.099 73.1682 161.388C72.012 161.677 70.8558 161.821 69.6996 161.821C66.5561 161.821 64.2979 161.117 62.9249 159.708C61.5519 158.298 60.8654 155.986 60.8654 152.77V123.016H71.8133Z" fill="white" fill-opacity="0.1"/>
<path d="M11.0648 105V89.88C17.4648 86.2 22.9448 82.64 27.5048 79.2C32.1448 75.76 35.9448 72.48 38.9048 69.36C41.8648 66.16 44.0648 63.16 45.5048 60.36C46.9448 57.48 47.6648 54.76 47.6648 52.2C47.6648 49.72 46.9848 47.64 45.6248 45.96C44.2648 44.2 42.1448 43.32 39.2648 43.32C35.9848 43.32 33.5048 44.56 31.8248 47.04C30.2248 49.52 29.4248 53.32 29.4248 58.44L8.42484 52.8C8.50484 46.48 9.94484 41.24 12.7448 37.08C15.5448 32.92 19.3848 29.8 24.2648 27.72C29.2248 25.64 34.7448 24.6 40.8248 24.6C46.5048 24.6 51.3048 25.4 55.2248 27C59.2248 28.52 62.4248 30.56 64.8248 33.12C67.3048 35.6 69.1048 38.36 70.2248 41.4C71.3448 44.36 71.9048 47.32 71.9048 50.28C71.9048 55.48 70.5448 60.24 67.8248 64.56C65.1048 68.88 61.3448 72.92 56.5448 76.68C51.7448 80.36 46.1848 83.88 39.8648 87.24V87.48C41.3848 87.32 43.1048 87.2 45.0248 87.12C46.9448 87.04 48.9848 87 51.1448 87C53.3048 86.92 55.3848 86.88 57.3848 86.88H72.6248V105H11.0648Z" fill="white" fill-opacity="0.1"/>
</svg>
