<svg width="81" height="177" viewBox="0 0 81 177" fill="none" xmlns="http://www.w3.org/2000/svg">
<path d="M18.6528 123.498V151.681C18.6528 152.837 18.8335 153.668 19.1948 154.174C19.5561 154.68 20.1884 154.933 21.0917 154.933C21.5614 154.933 21.9589 154.915 22.284 154.879C22.6092 154.806 22.9705 154.698 23.368 154.553L22.7718 160.732C22.1215 161.202 21.2001 161.581 20.0078 161.87C18.8516 162.159 17.6953 162.304 16.5391 162.304C13.3957 162.304 11.1375 161.599 9.76448 160.19C8.39148 158.781 7.70498 156.468 7.70498 153.253V123.498H18.6528ZM42.4662 134.663H53.7934L44.5799 161.762H31.1931L21.9796 134.663H33.4152L37.9136 154.553L42.4662 134.663ZM67.0281 123.498V151.681C67.0281 152.837 67.2088 153.668 67.5701 154.174C67.9314 154.68 68.5637 154.933 69.467 154.933C69.9367 154.933 70.3342 154.915 70.6593 154.879C70.9845 154.806 71.3458 154.698 71.7433 154.553L71.1471 160.732C70.4968 161.202 69.5754 161.581 68.3831 161.87C67.2268 162.159 66.0706 162.304 64.9144 162.304C61.771 162.304 59.5128 161.599 58.1398 160.19C56.7668 158.781 56.0803 156.468 56.0803 153.253V123.498H67.0281Z" fill="white" fill-opacity="0.1"/>
<path d="M41.2992 106.2C32.3392 106.2 24.9792 104.56 19.2192 101.28C13.5392 97.92 9.57922 92.92 7.33922 86.28L29.6592 77.04C29.7392 79.84 30.2192 82.04 31.0992 83.64C31.9792 85.24 33.1792 86.36 34.6992 87C36.2992 87.56 37.9792 87.84 39.7392 87.84C41.4992 87.84 43.0192 87.56 44.2992 87C45.6592 86.36 46.6992 85.44 47.4192 84.24C48.1392 83.04 48.4992 81.64 48.4992 80.04C48.4992 78.2 48.0992 76.76 47.2992 75.72C46.5792 74.68 45.5792 73.96 44.2992 73.56C43.0192 73.08 41.5392 72.84 39.8592 72.84C38.7392 72.84 37.7392 72.88 36.8592 72.96C36.0592 73.04 35.0992 73.16 33.9792 73.32V58.44C34.6192 58.52 35.2592 58.6 35.8992 58.68C36.5392 58.68 37.3392 58.68 38.2992 58.68C41.2592 58.68 43.4192 58.04 44.7792 56.76C46.1392 55.48 46.8192 53.4 46.8192 50.52C46.8192 48.12 46.1392 46.28 44.7792 45C43.4992 43.64 41.6992 42.96 39.3792 42.96C36.8992 42.96 34.7792 43.72 33.0192 45.24C31.3392 46.68 30.3792 49.36 30.1392 53.28L8.89922 46.44C9.53922 41.64 11.3392 37.64 14.2992 34.44C17.3392 31.24 21.1392 28.8 25.6992 27.12C30.3392 25.44 35.4592 24.6 41.0592 24.6C47.3792 24.6 52.6992 25.48 57.0192 27.24C61.4192 29 64.7392 31.52 66.9792 34.8C69.2992 38.08 70.4592 42.08 70.4592 46.8C70.4592 50.4 69.8592 53.36 68.6592 55.68C67.5392 58 66.0992 59.84 64.3392 61.2C62.5792 62.56 60.8992 63.56 59.2992 64.2C57.6992 64.76 56.4592 65.04 55.5792 65.04V65.52C56.5392 65.52 57.8992 65.72 59.6592 66.12C61.4992 66.52 63.3392 67.28 65.1792 68.4C67.0992 69.52 68.6992 71.2 69.9792 73.44C71.3392 75.6 72.0192 78.48 72.0192 82.08C72.0192 87.04 70.6592 91.36 67.9392 95.04C65.2192 98.64 61.5392 101.4 56.8992 103.32C52.2592 105.24 47.0592 106.2 41.2992 106.2Z" fill="white" fill-opacity="0.1"/>
</svg>
