<svg width="86" height="177" viewBox="0 0 86 177" fill="none" xmlns="http://www.w3.org/2000/svg">
<path d="M24.0942 123.016V151.199C24.0942 152.355 24.2749 153.186 24.6362 153.692C24.9975 154.198 25.6298 154.45 26.5331 154.45C27.0028 154.45 27.4003 154.432 27.7255 154.396C28.0506 154.324 28.412 154.216 28.8094 154.071L28.2132 160.25C27.5629 160.719 26.6415 161.099 25.4492 161.388C24.293 161.677 23.1368 161.821 21.9805 161.821C18.8371 161.821 16.5789 161.117 15.2059 159.708C13.8329 158.298 13.1464 155.986 13.1464 152.77V123.016H24.0942ZM47.9076 134.181H59.2348L50.0213 161.279H36.6346L27.421 134.181H38.8566L43.355 154.071L47.9076 134.181ZM72.4695 123.016V151.199C72.4695 152.355 72.6502 153.186 73.0115 153.692C73.3728 154.198 74.0051 154.45 74.9084 154.45C75.3781 154.45 75.7756 154.432 76.1007 154.396C76.4259 154.324 76.7872 154.216 77.1847 154.071L76.5885 160.25C75.9382 160.719 75.0168 161.099 73.8245 161.388C72.6683 161.677 71.512 161.821 70.3558 161.821C67.2124 161.821 64.9542 161.117 63.5812 159.708C62.2082 158.298 61.5217 155.986 61.5217 152.77V123.016H72.4695Z" fill="white" fill-opacity="0.1"/>
<path d="M44.7492 105V88.8H6.10922V73.8C7.06922 72.04 8.30922 69.92 9.82922 67.44C11.4292 64.96 13.3092 62.08 15.4692 58.8L37.5492 25.8H66.1092V72.6H77.3892V88.8H66.1092V105H44.7492ZM24.8292 72.6H45.1092V50.52C45.1092 49.16 45.1092 47.72 45.1092 46.2C45.1892 44.6 45.2692 42.96 45.3492 41.28H45.1092C44.3092 42.8 43.4692 44.36 42.5892 45.96C41.7092 47.48 40.8292 48.88 39.9492 50.16L28.1892 67.68C27.7092 68.48 27.1892 69.28 26.6292 70.08C26.0692 70.88 25.4692 71.72 24.8292 72.6Z" fill="white" fill-opacity="0.1"/>
</svg>
