<svg width="84" height="169" viewBox="0 0 84 169" fill="none" xmlns="http://www.w3.org/2000/svg">
<path d="M22.0728 115.18V143.363C22.0728 144.519 22.2534 145.35 22.6147 145.856C22.976 146.362 23.6083 146.615 24.5116 146.615C24.9813 146.615 25.3788 146.596 25.704 146.56C26.0292 146.488 26.3905 146.38 26.7879 146.235L26.1917 152.414C25.5414 152.883 24.62 153.263 23.4277 153.552C22.2715 153.841 21.1153 153.985 19.9591 153.985C16.8156 153.985 14.5574 153.281 13.1844 151.872C11.8114 150.463 11.1249 148.15 11.1249 144.934V115.18H22.0728ZM45.8861 126.345H57.2133L47.9998 153.443H34.6131L25.3995 126.345H36.8352L41.3335 146.235L45.8861 126.345ZM70.448 115.18V143.363C70.448 144.519 70.6287 145.35 70.99 145.856C71.3513 146.362 71.9836 146.615 72.8869 146.615C73.3566 146.615 73.7541 146.596 74.0793 146.56C74.4044 146.488 74.7658 146.38 75.1632 146.235L74.567 152.414C73.9167 152.883 72.9953 153.263 71.803 153.552C70.6468 153.841 69.4906 153.985 68.3344 153.985C65.1909 153.985 62.9327 153.281 61.5597 151.872C60.1867 150.463 59.5002 148.15 59.5002 144.934V115.18H70.448Z" fill="white" fill-opacity="0.1"/>
<path d="M39.7195 106.2C32.9195 106.2 26.8395 104.96 21.4795 102.48C16.1995 99.92 11.5995 95.56 7.67953 89.4L28.9195 78.96C29.7195 81.76 30.9595 84.04 32.6395 85.8C34.3995 87.48 36.9595 88.32 40.3195 88.32C42.3995 88.32 44.1595 87.96 45.5995 87.24C47.1195 86.52 48.2795 85.44 49.0795 84C49.8795 82.56 50.2795 80.8 50.2795 78.72C50.2795 76.8 49.8795 75.2 49.0795 73.92C48.3595 72.64 47.2395 71.64 45.7195 70.92C44.2795 70.2 42.3995 69.84 40.0795 69.84C38.3995 69.84 36.8795 70 35.5195 70.32C34.2395 70.64 33.0795 71.08 32.0395 71.64C30.9995 72.12 30.0395 72.76 29.1595 73.56L11.0395 70.2L16.1995 25.8H67.9195V44.16H33.5995L31.9195 56.88L31.4395 59.04H31.5595C33.0795 57.28 35.2395 55.96 38.0395 55.08C40.8395 54.2 43.9195 53.76 47.2795 53.76C52.5595 53.76 56.9995 54.8 60.5995 56.88C64.2795 58.88 67.0795 61.64 68.9995 65.16C70.9995 68.68 71.9995 72.72 71.9995 77.28C71.9995 82.4 71.1195 86.8 69.3595 90.48C67.5995 94.16 65.1995 97.16 62.1595 99.48C59.1195 101.72 55.6795 103.4 51.8395 104.52C47.9995 105.64 43.9595 106.2 39.7195 106.2Z" fill="white" fill-opacity="0.1"/>
</svg>
