<svg width="86" height="173" viewBox="0 0 86 173" fill="none" xmlns="http://www.w3.org/2000/svg">
<path d="M24.1724 119.18V147.363C24.1724 148.519 24.353 149.35 24.7143 149.856C25.0757 150.362 25.708 150.615 26.6112 150.615C27.081 150.615 27.4784 150.596 27.8036 150.56C28.1288 150.488 28.4901 150.38 28.8875 150.235L28.2914 156.414C27.641 156.883 26.7196 157.263 25.5273 157.552C24.3711 157.841 23.2149 157.985 22.0587 157.985C18.9152 157.985 16.657 157.281 15.284 155.872C13.911 154.463 13.2245 152.15 13.2245 148.934V119.18H24.1724ZM47.9857 130.345H59.3129L50.0994 157.443H36.7127L27.4991 130.345H38.9348L43.4331 150.235L47.9857 130.345ZM72.5477 119.18V147.363C72.5477 148.519 72.7283 149.35 73.0896 149.856C73.4509 150.362 74.0832 150.615 74.9865 150.615C75.4562 150.615 75.8537 150.596 76.1789 150.56C76.5041 150.488 76.8654 150.38 77.2628 150.235L76.6666 156.414C76.0163 156.883 75.0949 157.263 73.9026 157.552C72.7464 157.841 71.5902 157.985 70.434 157.985C67.2905 157.985 65.0323 157.281 63.6593 155.872C62.2863 154.463 61.5998 152.15 61.5998 148.934V119.18H72.5477Z" fill="white" fill-opacity="0.1"/>
<path d="M45.1311 25.0941C49.4511 25.0941 53.4911 25.6541 57.2511 26.7741C61.0111 27.8941 64.3311 29.7741 67.2111 32.4141C70.0911 34.9741 72.2111 38.4941 73.5711 42.9741L53.8911 52.2141C53.1711 49.6541 51.9711 47.6541 50.2911 46.2141C48.6111 44.7741 46.4111 44.0541 43.6911 44.0541C41.7711 44.0541 40.0111 44.4941 38.4111 45.3741C36.8111 46.1741 35.4511 47.3741 34.3311 48.9741C33.2111 50.5741 32.3311 52.6141 31.6911 55.0941C31.0511 57.5741 30.7311 60.4141 30.7311 63.6141C30.7311 63.8541 30.7311 64.1341 30.7311 64.4541C30.7311 64.6941 30.7311 65.0141 30.7311 65.4141L30.8511 66.4941C31.8111 64.4141 33.2511 62.6541 35.1711 61.2141C37.1711 59.6941 39.4111 58.5341 41.8911 57.7341C44.4511 56.9341 46.9711 56.5341 49.4511 56.5341C54.2511 56.5341 58.5311 57.4541 62.2911 59.2941C66.0511 61.1341 69.0111 63.8141 71.1711 67.3341C73.4111 70.7741 74.5311 74.9741 74.5311 79.9341C74.5311 85.3741 73.2511 90.1341 70.6911 94.2141C68.1311 98.2141 64.5711 101.294 60.0111 103.454C55.4511 105.614 50.0911 106.694 43.9311 106.694C37.0511 106.694 30.9311 105.294 25.5711 102.494C20.2111 99.6141 15.9711 95.2541 12.8511 89.4141C9.81109 83.5741 8.29109 76.0541 8.29109 66.8541C8.29109 57.2541 9.93109 49.4141 13.2111 43.3341C16.4911 37.1741 20.8911 32.6141 26.4111 29.6541C32.0111 26.6141 38.2511 25.0941 45.1311 25.0941ZM43.4511 72.0141C41.7711 72.0141 40.2511 72.3741 38.8911 73.0941C37.5311 73.7341 36.4111 74.6941 35.5311 75.9741C34.6511 77.2541 34.2111 78.7741 34.2111 80.5341C34.2111 82.2141 34.6511 83.7341 35.5311 85.0941C36.4111 86.3741 37.5311 87.3741 38.8911 88.0941C40.3311 88.7341 41.8511 89.0541 43.4511 89.0541C46.4111 89.0541 48.6511 88.3341 50.1711 86.8941C51.7711 85.3741 52.5711 83.2541 52.5711 80.5341C52.5711 78.6941 52.2111 77.1741 51.4911 75.9741C50.7711 74.6941 49.7311 73.7341 48.3711 73.0941C47.0911 72.3741 45.4511 72.0141 43.4511 72.0141Z" fill="white" fill-opacity="0.1"/>
</svg>
