<svg width="82" height="169" viewBox="0 0 82 169" fill="none" xmlns="http://www.w3.org/2000/svg">
<path d="M19.1665 115.18V143.363C19.1665 144.519 19.3472 145.35 19.7085 145.856C20.0698 146.362 20.7021 146.615 21.6054 146.615C22.0751 146.615 22.4725 146.596 22.7977 146.56C23.1229 146.488 23.4842 146.38 23.8817 146.235L23.2855 152.414C22.6351 152.883 21.7138 153.263 20.5214 153.552C19.3652 153.841 18.209 153.985 17.0528 153.985C13.9094 153.985 11.6511 153.281 10.2782 151.872C8.90516 150.463 8.21866 148.15 8.21866 144.934V115.18H19.1665ZM42.9799 126.345H54.3071L45.0935 153.443H31.7068L22.4933 126.345H33.9289L38.4273 146.235L42.9799 126.345ZM67.5418 115.18V143.363C67.5418 144.519 67.7225 145.35 68.0838 145.856C68.4451 146.362 69.0774 146.615 69.9807 146.615C70.4504 146.615 70.8478 146.596 71.173 146.56C71.4982 146.488 71.8595 146.38 72.257 146.235L71.6608 152.414C71.0104 152.883 70.0891 153.263 68.8967 153.552C67.7405 153.841 66.5843 153.985 65.4281 153.985C62.2847 153.985 60.0264 153.281 58.6534 151.872C57.2804 150.463 56.594 148.15 56.594 144.934V115.18H67.5418Z" fill="white" fill-opacity="0.1"/>
<path d="M7.51602 26.2941H75.196V42.9741C68.636 49.2141 63.516 55.6541 59.836 62.2941C56.236 68.9341 53.676 75.8541 52.156 83.0541C50.716 90.1741 49.996 97.6541 49.996 105.494H25.996C25.996 96.7741 27.076 88.6141 29.236 81.0141C31.476 73.3341 34.956 66.0141 39.676 59.0541C44.476 52.0941 50.716 45.2941 58.396 38.6541L63.796 45.0141H7.51602V26.2941Z" fill="white" fill-opacity="0.1"/>
</svg>
