<svg width="84" height="170" viewBox="0 0 84 170" fill="none" xmlns="http://www.w3.org/2000/svg">
<path d="M21.7524 116.18V144.363C21.7524 145.519 21.9331 146.35 22.2944 146.856C22.6557 147.362 23.288 147.615 24.1913 147.615C24.661 147.615 25.0585 147.596 25.3837 147.56C25.7088 147.488 26.0702 147.38 26.4676 147.235L25.8714 153.414C25.2211 153.883 24.2997 154.263 23.1074 154.552C21.9512 154.841 20.795 154.985 19.6387 154.985C16.4953 154.985 14.2371 154.281 12.8641 152.872C11.4911 151.463 10.8046 149.15 10.8046 145.934V116.18H21.7524ZM45.5658 127.345H56.893L47.6795 154.443H34.2928L25.0792 127.345H36.5148L41.0132 147.235L45.5658 127.345ZM70.1277 116.18V144.363C70.1277 145.519 70.3084 146.35 70.6697 146.856C71.031 147.362 71.6633 147.615 72.5666 147.615C73.0363 147.615 73.4338 147.596 73.759 147.56C74.0841 147.488 74.4455 147.38 74.8429 147.235L74.2467 153.414C73.5964 153.883 72.675 154.263 71.4827 154.552C70.3265 154.841 69.1703 154.985 68.014 154.985C64.8706 154.985 62.6124 154.281 61.2394 152.872C59.8664 151.463 59.1799 149.15 59.1799 145.934V116.18H70.1277Z" fill="white" fill-opacity="0.1"/>
<path d="M41.1809 25.7471C47.5009 25.7471 52.9809 26.6271 57.6209 28.3871C62.2609 30.1471 65.8609 32.6671 68.4209 35.9471C70.9809 39.2271 72.2609 43.1471 72.2609 47.7071C72.2609 52.0271 71.1809 55.7071 69.0209 58.7471C66.9409 61.7871 63.7409 64.1071 59.4209 65.7071V65.8271C64.3009 67.3471 68.0609 69.5871 70.7009 72.5471C73.3409 75.5071 74.6609 79.3871 74.6609 84.1871C74.6609 88.8271 73.3009 92.8271 70.5809 96.1871C67.9409 99.5471 64.1409 102.187 59.1809 104.107C54.2209 106.027 48.2209 106.987 41.1809 106.987C34.2209 106.987 28.2609 106.027 23.3009 104.107C18.3409 102.187 14.5009 99.5471 11.7809 96.1871C9.14086 92.8271 7.82086 88.8271 7.82086 84.1871C7.82086 79.3871 9.14086 75.5071 11.7809 72.5471C14.4209 69.5871 18.1809 67.3471 23.0609 65.8271V65.7071C18.8209 64.1071 15.6209 61.7871 13.4609 58.7471C11.3009 55.7071 10.2209 52.0271 10.2209 47.7071C10.2209 43.1471 11.5009 39.2271 14.0609 35.9471C16.6209 32.6671 20.2209 30.1471 24.8609 28.3871C29.5809 26.6271 35.0209 25.7471 41.1809 25.7471ZM41.3009 42.7871C38.5809 42.7871 36.4209 43.5071 34.8209 44.9471C33.2209 46.3071 32.4209 48.2271 32.4209 50.7071C32.4209 53.1071 33.2209 55.0271 34.8209 56.4671C36.4209 57.8271 38.5809 58.5071 41.3009 58.5071C44.0209 58.5071 46.1409 57.8271 47.6609 56.4671C49.2609 55.0271 50.0609 53.1071 50.0609 50.7071C50.0609 48.2271 49.2609 46.3071 47.6609 44.9471C46.1409 43.5071 44.0209 42.7871 41.3009 42.7871ZM41.3009 89.8271C43.3809 89.8271 45.1409 89.5471 46.5809 88.9871C48.0209 88.3471 49.1009 87.3871 49.8209 86.1071C50.6209 84.8271 51.0209 83.3471 51.0209 81.6671C51.0209 79.9871 50.6209 78.5471 49.8209 77.3471C49.1009 76.0671 47.9809 75.1071 46.4609 74.4671C45.0209 73.8271 43.3009 73.5071 41.3009 73.5071C39.3009 73.5071 37.5409 73.8271 36.0209 74.4671C34.5009 75.1071 33.3409 76.0671 32.5409 77.3471C31.7409 78.5471 31.3409 79.9871 31.3409 81.6671C31.3409 83.3471 31.7009 84.8271 32.4209 86.1071C33.2209 87.3871 34.3809 88.3471 35.9009 88.9871C37.4209 89.5471 39.2209 89.8271 41.3009 89.8271Z" fill="white" fill-opacity="0.1"/>
</svg>
