<svg width="31" height="30" viewBox="0 0 31 30" fill="none" xmlns="http://www.w3.org/2000/svg">
<path d="M15.9642 29.8816C24.2567 29.8816 30.9791 23.2003 30.9791 14.9584C30.9791 6.71652 24.2567 0.0351562 15.9642 0.0351562C7.67164 0.0351562 0.949219 6.71652 0.949219 14.9584C0.949219 23.2003 7.67164 29.8816 15.9642 29.8816Z" fill="white"/>
<path d="M23.2112 8.41334C21.8899 7.80708 20.473 7.36041 18.9916 7.10459C18.9646 7.09965 18.9377 7.11199 18.9238 7.13667C18.7416 7.46076 18.5397 7.88358 18.3984 8.2159C16.805 7.97736 15.2198 7.97736 13.6591 8.2159C13.5177 7.87619 13.3086 7.46076 13.1255 7.13667C13.1116 7.11281 13.0847 7.10047 13.0577 7.10459C11.5771 7.35959 10.1602 7.80626 8.83811 8.41334C8.82666 8.41827 8.81685 8.4265 8.81034 8.43719C6.12283 12.4523 5.38661 16.3687 5.74778 20.2365C5.74941 20.2554 5.76003 20.2735 5.77474 20.285C7.54788 21.5872 9.26547 22.3777 10.9512 22.9017C10.9781 22.9099 11.0067 22.9001 11.0239 22.8778C11.4227 22.3333 11.7781 21.7591 12.0829 21.1553C12.1009 21.12 12.0837 21.078 12.0469 21.064C11.4831 20.8501 10.9463 20.5894 10.4298 20.2933C10.389 20.2694 10.3857 20.211 10.4233 20.183C10.532 20.1016 10.6407 20.0168 10.7444 19.9313C10.7632 19.9157 10.7894 19.9124 10.8115 19.9222C14.2041 21.4712 17.877 21.4712 21.2297 19.9222C21.2517 19.9116 21.2779 19.9149 21.2975 19.9305C21.4013 20.016 21.51 20.1016 21.6194 20.183C21.657 20.211 21.6546 20.2694 21.6137 20.2933C21.0973 20.5951 20.5605 20.8501 19.9958 21.0632C19.9591 21.0772 19.9427 21.12 19.9607 21.1553C20.272 21.7583 20.6275 22.3324 21.0189 22.877C21.0352 22.9001 21.0646 22.9099 21.0916 22.9017C22.7855 22.3777 24.503 21.5872 26.2762 20.285C26.2917 20.2735 26.3015 20.2562 26.3032 20.2373C26.7354 15.7657 25.5792 11.8814 23.2381 8.43801C23.2324 8.4265 23.2226 8.41827 23.2112 8.41334ZM12.5895 17.8814C11.5681 17.8814 10.7265 16.9437 10.7265 15.792C10.7265 14.6404 11.5518 13.7026 12.5895 13.7026C13.6354 13.7026 14.4689 14.6486 14.4525 15.792C14.4525 16.9437 13.6272 17.8814 12.5895 17.8814ZM19.4778 17.8814C18.4564 17.8814 17.6148 16.9437 17.6148 15.792C17.6148 14.6404 18.44 13.7026 19.4778 13.7026C20.5237 13.7026 21.3571 14.6486 21.3408 15.792C21.3408 16.9437 20.5237 17.8814 19.4778 17.8814Z" fill="#090A0E"/>
</svg>
