<svg width="31" height="31" viewBox="0 0 31 31" fill="none" xmlns="http://www.w3.org/2000/svg">
<path d="M15.6235 1.03516C7.61664 1.03516 1.13281 7.53349 1.13281 15.5404C1.13281 23.5472 7.61664 30.0456 15.6235 30.0456C23.6449 30.0456 30.1432 23.5472 30.1432 15.5404C30.1432 7.53349 23.6449 1.03516 15.6235 1.03516ZM25.6756 9.73828H21.3966C20.9324 7.92513 20.2652 6.18451 19.3949 4.57443C22.0638 5.48826 24.2831 7.34492 25.6756 9.73828ZM15.638 3.99422C16.842 5.73484 17.7848 7.66404 18.4085 9.73828H12.8675C13.4913 7.66404 14.4341 5.73484 15.638 3.99422ZM4.41099 18.4414C4.17891 17.5131 4.03385 16.5412 4.03385 15.5404C4.03385 14.5395 4.17891 13.5677 4.41099 12.6393H9.31375C9.19771 13.5967 9.11068 14.554 9.11068 15.5404C9.11068 16.5267 9.19771 17.4841 9.31375 18.4414H4.41099ZM5.60042 21.3425H9.87946C10.3436 23.1556 11.0109 24.8962 11.8812 26.5063C9.21222 25.5925 6.99292 23.7503 5.60042 21.3425ZM9.87946 9.73828H5.60042C6.99292 7.33042 9.21222 5.48826 11.8812 4.57443C11.0109 6.18451 10.3436 7.92513 9.87946 9.73828ZM15.638 27.0865C14.4341 25.3459 13.4913 23.4167 12.8675 21.3425H18.4085C17.7848 23.4167 16.842 25.3459 15.638 27.0865ZM19.0322 18.4414H12.2438C12.1133 17.4841 12.0117 16.5267 12.0117 15.5404C12.0117 14.554 12.1133 13.5822 12.2438 12.6393H19.0322C19.1628 13.5822 19.2643 14.554 19.2643 15.5404C19.2643 16.5267 19.1628 17.4841 19.0322 18.4414ZM19.3949 26.5063C20.2652 24.8962 20.9324 23.1556 21.3966 21.3425H25.6756C24.2831 23.7358 22.0638 25.5925 19.3949 26.5063ZM21.9623 18.4414C22.0783 17.4841 22.1654 16.5267 22.1654 15.5404C22.1654 14.554 22.0783 13.5967 21.9623 12.6393H26.8651C27.0971 13.5677 27.2422 14.5395 27.2422 15.5404C27.2422 16.5412 27.0971 17.5131 26.8651 18.4414H21.9623Z" fill="white" stroke="#1F212D" stroke-width="1.20877"/>
</svg>
