<svg width="90" height="168" viewBox="0 0 90 168" fill="none" xmlns="http://www.w3.org/2000/svg">
<path d="M35.9227 105V63.96C35.9227 61.56 35.9227 59.16 35.9227 56.76C35.9227 54.28 35.9627 51.8 36.0427 49.32C33.4027 51.64 30.5227 53.64 27.4027 55.32C24.3627 57 21.1627 58.12 17.8027 58.68L16.1227 38.76C18.3627 38.6 20.6827 38.08 23.0827 37.2C25.5627 36.32 27.9227 35.28 30.1627 34.08C32.4027 32.8 34.4027 31.48 36.1627 30.12C38.0027 28.68 39.3627 27.24 40.2427 25.8H59.5627V105H35.9227Z" fill="white" fill-opacity="0.1"/>
<path d="M28.0728 113.737V141.919C28.0728 143.076 28.2534 143.907 28.6147 144.412C28.976 144.918 29.6083 145.171 30.5116 145.171C30.9813 145.171 31.3788 145.153 31.704 145.117C32.0292 145.045 32.3905 144.936 32.7879 144.792L32.1917 150.97C31.5414 151.44 30.62 151.819 29.4277 152.108C28.2715 152.397 27.1153 152.542 25.9591 152.542C22.8156 152.542 20.5574 151.837 19.1844 150.428C17.8114 149.019 17.1249 146.707 17.1249 143.491V113.737H28.0728ZM51.8861 124.901H63.2133L53.9998 152H40.6131L31.3995 124.901H42.8352L47.3335 144.792L51.8861 124.901ZM76.448 113.737V141.919C76.448 143.076 76.6287 143.907 76.99 144.412C77.3513 144.918 77.9836 145.171 78.8869 145.171C79.3566 145.171 79.7541 145.153 80.0793 145.117C80.4044 145.045 80.7658 144.936 81.1632 144.792L80.567 150.97C79.9167 151.44 78.9953 151.819 77.803 152.108C76.6468 152.397 75.4906 152.542 74.3344 152.542C71.1909 152.542 68.9327 151.837 67.5597 150.428C66.1867 149.019 65.5002 146.707 65.5002 143.491V113.737H76.448Z" fill="white" fill-opacity="0.1"/>
</svg>
