<svg width="30" height="30" viewBox="0 0 30 30" fill="none" xmlns="http://www.w3.org/2000/svg">
<path d="M29.5298 14.4764C29.5425 17.3452 28.7041 20.1534 27.1208 22.5457C25.5375 24.9381 23.2804 26.8072 20.6348 27.9168C17.9892 29.0263 15.074 29.3265 12.2578 28.7792C9.44163 28.232 6.85098 26.8619 4.81345 24.8423C2.77592 22.8227 1.38303 20.2443 0.810905 17.4331C0.238782 14.6219 0.513127 11.7041 1.59925 9.04882C2.68537 6.39352 4.53448 4.11992 6.91276 2.51552C9.29104 0.911131 12.0917 0.0480076 14.9605 0.0352986C16.8653 0.02686 18.7532 0.393698 20.5163 1.11487C22.2794 1.83604 23.8832 2.89741 25.236 4.2384C26.5889 5.57938 27.6644 7.17371 28.4012 8.93035C29.1379 10.687 29.5214 12.5715 29.5298 14.4764Z" fill="#8DC63F"/>
<path d="M28.4436 14.4819C28.4566 17.1354 27.6825 19.7331 26.2191 21.9466C24.7557 24.1601 22.6687 25.8898 20.2221 26.9171C17.7756 27.9444 15.0793 28.223 12.4743 27.7178C9.86939 27.2126 7.47277 25.9463 5.58759 24.0789C3.70242 22.2115 2.41337 19.827 1.88349 17.2269C1.35361 14.6269 1.60669 11.9281 2.61073 9.47191C3.61477 7.01571 5.32466 4.91244 7.52415 3.4281C9.72363 1.94376 12.3139 1.14503 14.9674 1.13294C18.5242 1.11729 21.9418 2.51462 24.4688 5.01778C26.9958 7.52094 28.4255 10.9251 28.4436 14.4819Z" fill="#F9E988"/>
<path d="M15.2725 1.99634C16.1253 1.84497 16.9981 1.84497 17.8509 1.99634C18.7119 2.13285 19.5442 2.4117 20.3136 2.82145C21.0788 3.24189 21.74 3.81264 22.398 4.34765C23.0559 4.88266 23.7108 5.43029 24.3341 6.02942C24.9704 6.61916 25.5257 7.29071 25.9854 8.02651C26.4586 8.75653 26.8465 9.5384 27.1416 10.3568C27.7018 12.0028 27.8963 13.776 27.6167 15.4673H27.5336C27.253 13.7908 26.8725 12.1931 26.2723 10.6732C25.9906 9.9092 25.6591 9.16448 25.2801 8.4438C24.8847 7.7191 24.4489 7.01726 23.9746 6.34159C23.4924 5.66099 22.9015 5.0644 22.2256 4.57574C21.5445 4.09013 20.7614 3.77585 20.0035 3.47734C19.2457 3.17883 18.4942 2.87296 17.7037 2.64592C16.9133 2.41888 16.1103 2.2486 15.2715 2.08358L15.2725 1.99634Z" fill="white"/>
<path d="M21.8305 9.74463C20.8572 9.46293 19.8481 9.06352 18.8265 8.65989C18.7676 8.40342 18.5406 8.08389 18.0812 7.69393C17.4138 7.11477 16.1598 7.12949 15.0761 7.38596C13.88 7.10426 12.6985 7.00441 11.5644 7.28085C2.28843 9.83608 7.54815 16.0702 4.14258 22.3368C4.62714 23.3648 9.85006 29.3624 17.4075 27.7532C17.4075 27.7532 14.8228 21.5422 20.6554 18.5613C25.3864 16.1343 28.8046 11.644 21.8305 9.74463Z" fill="#8BC53F"/>
<path d="M22.9743 13.8268C22.9749 13.938 22.9425 14.0469 22.8813 14.1397C22.82 14.2325 22.7326 14.3051 22.6301 14.3482C22.5275 14.3914 22.4145 14.4031 22.3053 14.3821C22.1961 14.361 22.0956 14.308 22.0166 14.2298C21.9375 14.1516 21.8833 14.0517 21.861 13.9427C21.8387 13.8338 21.8492 13.7206 21.8912 13.6176C21.9332 13.5146 22.0048 13.4264 22.0969 13.3641C22.189 13.3018 22.2976 13.2682 22.4088 13.2676C22.5578 13.267 22.7011 13.3256 22.807 13.4304C22.913 13.5352 22.9732 13.6777 22.9743 13.8268Z" fill="white"/>
<path d="M15.0742 7.38259C15.7501 7.43094 18.1939 8.22347 18.8246 8.65653C18.299 7.13243 16.53 6.92957 15.0742 7.38259Z" fill="#009345"/>
<path d="M15.7156 11.2396C15.7158 11.7526 15.5639 12.2542 15.279 12.6809C14.9941 13.1077 14.5891 13.4403 14.1152 13.6369C13.6412 13.8334 13.1197 13.885 12.6164 13.7851C12.1132 13.6852 11.6508 13.4383 11.2879 13.0757C10.9249 12.713 10.6777 12.2509 10.5774 11.7477C10.4771 11.2446 10.5283 10.7229 10.7244 10.2488C10.9206 9.77476 11.2529 9.36947 11.6794 9.08426C12.1059 8.79904 12.6073 8.64669 13.1204 8.64648C13.8081 8.64648 14.4676 8.9195 14.954 9.40554C15.4404 9.89158 15.714 10.5509 15.7145 11.2385L15.7156 11.2396Z" fill="white"/>
<path d="M14.9483 11.2603C14.9483 11.6212 14.8412 11.9739 14.6407 12.274C14.4402 12.5741 14.1553 12.808 13.8218 12.9461C13.4884 13.0842 13.1215 13.1203 12.7676 13.0499C12.4136 12.9795 12.0885 12.8057 11.8333 12.5505C11.5781 12.2953 11.4043 11.9702 11.3339 11.6162C11.2635 11.2623 11.2996 10.8954 11.4377 10.562C11.5758 10.2285 11.8097 9.94357 12.1098 9.74307C12.4099 9.54256 12.7626 9.43555 13.1235 9.43555C13.6075 9.43555 14.0716 9.62779 14.4138 9.96999C14.756 10.3122 14.9483 10.7763 14.9483 11.2603Z" fill="#58595B"/>
<path d="M25.0765 14.9686C22.9743 16.4496 20.5841 17.5732 17.1933 17.5732C15.6061 17.5732 15.2845 15.8914 14.2355 16.7134C13.6942 17.1401 11.7854 18.0945 10.2707 18.022C8.75608 17.9495 6.30071 17.0624 5.61644 13.8281C5.34525 17.0624 5.20651 19.4431 3.98828 22.1728C6.40582 26.044 12.1701 29.0302 17.4024 27.7437C16.8443 23.8178 20.2804 19.9729 22.2081 18.0084C22.9439 17.2631 24.3418 16.047 25.0765 14.9696V14.9686Z" fill="#8BC53F"/>
<path d="M24.9968 15.0658C24.3441 15.6607 23.5673 16.1011 22.7769 16.49C21.9767 16.8695 21.1427 17.1732 20.2858 17.3971C19.4281 17.6189 18.5336 17.786 17.6276 17.7041C16.7215 17.6221 15.7955 17.3141 15.1953 16.6351L15.2237 16.6025C15.9595 17.0797 16.8088 17.2479 17.6538 17.2721C18.5104 17.2984 19.3673 17.2279 20.208 17.0618C21.0573 16.8838 21.8881 16.6269 22.6897 16.2945C23.4917 15.9634 24.2852 15.5798 24.9685 15.0332L24.9968 15.0658Z" fill="#58595B"/>
</svg>
