<svg width="5" height="19" viewBox="0 0 5 19" fill="none" xmlns="http://www.w3.org/2000/svg">
<path d="M2.49938 5.00462C3.75158 5.00462 4.77611 3.9801 4.77611 2.7279C4.77611 1.4757 3.75158 0.451172 2.49938 0.451172C1.24718 0.451172 0.222656 1.4757 0.222656 2.7279C0.222656 3.9801 1.24718 5.00462 2.49938 5.00462ZM2.49938 7.28135C1.24718 7.28135 0.222656 8.30587 0.222656 9.55807C0.222656 10.8103 1.24718 11.8348 2.49938 11.8348C3.75158 11.8348 4.77611 10.8103 4.77611 9.55807C4.77611 8.30587 3.75158 7.28135 2.49938 7.28135ZM2.49938 14.1115C1.24718 14.1115 0.222656 15.136 0.222656 16.3882C0.222656 17.6404 1.24718 18.665 2.49938 18.665C3.75158 18.665 4.77611 17.6404 4.77611 16.3882C4.77611 15.136 3.75158 14.1115 2.49938 14.1115Z" fill="white"/>
</svg>
