<svg width="29" height="29" viewBox="0 0 29 29" fill="none" xmlns="http://www.w3.org/2000/svg">
<g clip-path="url(#clip0_5256_5512)">
<path d="M14.4994 9.99486C15.7516 9.99486 16.7761 8.97033 16.7761 7.71813C16.7761 6.46593 15.7516 5.44141 14.4994 5.44141C13.2472 5.44141 12.2227 6.46593 12.2227 7.71813C12.2227 8.97033 13.2472 9.99486 14.4994 9.99486ZM14.4994 12.2716C13.2472 12.2716 12.2227 13.2961 12.2227 14.5483C12.2227 15.8005 13.2472 16.825 14.4994 16.825C15.7516 16.825 16.7761 15.8005 16.7761 14.5483C16.7761 13.2961 15.7516 12.2716 14.4994 12.2716ZM14.4994 19.1018C13.2472 19.1018 12.2227 20.1263 12.2227 21.3785C12.2227 22.6307 13.2472 23.6552 14.4994 23.6552C15.7516 23.6552 16.7761 22.6307 16.7761 21.3785C16.7761 20.1263 15.7516 19.1018 14.4994 19.1018Z" fill="white"/>
</g>
<defs>
<clipPath id="clip0_5256_5512">
<rect width="27.3207" height="27.3207" fill="white" transform="translate(0.837891 0.886719)"/>
</clipPath>
</defs>
</svg>
