<svg width="30" height="30" viewBox="0 0 30 30" fill="none" xmlns="http://www.w3.org/2000/svg">
<path fill-rule="evenodd" clip-rule="evenodd" d="M15.187 29.8818C23.1981 29.8818 29.6923 23.3875 29.6923 15.3764C29.6923 7.36536 23.1981 0.871094 15.187 0.871094C7.1759 0.871094 0.681641 7.36536 0.681641 15.3764C0.681641 23.3875 7.1759 29.8818 15.187 29.8818ZM22.898 9.27628L21.6755 10.4582C21.5708 10.5375 21.5172 10.6717 21.5395 10.8027V19.4906C21.5172 19.621 21.5714 19.7551 21.6761 19.8351L22.87 21.0164V21.2751H16.8612V21.0157L18.0997 19.8048C18.2198 19.6835 18.2198 19.6455 18.2198 19.4603V12.4406L14.7768 21.2525H14.3114L10.3073 12.4406V18.3462C10.2722 18.5958 10.3545 18.8442 10.5288 19.0236L12.1376 20.9906V21.2493H7.57617V20.9938L9.18497 19.0236C9.35606 18.8449 9.43523 18.592 9.39118 18.3462V11.5188C9.40969 11.3297 9.33691 11.142 9.19774 11.0136L7.76961 9.27628V9.01758H12.2104L15.6444 16.6095L18.6628 9.01758H22.898V9.27628Z" fill="white"/>
</svg>
