<svg width="30" height="30" viewBox="0 0 30 30" fill="none" xmlns="http://www.w3.org/2000/svg">
<circle cx="14.7181" cy="14.5404" r="14.5052" fill="#2A58FC"/>
<g clip-path="url(#clip0_5256_5488)">
<path d="M23.6512 16.8966C23.4599 17.0265 23.2365 17.1032 23.0047 17.1185C22.7728 17.1338 22.541 17.0873 22.3338 16.9838C21.8472 16.713 21.585 16.078 21.585 15.2127V12.5608C21.585 11.2878 21.0732 10.382 20.217 10.1361C18.77 9.71903 17.6895 11.4652 17.2725 12.1219L14.7134 16.2025V11.2224C14.685 10.0739 14.3059 9.38598 13.5887 9.18055C13.1148 9.0436 12.4039 9.09963 11.712 10.1392L5.99046 19.1875C5.22918 17.7525 4.83445 16.1564 4.84045 14.5373C4.84045 9.08406 9.26354 4.64865 14.7134 4.64865C20.1633 4.64865 24.6022 9.08406 24.6022 14.5373V14.5653C24.6022 14.5653 24.6022 14.584 24.6022 14.5933C24.6559 15.6485 24.3084 16.4889 23.6544 16.8966H23.6512ZM26.8106 14.5404V14.4875C26.7664 7.84215 21.3575 2.45117 14.7134 2.45117C8.06931 2.45117 2.62891 7.87327 2.62891 14.5373C2.62891 21.2013 8.05035 26.6265 14.7134 26.6265C17.7694 26.6264 20.7091 25.4724 22.9277 23.4019C23.1431 23.202 23.2698 22.9266 23.2805 22.6353C23.2911 22.344 23.1848 22.0602 22.9846 21.8456C22.8888 21.7412 22.773 21.6565 22.6438 21.5964C22.5147 21.5362 22.3747 21.5018 22.232 21.4952C22.0893 21.4885 21.9467 21.5097 21.8123 21.5576C21.678 21.6054 21.5546 21.679 21.4492 21.774C20.494 22.6667 19.3655 23.36 18.1316 23.8123C16.8977 24.2646 15.5837 24.4666 14.2685 24.4061C12.9534 24.3456 11.6642 24.024 10.4784 23.4604C9.29258 22.8969 8.23459 22.103 7.36793 21.1266L12.5177 12.9717V16.7348C12.5177 18.5432 13.2285 19.1283 13.8256 19.2995C14.4228 19.4707 15.3358 19.3524 16.2931 17.8211L19.1365 13.286C19.225 13.1397 19.3103 13.0152 19.3861 12.9063V15.2127C19.3861 16.9028 20.0748 18.2537 21.2817 18.9198C21.8305 19.2117 22.4489 19.3527 23.072 19.328C23.6952 19.3034 24.3001 19.114 24.8233 18.7797C26.1503 17.93 26.8738 16.3924 26.7979 14.5404H26.8106Z" fill="white"/>
</g>
<defs>
<clipPath id="clip0_5256_5488">
<rect width="24.1754" height="24.1754" fill="white" transform="translate(2.62891 2.45117)"/>
</clipPath>
</defs>
</svg>
