<svg width="87" height="87" viewBox="0 0 87 87" fill="none" xmlns="http://www.w3.org/2000/svg">
<circle cx="43.5" cy="43.5" r="43.5" fill="white"/>
<path d="M36.9368 23.1811C42.7385 23.1944 48.3867 25.0718 53.0539 28.5438C57.7276 32.0262 61.1697 36.9076 62.8802 42.4794C64.599 48.0615 64.5012 54.0509 62.5999 59.5722C60.7066 65.0836 57.1051 69.8476 52.3188 73.172C57.0944 71.458 61.352 68.5505 64.6863 64.726C68.0314 60.8908 70.3471 56.2684 71.4161 51.2929C72.4876 46.3093 72.2784 41.1354 70.8079 36.2546C69.3409 31.3823 66.6582 26.9634 63.0124 23.4138C59.3793 19.8751 54.9003 17.3261 50.0024 16.0097C45.1129 14.6974 39.9682 14.6637 35.062 15.9119C30.1472 17.1643 25.6353 19.6551 21.9568 23.1468C18.2672 26.6481 15.529 31.0306 14 35.8818C16.4415 31.9923 19.8284 28.7846 23.8448 26.5579C27.8562 24.3367 32.3595 23.1732 36.9368 23.1811Z" fill="black"/>
<path d="M47.0229 42.7717C46.7412 41.8663 46.1985 41.0641 45.4627 40.4659C44.9142 40.0196 44.2731 39.7012 43.586 39.5338C42.8989 39.3663 42.1832 39.3541 41.4908 39.4979C40.7985 39.6418 40.1468 39.9381 39.5833 40.3653C39.0198 40.7926 38.5586 41.34 38.2332 41.9679C37.7931 42.8092 37.61 43.7614 37.7069 44.706C37.8038 45.6505 38.1762 46.5458 38.7779 47.2803C39.3775 48.0096 40.1799 48.5447 41.0835 48.8182C41.9872 49.0916 42.9516 49.0911 43.855 48.8166C44.4604 48.6314 45.0229 48.3274 45.5096 47.9224C45.9963 47.5175 46.3975 47.0196 46.6897 46.4579C47.2848 45.3219 47.4047 43.9961 47.0229 42.7717ZM42.6465 44.8131C42.1676 44.9602 41.6557 44.9608 41.1765 44.8147C40.6973 44.6686 40.2727 44.3826 39.9573 43.9934C39.7199 43.7024 39.5495 43.3627 39.4583 42.9984C39.367 42.6341 39.3572 42.2541 39.4294 41.8856C39.5016 41.517 39.6541 41.1689 39.876 40.866C40.098 40.563 40.3839 40.3127 40.7135 40.1327C41.1536 39.8946 41.6547 39.7933 42.1527 39.8419C42.6507 39.8904 43.1228 40.0865 43.5086 40.4051C43.9645 40.7782 44.2769 41.2978 44.3926 41.8755C44.5083 42.4531 44.4202 43.053 44.1432 43.573C43.9875 43.8679 43.7751 44.1292 43.5183 44.342C43.2615 44.5548 42.9653 44.7149 42.6465 44.8131Z" fill="black"/>
<path d="M54.2709 41.2347C53.8796 40.7136 53.4481 40.2238 52.9805 39.7698C52.5065 39.3087 52.0049 38.8769 51.4785 38.4767C50.9311 38.1144 50.4049 37.7231 49.8205 37.3899C49.2404 37.0547 48.6358 36.7639 48.0118 36.5199C47.3951 36.2454 46.7553 36.026 46.1 35.8641C45.4538 35.6664 44.7894 35.5344 44.1167 35.4701C43.4431 35.3588 42.7605 35.311 42.078 35.3273C41.3894 35.3168 40.7009 35.3442 40.0154 35.4093L37.9872 35.7584C37.3208 35.9012 36.6835 36.1497 36.0225 36.3454L35.0467 36.6574C34.7241 36.7764 34.4253 36.9351 34.1159 37.0726C33.5024 37.3529 32.8784 37.6385 32.2702 37.9399C31.662 38.244 31.1225 38.6512 30.5461 38.9976C29.9684 39.3476 29.4005 39.7135 28.8431 40.095C27.7907 40.9254 26.733 41.7504 25.6964 42.6019L24.4668 43.6226L25.4267 44.9606C26.064 45.8544 26.7726 46.6926 27.5421 47.47C28.2799 48.2263 29.0547 48.9456 29.8612 49.6225C30.6862 50.2862 31.5483 50.9024 32.4421 51.4656C33.3332 52.0394 34.264 52.5445 35.2265 52.9782L36.6677 53.6287C37.1622 53.8243 37.6725 53.9592 38.167 54.1337L39.669 54.6097C40.1793 54.7472 40.7029 54.8292 41.2212 54.9191C42.2472 55.1359 43.2891 55.2629 44.3362 55.2893C45.3781 55.3475 46.4226 55.3475 47.4644 55.2893C48.501 55.1915 49.527 55.0778 50.5583 54.9508C51.5843 54.8213 52.56 54.4669 53.5569 54.1945L55.0589 53.8164C55.5455 53.6736 56.0109 53.4541 56.4842 53.2637L59.266 52.1611C60.1757 51.7327 61.0589 51.2541 61.9156 50.7252C62.7883 50.2201 63.6556 49.7283 64.5044 49.2153C66.1175 48.0201 65.6679 47.8773 67.2043 46.645C65.3982 47.47 65.66 47.2664 63.92 48.1576C63.021 48.5278 62.1034 48.861 61.1964 49.2074C60.2867 49.5538 59.4167 49.9636 58.4939 50.2201L55.7253 50.9764C55.2678 51.0954 54.8183 51.2461 54.3502 51.3546L52.9567 51.5714C52.0179 51.701 51.1057 51.9204 50.1722 51.9813C49.2441 52.0421 48.3133 52.0262 47.3904 52.0791C46.4693 52.0678 45.5495 52.0069 44.635 51.8966C43.7223 51.8212 42.8186 51.6619 41.9352 51.4207C41.4988 51.307 41.0414 51.2541 40.6077 51.1192L39.3173 50.6802C38.8889 50.5295 38.4447 50.4 38.0269 50.2281L36.7946 49.6384C35.9734 49.2566 35.1814 48.8147 34.4253 48.3162C33.6294 47.8614 32.9233 47.2717 32.1723 46.7508C31.424 46.2299 30.755 45.5503 30.1389 44.8918C29.5128 44.2774 28.9313 43.619 28.3989 42.9218L28.1292 45.2938C29.06 44.5375 29.967 43.6675 30.8898 42.8531L32.3918 41.7953C32.8863 41.4542 33.3596 41.0391 33.8911 40.7588C34.4253 40.4811 34.9409 40.1691 35.4592 39.8676C35.7237 39.7248 35.9775 39.5503 36.2472 39.4207L37.0723 39.0823C37.6276 38.8628 38.167 38.5825 38.7302 38.4159L40.457 37.9479C41.0387 37.8183 41.6205 37.7204 42.2128 37.6543C42.8025 37.5618 43.4028 37.5274 43.9977 37.5565H44.8968L45.7906 37.6543C46.3988 37.704 47.0014 37.8075 47.5914 37.9637C48.1916 38.0959 48.7813 38.2731 49.3551 38.4926C49.9554 38.675 50.5028 38.9606 51.0898 39.2039C52.2189 39.7645 53.2846 40.4467 54.2709 41.2347Z" fill="black"/>
</svg>
