<svg width="123" height="124" viewBox="0 0 123 124" fill="none" xmlns="http://www.w3.org/2000/svg">
<g clip-path="url(#clip0_5209_2845)">
<path d="M61.5 103.057L57.0925 98.6491C51.045 92.6016 51.0962 82.7616 57.195 76.8166L61.5 72.6141C59.5013 72.4091 58.015 72.3066 56.375 72.3066C42.6912 72.3066 15.375 79.1741 15.375 92.8066V103.057H61.5ZM56.375 62.0566C67.7013 62.0566 76.875 52.8829 76.875 41.5566C76.875 30.2304 67.7013 21.0566 56.375 21.0566C45.0487 21.0566 35.875 30.2304 35.875 41.5566C35.875 52.8829 45.0487 62.0566 56.375 62.0566Z" fill="url(#paint0_linear_5209_2845)"/>
<path d="M82.9191 101.933C80.9204 103.931 77.6404 103.931 75.6416 101.933L65.0329 91.2213C63.0854 89.2225 63.0854 86.045 65.0329 84.0975L65.0841 84.0463C67.0829 82.0475 70.3116 82.0475 72.2591 84.0463L79.2804 91.0675L101.984 68.21C103.983 66.2113 107.212 66.2113 109.21 68.21L109.262 68.2613C111.209 70.26 111.209 73.4375 109.262 75.385L82.9191 101.933Z" fill="url(#paint1_linear_5209_2845)" fill-opacity="0.6"/>
<path d="M25.0207 44.0405C24.888 44.0405 24.7553 44.0073 24.6392 43.941C21.4544 42.2988 18.7008 41.6021 15.3999 41.6021C12.1155 41.6021 8.99707 42.3817 6.16059 43.941C5.76249 44.1566 5.26486 44.0073 5.03264 43.6092C4.817 43.2111 4.96628 42.6969 5.36439 42.4813C8.44968 40.8059 11.8335 39.9434 15.3999 39.9434C18.933 39.9434 22.0183 40.723 25.4022 42.4647C25.8169 42.6803 25.9662 43.1779 25.7505 43.576C25.6013 43.8746 25.3193 44.0405 25.0207 44.0405ZM1.28384 52.749C1.11796 52.749 0.952086 52.6992 0.802798 52.5997C0.421283 52.3343 0.338345 51.8201 0.603747 51.4386C2.24592 49.1163 4.33596 47.2917 6.8241 46.0144C12.0326 43.3272 18.7008 43.3106 23.9259 45.9978C26.414 47.2751 28.5041 49.0831 30.1463 51.3888C30.4117 51.7537 30.3287 52.2845 29.9472 52.5499C29.5657 52.8153 29.0515 52.7324 28.7861 52.3509C27.2932 50.2608 25.4022 48.6187 23.1629 47.4741C18.4022 45.0358 12.3146 45.0358 7.57054 47.4907C5.31462 48.6518 3.42364 50.3106 1.93075 52.4006C1.79805 52.6329 1.54924 52.749 1.28384 52.749ZM11.6511 72.7702C11.4354 72.7702 11.2198 72.6873 11.0705 72.5214C9.6274 71.0783 8.84778 70.1494 7.73641 68.1423C6.59187 66.102 5.99472 63.6139 5.99472 60.9433C5.99472 56.0167 10.208 52.0025 15.3833 52.0025C20.5586 52.0025 24.7719 56.0167 24.7719 60.9433C24.7719 61.4077 24.4069 61.7726 23.9425 61.7726C23.478 61.7726 23.1131 61.4077 23.1131 60.9433C23.1131 56.9291 19.6463 53.6613 15.3833 53.6613C11.1203 53.6613 7.65348 56.9291 7.65348 60.9433C7.65348 63.3319 8.18428 65.538 9.19612 67.3295C10.2577 69.2371 10.9876 70.0498 12.2648 71.3437C12.58 71.6754 12.58 72.1896 12.2648 72.5214C12.0824 72.6873 11.8667 72.7702 11.6511 72.7702ZM23.5444 69.7015C21.5705 69.7015 19.8288 69.2039 18.4022 68.2252C15.9307 66.5499 14.4544 63.8295 14.4544 60.9433C14.4544 60.4788 14.8193 60.1139 15.2838 60.1139C15.7482 60.1139 16.1131 60.4788 16.1131 60.9433C16.1131 63.2821 17.3075 65.4883 19.3311 66.8484C20.5089 67.6446 21.8856 68.0262 23.5444 68.0262C23.9425 68.0262 24.606 67.9764 25.2695 67.8603C25.7174 67.7773 26.1486 68.0759 26.2316 68.5404C26.3145 68.9882 26.0159 69.4195 25.5515 69.5025C24.606 69.6849 23.7766 69.7015 23.5444 69.7015ZM20.2103 73.1185C20.1439 73.1185 20.061 73.102 19.9946 73.0854C17.3572 72.3555 15.6321 71.3769 13.8241 69.602C11.5018 67.2963 10.2246 64.2276 10.2246 60.9433C10.2246 58.2561 12.5136 56.0665 15.3335 56.0665C18.1534 56.0665 20.4425 58.2561 20.4425 60.9433C20.4425 62.7181 21.9852 64.1612 23.8927 64.1612C25.8003 64.1612 27.3429 62.7181 27.3429 60.9433C27.3429 54.6897 21.952 49.6139 15.3169 49.6139C10.6061 49.6139 6.29329 52.2348 4.35254 56.2987C3.70563 57.6423 3.37388 59.2181 3.37388 60.9433C3.37388 62.2371 3.48999 64.2774 4.48524 66.9314C4.65112 67.3627 4.43548 67.8437 4.0042 67.993C3.57293 68.1589 3.09189 67.9266 2.9426 67.5119C2.12981 65.339 1.7317 63.1826 1.7317 60.9433C1.7317 58.9527 2.11322 57.1447 2.85966 55.5689C5.06581 50.9409 9.95915 47.9386 15.3169 47.9386C22.8643 47.9386 29.0017 53.7608 29.0017 60.9267C29.0017 63.6139 26.7126 65.8034 23.8927 65.8034C21.0728 65.8034 18.7838 63.6139 18.7838 60.9267C18.7838 59.1518 17.2411 57.7087 15.3335 57.7087C13.426 57.7087 11.8833 59.1518 11.8833 60.9267C11.8833 63.7631 12.9781 66.4172 14.9852 68.4077C16.561 69.9669 18.0705 70.8295 20.4093 71.4764C20.8572 71.5925 21.106 72.0569 20.9899 72.4882C20.907 72.8697 20.5586 73.1185 20.2103 73.1185Z" fill="#2DFF82"/>
</g>
<defs>
<linearGradient id="paint0_linear_5209_2845" x1="46.125" y1="21.0566" x2="7" y2="108.99" gradientUnits="userSpaceOnUse">
<stop stop-color="#2DFF82"/>
</linearGradient>
<linearGradient id="paint1_linear_5209_2845" x1="87.1473" y1="66.7109" x2="87.1473" y2="103.432" gradientUnits="userSpaceOnUse">
<stop stop-color="#A9A7B8" stop-opacity="0.7"/>
<stop offset="1" stop-color="#9790BE" stop-opacity="0.33"/>
</linearGradient>
<clipPath id="clip0_5209_2845">
<rect width="123" height="123" fill="white" transform="translate(0 0.556641)"/>
</clipPath>
</defs>
</svg>
