<svg width="182" height="109" viewBox="0 0 182 109" fill="none" xmlns="http://www.w3.org/2000/svg">
<path d="M85.1527 60.4129H65.9383L48.3284 34.0582C46.7238 31.6915 43.2339 31.6915 41.6695 34.0582L24.0596 60.4129H4.92543C2.71918 60.4129 0.914062 62.218 0.914062 64.4243C0.914062 64.7853 0.954176 65.1463 1.07452 65.5073L11.2634 102.693C12.186 106.062 15.2747 108.549 18.9652 108.549H71.1129C74.8034 108.549 77.8921 106.062 78.8549 102.693L89.0437 65.5073L89.1641 64.4243C89.1641 62.218 87.3589 60.4129 85.1527 60.4129ZM44.9989 43.525L56.2709 60.4129H33.727L44.9989 43.525ZM45.0391 92.5038C40.6266 92.5038 37.0163 88.8936 37.0163 84.4811C37.0163 80.0686 40.6266 76.4583 45.0391 76.4583C49.4516 76.4583 53.0618 80.0686 53.0618 84.4811C53.0618 88.8936 49.4516 92.5038 45.0391 92.5038Z" fill="#2DFF82"/>
<rect x="68.8047" y="15.7344" width="35.7939" height="17.064" transform="rotate(-13.6407 68.8047 15.7344)" fill="#0E1017"/>
<g filter="url(#filter0_b_5763_3278)">
<path d="M72.8301 32.3184L107.614 23.877L112.911 45.7039C113.118 46.5558 112.595 47.4141 111.743 47.6208L80.0439 55.3135C79.192 55.5203 78.3338 54.9972 78.127 54.1453L72.8301 32.3184Z" fill="white" fill-opacity="0.12"/>
<path d="M72.878 32.3476L107.585 23.9249L112.873 45.7133C113.074 46.5439 112.564 47.3807 111.734 47.5822L80.0345 55.275C79.2039 55.4765 78.3672 54.9666 78.1656 54.136L72.878 32.3476Z" stroke="#2F2954" stroke-opacity="0.09" stroke-width="0.0793657"/>
</g>
<g filter="url(#filter1_b_5763_3278)">
<path d="M67.5228 10.4507C67.316 9.59882 67.8391 8.7406 68.691 8.53386L100.39 0.84114C101.242 0.634398 102.1 1.15742 102.307 2.00934L103.589 7.29336L68.8051 15.7348L67.5228 10.4507Z" fill="white" fill-opacity="0.11"/>
</g>
<rect x="76.6426" y="34.7949" width="14.7748" height="2.79749" rx="1.39874" transform="rotate(-13.6407 76.6426 34.7949)" fill="white"/>
<rect x="80.0176" y="48.7031" width="6.795" height="2.79749" rx="1.39874" transform="rotate(-13.6407 80.0176 48.7031)" fill="#191C29"/>
<rect x="87.7715" y="46.8223" width="6.795" height="2.79749" rx="1.39874" transform="rotate(-13.6407 87.7715 46.8223)" fill="#191C29"/>
<rect x="102.418" y="43.2695" width="6.795" height="2.79749" rx="1.39874" transform="rotate(-13.6407 102.418 43.2695)" fill="#191C29"/>
<rect x="78.4082" y="42.0664" width="29.8439" height="2.79749" rx="1.39874" transform="rotate(-13.6407 78.4082 42.0664)" fill="#2DFF82"/>
<rect x="135.359" y="21.752" width="45.3327" height="21.6114" transform="rotate(17.2624 135.359 21.752)" fill="#0E1017"/>
<g filter="url(#filter2_b_5763_3278)">
<path d="M128.947 42.3906L172.238 55.843L163.797 83.0077C163.467 84.068 162.341 84.6604 161.28 84.3309L121.829 72.0716C120.769 71.7422 120.177 70.6156 120.506 69.5553L128.947 42.3906Z" fill="white" fill-opacity="0.12"/>
<path d="M128.98 42.4535L172.175 55.8761L163.749 82.9928C163.427 84.0265 162.329 84.6041 161.295 84.2829L121.844 72.0236C120.81 71.7024 120.233 70.604 120.554 69.5702L128.98 42.4535Z" stroke="#2F2954" stroke-opacity="0.09" stroke-width="0.100516"/>
</g>
<g filter="url(#filter3_b_5763_3278)">
<path d="M137.403 15.1756C137.733 14.1154 138.86 13.5229 139.92 13.8524L179.371 26.1117C180.431 26.4412 181.024 27.5677 180.694 28.628L178.651 35.2042L135.36 21.7518L137.403 15.1756Z" fill="white" fill-opacity="0.11"/>
</g>
<rect x="131.48" y="47.5625" width="18.7121" height="3.54299" rx="1.77149" transform="rotate(17.2624 131.48 47.5625)" fill="white"/>
<rect x="126.102" y="64.873" width="8.60581" height="3.54299" rx="1.77149" transform="rotate(17.2624 126.102 64.873)" fill="#191C29"/>
<rect x="135.752" y="67.873" width="8.60581" height="3.54299" rx="1.77149" transform="rotate(17.2624 135.752 67.873)" fill="#191C29"/>
<rect x="153.979" y="73.5371" width="8.60581" height="3.54299" rx="1.77149" transform="rotate(17.2624 153.979 73.5371)" fill="#191C29"/>
<rect x="128.67" y="56.6113" width="37.797" height="3.54299" rx="1.77149" transform="rotate(17.2624 128.67 56.6113)" fill="#2DFF82"/>
<defs>
<filter id="filter0_b_5763_3278" x="70.9253" y="21.9722" width="43.9365" height="35.292" filterUnits="userSpaceOnUse" color-interpolation-filters="sRGB">
<feFlood flood-opacity="0" result="BackgroundImageFix"/>
<feGaussianBlur in="BackgroundImage" stdDeviation="0.952389"/>
<feComposite in2="SourceAlpha" operator="in" result="effect1_backgroundBlur_5763_3278"/>
<feBlend mode="normal" in="SourceGraphic" in2="effect1_backgroundBlur_5763_3278" result="shape"/>
</filter>
<filter id="filter1_b_5763_3278" x="63.669" y="-3.01268" width="43.7304" height="22.5566" filterUnits="userSpaceOnUse" color-interpolation-filters="sRGB">
<feFlood flood-opacity="0" result="BackgroundImageFix"/>
<feGaussianBlur in="BackgroundImage" stdDeviation="1.90478"/>
<feComposite in2="SourceAlpha" operator="in" result="effect1_backgroundBlur_5763_3278"/>
<feBlend mode="normal" in="SourceGraphic" in2="effect1_backgroundBlur_5763_3278" result="shape"/>
</filter>
<filter id="filter2_b_5763_3278" x="118.002" y="39.9782" width="56.649" height="46.856" filterUnits="userSpaceOnUse" color-interpolation-filters="sRGB">
<feFlood flood-opacity="0" result="BackgroundImageFix"/>
<feGaussianBlur in="BackgroundImage" stdDeviation="1.20619"/>
<feComposite in2="SourceAlpha" operator="in" result="effect1_backgroundBlur_5763_3278"/>
<feBlend mode="normal" in="SourceGraphic" in2="effect1_backgroundBlur_5763_3278" result="shape"/>
</filter>
<filter id="filter3_b_5763_3278" x="130.535" y="8.93695" width="55.0753" height="31.0929" filterUnits="userSpaceOnUse" color-interpolation-filters="sRGB">
<feFlood flood-opacity="0" result="BackgroundImageFix"/>
<feGaussianBlur in="BackgroundImage" stdDeviation="2.41238"/>
<feComposite in2="SourceAlpha" operator="in" result="effect1_backgroundBlur_5763_3278"/>
<feBlend mode="normal" in="SourceGraphic" in2="effect1_backgroundBlur_5763_3278" result="shape"/>
</filter>
</defs>
</svg>
