<svg width="447" height="166" viewBox="0 0 447 166" fill="none" xmlns="http://www.w3.org/2000/svg">
<mask id="mask0_5181_5822" style="mask-type:alpha" maskUnits="userSpaceOnUse" x="0" y="0" width="447" height="166">
<rect y="0.990234" width="447" height="165" rx="20" fill="#313855" fill-opacity="0.49"/>
<rect x="0.5" y="1.49023" width="446" height="164" rx="19.5" stroke="#2F2954" stroke-opacity="0.09"/>
</mask>
<g mask="url(#mask0_5181_5822)">
<g style="mix-blend-mode:color-dodge" opacity="0.3">
<path d="M90.5809 183.375C88.7109 190.875 81.1138 195.439 73.612 193.569C66.1133 191.699 61.5484 184.103 63.4194 176.603C65.2886 169.102 72.8857 164.537 80.3852 166.407C87.8865 168.277 92.451 175.875 90.5809 183.375Z" fill="url(#paint0_linear_5181_5822)"/>
<path d="M90.5809 183.375C88.7109 190.875 81.1138 195.439 73.612 193.569C66.1133 191.699 61.5484 184.103 63.4194 176.603C65.2886 169.102 72.8857 164.537 80.3852 166.407C87.8865 168.277 92.451 175.875 90.5809 183.375Z" fill="#07D2DF"/>
<path d="M90.5809 183.375C88.7109 190.875 81.1138 195.439 73.612 193.569C66.1133 191.699 61.5484 184.103 63.4194 176.603C65.2886 169.102 72.8857 164.537 80.3852 166.407C87.8865 168.277 92.451 175.875 90.5809 183.375Z" fill="url(#paint1_linear_5181_5822)"/>
</g>
<g style="mix-blend-mode:color-burn">
<path d="M358.952 153.457C354.277 172.207 335.284 183.618 316.53 178.942C297.783 174.268 286.371 155.276 291.048 136.527C295.721 117.775 314.714 106.363 333.463 111.038C352.216 115.712 363.628 134.706 358.952 153.457Z" fill="url(#paint2_linear_5181_5822)"/>
<path d="M358.952 153.457C354.277 172.207 335.284 183.618 316.53 178.942C297.783 174.268 286.371 155.276 291.048 136.527C295.721 117.775 314.714 106.363 333.463 111.038C352.216 115.712 363.628 134.706 358.952 153.457Z" fill="#07D2DF"/>
<path d="M358.952 153.457C354.277 172.207 335.284 183.618 316.53 178.942C297.783 174.268 286.371 155.276 291.048 136.527C295.721 117.775 314.714 106.363 333.463 111.038C352.216 115.712 363.628 134.706 358.952 153.457Z" fill="url(#paint3_linear_5181_5822)"/>
<mask id="mask1_5181_5822" style="mask-type:alpha" maskUnits="userSpaceOnUse" x="302" y="122" width="48" height="38">
<path fill-rule="evenodd" clip-rule="evenodd" d="M302.35 122.674H349.068V159.117H302.35V122.674Z" fill="white"/>
</mask>
<g mask="url(#mask1_5181_5822)">
<path fill-rule="evenodd" clip-rule="evenodd" d="M343.657 130.116C343.398 129.866 343.133 129.625 342.867 129.385C340.526 127.289 337.858 125.616 334.96 124.463C332.063 123.31 328.938 122.674 325.675 122.674C318.823 122.674 312.566 125.445 307.79 130.017C306.69 131.07 305.669 132.218 304.737 133.45C303.857 134.615 303.061 135.856 302.35 137.16L309.083 143.221C309.706 141.851 310.463 140.568 311.341 139.395C312.272 138.153 313.34 137.039 314.512 136.068C317.629 133.484 321.512 131.944 325.729 131.944C326.023 131.944 326.312 131.97 326.604 131.985C330.128 132.164 333.392 133.412 336.135 135.445C336.426 135.661 336.719 135.876 336.999 136.109L315.283 155.656C318.027 157.689 321.29 158.937 324.815 159.117L342.403 143.284L349.068 137.284C348.34 135.935 347.521 134.652 346.612 133.45C345.708 132.256 344.719 131.142 343.657 130.116Z" fill="white"/>
</g>
<mask id="mask2_5181_5822" style="mask-type:alpha" maskUnits="userSpaceOnUse" x="302" y="130" width="48" height="38">
<path fill-rule="evenodd" clip-rule="evenodd" d="M302.35 130.621H349.068V167.064H302.35V130.621Z" fill="white"/>
</mask>
<g mask="url(#mask2_5181_5822)">
<path fill-rule="evenodd" clip-rule="evenodd" d="M336.906 153.67C333.789 156.254 329.905 157.793 325.689 157.793C322.747 157.793 319.973 157.03 317.501 155.699C317.054 155.456 316.722 155.26 316.395 155.053C316.35 155.024 316.305 154.994 316.26 154.966C315.928 154.751 315.602 154.529 315.284 154.293C314.992 154.076 314.699 153.862 314.42 153.629L336.135 134.082C333.392 132.049 330.128 130.801 326.604 130.621L309.015 146.454L302.35 152.453C303.078 153.802 303.898 155.086 304.806 156.287C305.71 157.482 306.7 158.595 307.762 159.622C312.55 164.251 318.845 167.064 325.743 167.064C332.595 167.064 338.853 164.292 343.628 159.721C344.728 158.668 345.749 157.519 346.681 156.287C347.561 155.123 348.357 153.881 349.068 152.578L342.335 146.516C341.712 147.886 340.954 149.17 340.076 150.342C339.145 151.585 338.079 152.699 336.906 153.67Z" fill="white"/>
</g>
</g>
<g style="mix-blend-mode:color-burn">
<path d="M298.834 25.7961C295.659 38.6532 282.758 46.4779 270.02 43.2717C257.287 40.0662 249.535 27.0434 252.712 14.187C255.886 1.32838 268.787 -6.49704 281.521 -3.29158C294.259 -0.0861084 302.01 12.9383 298.834 25.7961Z" fill="url(#paint4_linear_5181_5822)"/>
<path d="M298.834 25.7961C295.659 38.6532 282.758 46.4779 270.02 43.2717C257.287 40.0662 249.535 27.0434 252.712 14.187C255.886 1.32838 268.787 -6.49704 281.521 -3.29158C294.259 -0.0861084 302.01 12.9383 298.834 25.7961Z" fill="#07D2DF"/>
<path d="M298.834 25.7961C295.659 38.6532 282.758 46.4779 270.02 43.2717C257.287 40.0662 249.535 27.0434 252.712 14.187C255.886 1.32838 268.787 -6.49704 281.521 -3.29158C294.259 -0.0861084 302.01 12.9383 298.834 25.7961Z" fill="url(#paint5_linear_5181_5822)"/>
<mask id="mask3_5181_5822" style="mask-type:alpha" maskUnits="userSpaceOnUse" x="260" y="4" width="33" height="26">
<path fill-rule="evenodd" clip-rule="evenodd" d="M260.387 4.6875H292.119V29.6768H260.387V4.6875Z" fill="white"/>
</mask>
<g mask="url(#mask3_5181_5822)">
<path fill-rule="evenodd" clip-rule="evenodd" d="M288.444 9.79079C288.268 9.61917 288.088 9.4537 287.907 9.28954C286.317 7.85253 284.505 6.7052 282.536 5.91427C280.569 5.12378 278.446 4.6875 276.23 4.6875C271.576 4.6875 267.326 6.58801 264.082 9.72275C263.335 10.4448 262.641 11.2322 262.008 12.0771C261.411 12.8755 260.87 13.727 260.387 14.6206L264.96 18.7772C265.384 17.8379 265.898 16.9579 266.494 16.1538C267.127 15.3018 267.852 14.5377 268.648 13.8718C270.765 12.0999 273.403 11.0443 276.266 11.0443C276.467 11.0443 276.663 11.0619 276.861 11.072C279.255 11.1953 281.471 12.0508 283.335 13.4448C283.533 13.5931 283.731 13.7402 283.922 13.8999L269.171 27.3036C271.035 28.6976 273.251 29.5535 275.646 29.6768L287.592 18.8202L292.119 14.7062C291.625 13.781 291.068 12.901 290.451 12.0771C289.837 11.2581 289.165 10.4944 288.444 9.79079Z" fill="white"/>
</g>
<mask id="mask4_5181_5822" style="mask-type:alpha" maskUnits="userSpaceOnUse" x="260" y="10" width="33" height="26">
<path fill-rule="evenodd" clip-rule="evenodd" d="M260.387 10.1367H292.119V35.126H260.387V10.1367Z" fill="white"/>
</mask>
<g mask="url(#mask4_5181_5822)">
<path fill-rule="evenodd" clip-rule="evenodd" d="M283.858 25.9417C281.741 27.7136 279.103 28.7687 276.24 28.7687C274.241 28.7687 272.357 28.2455 270.678 27.333C270.375 27.1662 270.149 27.0319 269.927 26.8897C269.896 26.87 269.866 26.8498 269.835 26.83C269.609 26.683 269.388 26.5307 269.172 26.3687C268.973 26.2204 268.775 26.0733 268.585 25.9136L283.335 12.5099C281.471 11.1159 279.255 10.2601 276.861 10.1367L264.914 20.9933L260.387 25.1073C260.881 26.0325 261.438 26.9126 262.055 27.7364C262.669 28.5554 263.342 29.3191 264.063 30.0232C267.315 33.197 271.591 35.126 276.276 35.126C280.93 35.126 285.181 33.2255 288.424 30.0907C289.171 29.3687 289.865 28.5813 290.498 27.7364C291.096 26.938 291.636 26.0865 292.119 25.1929L287.546 21.0363C287.123 21.9756 286.608 22.8556 286.012 23.6597C285.379 24.5117 284.655 25.2758 283.858 25.9417Z" fill="white"/>
</g>
</g>
<g filter="url(#filter0_f_5181_5822)">
<path d="M236.286 75.2869C231.157 34.4988 287.161 -6.27679 361.374 -15.788C435.587 -25.2991 499.906 0.0557795 505.035 40.8438C510.164 81.6319 424.545 183.691 379.947 131.919C341.383 68.0436 241.415 116.075 236.286 75.2869Z" fill="#00B2FF"/>
</g>
<g style="mix-blend-mode:overlay" filter="url(#filter1_d_5181_5822)">
<mask id="mask5_5181_5822" style="mask-type:alpha" maskUnits="userSpaceOnUse" x="366" y="23" width="113" height="89">
<path fill-rule="evenodd" clip-rule="evenodd" d="M366 23.9902H478.125V111.453H366V23.9902Z" fill="white"/>
</mask>
<g mask="url(#mask5_5181_5822)">
<path fill-rule="evenodd" clip-rule="evenodd" d="M465.138 41.8517C464.516 41.2511 463.881 40.6719 463.241 40.0974C457.623 35.0678 451.22 31.0522 444.264 28.2839C437.312 25.5172 429.811 23.9902 421.98 23.9902C405.537 23.9902 390.519 30.642 379.058 41.6136C376.418 44.1407 373.966 46.8966 371.73 49.8538C369.618 52.6482 367.708 55.6285 366 58.7562L382.16 73.3041C383.656 70.0166 385.473 66.9365 387.58 64.1222C389.815 61.1404 392.377 58.4658 395.19 56.1354C402.67 49.9337 411.991 46.2391 422.11 46.2391C422.817 46.2391 423.51 46.3006 424.21 46.3359C432.668 46.7676 440.501 49.7617 447.085 54.6407C447.784 55.1599 448.487 55.6745 449.159 56.2337L397.04 103.146C403.625 108.025 411.457 111.021 419.917 111.453L462.129 73.4546L478.125 59.0557C476.377 55.8174 474.41 52.7373 472.23 49.8538C470.061 46.9873 467.686 44.3143 465.138 41.8517Z" fill="white"/>
</g>
<mask id="mask6_5181_5822" style="mask-type:alpha" maskUnits="userSpaceOnUse" x="366" y="43" width="113" height="88">
<path fill-rule="evenodd" clip-rule="evenodd" d="M366 43.0605H478.125V130.523H366V43.0605Z" fill="white"/>
</mask>
<g mask="url(#mask6_5181_5822)">
<path fill-rule="evenodd" clip-rule="evenodd" d="M448.935 98.3779C441.454 104.58 432.134 108.273 422.015 108.273C414.954 108.273 408.296 106.441 402.364 103.248C401.292 102.664 400.494 102.194 399.709 101.696C399.6 101.627 399.493 101.556 399.385 101.487C398.587 100.973 397.805 100.439 397.042 99.8726C396.341 99.3534 395.638 98.8387 394.968 98.2796L447.085 51.3668C440.501 46.4878 432.668 43.4922 424.21 43.0605L381.996 81.0587L366 95.4575C367.748 98.6959 369.716 101.776 371.895 104.659C374.064 107.526 376.441 110.199 378.989 112.663C390.481 123.771 405.589 130.523 422.145 130.523C438.588 130.523 453.607 123.871 465.067 112.9C467.707 110.373 470.159 107.617 472.395 104.659C474.508 101.865 476.418 98.8848 478.125 95.7571L461.965 81.2092C460.47 84.4967 458.652 87.5768 456.544 90.3911C454.31 93.3729 451.75 96.0475 448.935 98.3779Z" fill="white"/>
</g>
</g>
</g>
<defs>
<filter id="filter0_f_5181_5822" x="78.9609" y="-174.787" width="583.295" height="478.039" filterUnits="userSpaceOnUse" color-interpolation-filters="sRGB">
<feFlood flood-opacity="0" result="BackgroundImageFix"/>
<feBlend mode="normal" in="SourceGraphic" in2="BackgroundImageFix" result="shape"/>
<feGaussianBlur stdDeviation="78.5" result="effect1_foregroundBlur_5181_5822"/>
</filter>
<filter id="filter1_d_5181_5822" x="347.333" y="7.6569" width="182.125" height="176.533" filterUnits="userSpaceOnUse" color-interpolation-filters="sRGB">
<feFlood flood-opacity="0" result="BackgroundImageFix"/>
<feColorMatrix in="SourceAlpha" type="matrix" values="0 0 0 0 0 0 0 0 0 0 0 0 0 0 0 0 0 0 127 0" result="hardAlpha"/>
<feOffset dx="16.3333" dy="18.6667"/>
<feGaussianBlur stdDeviation="17.5"/>
<feComposite in2="hardAlpha" operator="out"/>
<feColorMatrix type="matrix" values="0 0 0 0 0.176471 0 0 0 0 0.980392 0 0 0 0 0.835686 0 0 0 0.44 0"/>
<feBlend mode="normal" in2="BackgroundImageFix" result="effect1_dropShadow_5181_5822"/>
<feBlend mode="normal" in="SourceGraphic" in2="effect1_dropShadow_5181_5822" result="shape"/>
</filter>
<linearGradient id="paint0_linear_5181_5822" x1="77.4163" y1="151.988" x2="49.4163" y2="179.156" gradientUnits="userSpaceOnUse">
<stop stop-color="#31E566"/>
<stop offset="1" stop-color="#00C6FE"/>
</linearGradient>
<linearGradient id="paint1_linear_5181_5822" x1="63" y1="167.155" x2="88.2" y2="192.355" gradientUnits="userSpaceOnUse">
<stop stop-color="#65FF90"/>
<stop offset="1" stop-color="#5FFF95" stop-opacity="0"/>
</linearGradient>
<linearGradient id="paint2_linear_5181_5822" x1="326.041" y1="74.9902" x2="256.041" y2="142.909" gradientUnits="userSpaceOnUse">
<stop stop-color="#31E566"/>
<stop offset="1" stop-color="#00C6FE"/>
</linearGradient>
<linearGradient id="paint3_linear_5181_5822" x1="290" y1="112.907" x2="353" y2="175.907" gradientUnits="userSpaceOnUse">
<stop stop-color="#65FF90"/>
<stop offset="1" stop-color="#5FFF95" stop-opacity="0"/>
</linearGradient>
<linearGradient id="paint4_linear_5181_5822" x1="276.48" y1="-28.0098" x2="228.496" y2="18.1071" gradientUnits="userSpaceOnUse">
<stop stop-color="#31E566"/>
<stop offset="1" stop-color="#00C6FE"/>
</linearGradient>
<linearGradient id="paint5_linear_5181_5822" x1="252" y1="-2.00977" x2="295.198" y2="40.7797" gradientUnits="userSpaceOnUse">
<stop stop-color="#65FF90"/>
<stop offset="1" stop-color="#5FFF95" stop-opacity="0"/>
</linearGradient>
</defs>
</svg>
