<svg width="30" height="30" viewBox="0 0 30 30" fill="none" xmlns="http://www.w3.org/2000/svg">
<g clip-path="url(#clip0_5256_5509)">
<path d="M15.0443 29.0456C23.0553 29.0456 29.5495 22.5514 29.5495 14.5404C29.5495 6.52936 23.0553 0.0351562 15.0443 0.0351562C7.03327 0.0351562 0.539062 6.52936 0.539062 14.5404C0.539062 22.5514 7.03327 29.0456 15.0443 29.0456Z" fill="#039BE5"/>
<path d="M7.17375 14.2239L21.1592 8.83162C21.8083 8.59712 22.3752 8.98997 22.1649 9.97149L22.1661 9.97028L19.7848 21.1889C19.6083 21.9842 19.1357 22.1776 18.4745 21.8029L14.8482 19.1303L13.0991 20.8153C12.9057 21.0087 12.7425 21.1719 12.3678 21.1719L12.6253 17.4816L19.346 11.4099C19.6386 11.1525 19.2808 11.0074 18.8952 11.2637L10.5897 16.4928L7.00935 15.3759C6.23212 15.1293 6.21519 14.5987 7.17375 14.2239Z" fill="white"/>
</g>
<defs>
<clipPath id="clip0_5256_5509">
<rect width="29.0104" height="29.0104" fill="white" transform="translate(0.539062 0.0351562)"/>
</clipPath>
</defs>
</svg>
