<svg width="40" height="39" viewBox="0 0 40 39" fill="none" xmlns="http://www.w3.org/2000/svg">
<g filter="url(#filter0_d_5256_5505)">
<path d="M19.7357 29.0456C27.7467 29.0456 34.2409 22.5514 34.2409 14.5404C34.2409 6.52936 27.7467 0.0351562 19.7357 0.0351562C11.7247 0.0351562 5.23047 6.52936 5.23047 14.5404C5.23047 22.5514 11.7247 29.0456 19.7357 29.0456Z" fill="#55ACEE"/>
<path d="M28.6203 10.4599C27.9987 10.7355 27.33 10.9219 26.6288 11.0052C27.3447 10.5762 27.8942 9.89748 28.1535 9.08738C27.4836 9.4848 26.7412 9.77311 25.9518 9.92851C25.3194 9.25494 24.4183 8.83398 23.4204 8.83398C21.506 8.83398 19.9533 10.3867 19.9533 12.3011C19.9533 12.5729 19.9841 12.8374 20.0435 13.0913C17.162 12.9468 14.6071 11.5665 12.8969 9.46825C12.5985 9.98022 12.4274 10.5762 12.4274 11.2115C12.4274 12.4141 13.0399 13.4758 13.9697 14.0974C13.4017 14.0796 12.8667 13.9237 12.3994 13.6633C12.3992 13.678 12.3992 13.6928 12.3992 13.7072C12.3992 15.3872 13.5948 16.7883 15.1806 17.1066C14.89 17.1863 14.5831 17.2284 14.2673 17.2284C14.0434 17.2284 13.8265 17.207 13.615 17.1666C14.0561 18.5438 15.3363 19.5462 16.8538 19.5744C15.667 20.5045 14.1722 21.0586 12.5473 21.0586C12.2681 21.0586 11.9914 21.0423 11.7207 21.01C13.2543 21.9941 15.0772 22.5679 17.0351 22.5679C23.4124 22.5679 26.9 17.2848 26.9 12.7027C26.9 12.5525 26.8966 12.4028 26.8899 12.2543C27.5679 11.7656 28.1556 11.1552 28.6203 10.4599Z" fill="white"/>
</g>
<defs>
<filter id="filter0_d_5256_5505" x="0.395398" y="0.0351562" width="38.6799" height="38.6799" filterUnits="userSpaceOnUse" color-interpolation-filters="sRGB">
<feFlood flood-opacity="0" result="BackgroundImageFix"/>
<feColorMatrix in="SourceAlpha" type="matrix" values="0 0 0 0 0 0 0 0 0 0 0 0 0 0 0 0 0 0 127 0" result="hardAlpha"/>
<feOffset dy="4.83507"/>
<feGaussianBlur stdDeviation="2.41754"/>
<feComposite in2="hardAlpha" operator="out"/>
<feColorMatrix type="matrix" values="0 0 0 0 0 0 0 0 0 0 0 0 0 0 0 0 0 0 0.25 0"/>
<feBlend mode="normal" in2="BackgroundImageFix" result="effect1_dropShadow_5256_5505"/>
<feBlend mode="normal" in="SourceGraphic" in2="effect1_dropShadow_5256_5505" result="shape"/>
</filter>
</defs>
</svg>
