<svg width="124" height="94" viewBox="0 0 124 94" fill="none" xmlns="http://www.w3.org/2000/svg">
<path d="M43.6763 59.2167V23.4259C43.6763 18.5047 47.6581 14.4782 52.624 14.4782H92.8887V10.0043C92.8887 5.08311 88.8622 1.05664 83.941 1.05664H21.3071C16.3411 1.05664 12.3594 5.08311 12.3594 10.0043V72.6382C12.3594 77.5595 16.3411 81.5859 21.3071 81.5859H83.941C88.8622 81.5859 92.8887 77.5595 92.8887 72.6382V68.1644H52.624C47.6581 68.1644 43.6763 64.1379 43.6763 59.2167ZM57.0979 23.4259C54.6373 23.4259 52.624 25.4391 52.624 27.8997V54.7428C52.624 57.2035 54.6373 59.2167 57.0979 59.2167H97.3625V23.4259H57.0979ZM70.5194 48.0321C66.8061 48.0321 63.8086 45.0346 63.8086 41.3213C63.8086 37.608 66.8061 34.6105 70.5194 34.6105C74.2327 34.6105 77.2302 37.608 77.2302 41.3213C77.2302 45.0346 74.2327 48.0321 70.5194 48.0321Z" fill="url(#paint0_linear_5763_3279)" fill-opacity="0.21"/>
<path d="M123.85 70.1766L118.497 64.0561L119.243 55.9613L111.324 54.1625L107.177 47.1426L99.7187 50.3454L92.2601 47.1426L88.114 54.1405L80.1947 55.9174L80.9406 64.0342L75.5879 70.1766L80.9406 76.297L80.1947 84.4138L88.114 86.2126L92.2601 93.2106L99.7187 89.9858L107.177 93.1886L111.324 86.1907L119.243 84.3918L118.497 76.297L123.85 70.1766ZM93.9712 78.9734L88.7502 73.7085C87.8946 72.8529 87.8946 71.4709 88.7502 70.6153L88.9037 70.4618C89.7593 69.6062 91.1633 69.6062 92.0188 70.4618L95.5507 74.0156L106.848 62.696C107.704 61.8405 109.108 61.8405 109.963 62.696L110.117 62.8496C110.973 63.7051 110.973 65.0872 110.117 65.9427L97.1302 78.9734C96.2307 79.8289 94.8487 79.8289 93.9712 78.9734Z" fill="#2DFF82"/>
<defs>
<linearGradient id="paint0_linear_5763_3279" x1="54.8609" y1="1.05664" x2="54.8609" y2="81.5859" gradientUnits="userSpaceOnUse">
<stop stop-color="white" stop-opacity="0.36"/>
<stop offset="0.526042" stop-color="white" stop-opacity="0.61"/>
</linearGradient>
</defs>
</svg>
