<svg width="37" height="38" viewBox="0 0 37 38" fill="none" xmlns="http://www.w3.org/2000/svg">
<path d="M36.4463 23.4461C33.9751 33.3568 23.936 39.3883 14.023 36.9168C4.11406 34.446 -1.91816 24.4075 0.554169 14.4974C3.02418 4.58552 13.0632 -1.44657 22.9734 1.02431C32.8858 3.49519 38.9174 13.5348 36.4463 23.4461Z" fill="url(#paint0_linear_5178_2650)"/>
<path d="M36.4463 23.4461C33.9751 33.3568 23.936 39.3883 14.023 36.9168C4.11406 34.446 -1.91816 24.4075 0.554169 14.4974C3.02418 4.58552 13.0632 -1.44657 22.9734 1.02431C32.8858 3.49519 38.9174 13.5348 36.4463 23.4461Z" fill="#07D2DF"/>
<path d="M36.4463 23.4461C33.9751 33.3568 23.936 39.3883 14.023 36.9168C4.11406 34.446 -1.91816 24.4075 0.554169 14.4974C3.02418 4.58552 13.0632 -1.44657 22.9734 1.02431C32.8858 3.49519 38.9174 13.5348 36.4463 23.4461Z" fill="url(#paint1_linear_5178_2650)"/>
<mask id="mask0_5178_2650" style="mask-type:alpha" maskUnits="userSpaceOnUse" x="6" y="7" width="26" height="20">
<path fill-rule="evenodd" clip-rule="evenodd" d="M6.5293 7.17188H31.2234V26.4345H6.5293V7.17188Z" fill="white"/>
</mask>
<g mask="url(#mask0_5178_2650)">
<path fill-rule="evenodd" clip-rule="evenodd" d="M28.3632 11.1057C28.2264 10.9734 28.0865 10.8458 27.9456 10.7193C26.7082 9.61158 25.298 8.72719 23.7661 8.11751C22.2348 7.50818 20.5829 7.17188 18.8582 7.17188C15.2368 7.17188 11.9293 8.63685 9.40507 11.0532C8.82365 11.6098 8.28368 12.2167 7.79124 12.868C7.3261 13.4835 6.90545 14.1398 6.5293 14.8287L10.0883 18.0327C10.4179 17.3086 10.818 16.6303 11.2821 16.0105C11.7742 15.3538 12.3385 14.7647 12.958 14.2515C14.6055 12.8856 16.6582 12.0719 18.8868 12.0719C19.0426 12.0719 19.1952 12.0855 19.3493 12.0932C21.2122 12.1883 22.9372 12.8477 24.3873 13.9223C24.5413 14.0366 24.696 14.15 24.844 14.2731L13.3655 24.6051C14.8159 25.6796 16.5406 26.3394 18.4038 26.4345L27.7005 18.0658L31.2235 14.8946C30.8385 14.1814 30.4054 13.5031 29.9251 12.868C29.4475 12.2367 28.9244 11.648 28.3632 11.1057Z" fill="white"/>
</g>
<mask id="mask1_5178_2650" style="mask-type:alpha" maskUnits="userSpaceOnUse" x="6" y="11" width="26" height="20">
<path fill-rule="evenodd" clip-rule="evenodd" d="M6.5293 11.373H31.2234V30.6356H6.5293V11.373Z" fill="white"/>
</mask>
<g mask="url(#mask1_5178_2650)">
<path fill-rule="evenodd" clip-rule="evenodd" d="M24.7948 23.556C23.1472 24.9219 21.0946 25.7352 18.8659 25.7352C17.3107 25.7352 15.8445 25.3319 14.5381 24.6285C14.3018 24.5 14.1262 24.3964 13.9533 24.2868C13.9294 24.2716 13.9058 24.256 13.8819 24.2408C13.7063 24.1275 13.534 24.0101 13.3658 23.8852C13.2115 23.7709 13.0567 23.6575 12.9091 23.5344L24.3873 13.2024C22.9372 12.1279 21.2122 11.4681 19.3493 11.373L10.0522 19.7417L6.5293 22.9129C6.91422 23.6261 7.34767 24.3044 7.82764 24.9395C8.30525 25.5708 8.8287 26.1595 9.3899 26.7022C11.9209 29.1487 15.2483 30.6356 18.8946 30.6356C22.5159 30.6356 25.8238 29.1706 28.3477 26.7543C28.9291 26.1977 29.4691 25.5908 29.9615 24.9395C30.427 24.324 30.8476 23.6677 31.2235 22.9788L27.6645 19.7748C27.3352 20.4989 26.9347 21.1772 26.4706 21.797C25.9785 22.4537 25.4146 23.0428 24.7948 23.556Z" fill="white"/>
</g>
<defs>
<linearGradient id="paint0_linear_5178_2650" x1="19.0501" y1="-18.0293" x2="-17.9499" y2="17.8704" gradientUnits="userSpaceOnUse">
<stop stop-color="#31E566"/>
<stop offset="1" stop-color="#00C6FE"/>
</linearGradient>
<linearGradient id="paint1_linear_5178_2650" x1="-4.21777e-06" y1="2.01237" x2="33.3" y2="35.3124" gradientUnits="userSpaceOnUse">
<stop stop-color="#65FF90"/>
<stop offset="1" stop-color="#5FFF95" stop-opacity="0"/>
</linearGradient>
</defs>
</svg>
