<svg width="142" height="109" viewBox="0 0 142 109" fill="none" xmlns="http://www.w3.org/2000/svg">
<path d="M100.973 71.112C94.4357 97.3284 67.8797 113.283 41.6572 106.746C15.4453 100.21 -0.511539 73.6552 6.02843 47.4402C12.5623 21.2207 39.1183 5.26423 65.3332 11.8004C91.5542 18.3365 107.51 44.894 100.973 71.112Z" fill="url(#paint0_linear_5763_3277)" fill-opacity="0.2"/>
<mask id="mask0_5763_3277" style="mask-type:alpha" maskUnits="userSpaceOnUse" x="21" y="28" width="67" height="52">
<path fill-rule="evenodd" clip-rule="evenodd" d="M21.832 28.0762H87.1546V79.0308H21.832V28.0762Z" fill="white"/>
</mask>
<g mask="url(#mask0_5763_3277)">
<path fill-rule="evenodd" clip-rule="evenodd" d="M79.5885 38.4821C79.2265 38.1321 78.8565 37.7947 78.4838 37.46C75.2107 34.5299 71.4803 32.1904 67.4279 30.5776C63.3773 28.9658 59.0076 28.0762 54.4452 28.0762C44.8658 28.0762 36.1165 31.9514 29.4392 38.3434C27.9012 39.8156 26.4728 41.4212 25.1702 43.144C23.9398 44.772 22.8271 46.5082 21.832 48.3304L31.2465 56.8059C32.1185 54.8906 33.1768 53.0962 34.4046 51.4566C35.7063 49.7194 37.1989 48.1613 38.8376 46.8036C43.1958 43.1906 48.6257 41.0381 54.521 41.0381C54.9329 41.0381 55.3368 41.0739 55.7443 41.0945C60.6722 41.346 65.2354 43.0903 69.0711 45.9328C69.4786 46.2353 69.8878 46.5351 70.2793 46.8609L39.9156 74.1917C43.7522 77.0342 48.3145 78.7794 53.2433 79.0308L77.8356 56.8936L87.1547 48.5049C86.1365 46.6183 84.9908 44.8239 83.7202 43.144C82.4568 41.474 81.0731 39.9167 79.5885 38.4821Z" fill="#191C29"/>
</g>
<mask id="mask1_5763_3277" style="mask-type:alpha" maskUnits="userSpaceOnUse" x="21" y="39" width="67" height="52">
<path fill-rule="evenodd" clip-rule="evenodd" d="M21.832 39.1875H87.1546V90.1422H21.832V39.1875Z" fill="white"/>
</mask>
<g mask="url(#mask1_5763_3277)">
<path fill-rule="evenodd" clip-rule="evenodd" d="M70.1491 71.4148C65.7909 75.0278 60.361 77.1793 54.4657 77.1793C50.3519 77.1793 46.4734 76.1125 43.0175 74.2518C42.3925 73.9118 41.928 73.6379 41.4706 73.3479C41.4073 73.3076 41.3448 73.2665 41.2815 73.2262C40.817 72.9264 40.3614 72.6158 39.9165 72.2856C39.5081 71.9831 39.0989 71.6833 38.7084 71.3575L69.0711 44.0266C65.2354 41.1842 60.6722 39.439 55.7443 39.1875L31.1511 61.3248L21.832 69.7134C22.8502 71.6 23.9969 73.3945 25.2665 75.0743C26.5299 76.7444 27.9146 78.3016 29.3991 79.7372C36.0942 86.2088 44.8961 90.1422 54.5415 90.1422C64.1209 90.1422 72.8712 86.2669 79.5475 79.875C81.0855 78.4028 82.5139 76.7972 83.8165 75.0743C85.0478 73.4464 86.1606 71.7101 87.1547 69.8879L77.7402 61.4125C76.8691 63.3277 75.8099 65.1222 74.5822 66.7618C73.2804 68.4989 71.7888 70.0571 70.1491 71.4148Z" fill="#191C29"/>
</g>
<path d="M42.6885 33.2773C39.8166 44.7951 28.1496 51.8047 16.6291 48.9325C5.11324 46.0609 -1.89718 34.3946 0.976066 22.8774C3.84662 11.3583 15.5136 4.34799 27.0308 7.21955C38.5506 10.0911 45.5604 21.7588 42.6885 33.2773Z" fill="#26E288" fill-opacity="0.99"/>
<mask id="mask2_5763_3277" style="mask-type:alpha" maskUnits="userSpaceOnUse" x="7" y="14" width="30" height="23">
<path fill-rule="evenodd" clip-rule="evenodd" d="M7.91992 14.3691H36.6185V36.7554H7.91992V14.3691Z" fill="white"/>
</mask>
<g mask="url(#mask2_5763_3277)">
<path fill-rule="evenodd" clip-rule="evenodd" d="M33.2944 18.9408C33.1354 18.7871 32.9728 18.6389 32.8091 18.4918C31.3711 17.2045 29.7322 16.1767 27.9518 15.4681C26.1723 14.76 24.2525 14.3691 22.2481 14.3691C18.0395 14.3691 14.1956 16.0717 11.262 18.8799C10.5863 19.5267 9.9588 20.2321 9.3865 20.989C8.84594 21.7042 8.35708 22.467 7.91992 23.2676L12.056 26.9911C12.4391 26.1497 12.9041 25.3613 13.4435 24.641C14.0154 23.8778 14.6711 23.1933 15.3911 22.5968C17.3058 21.0094 19.6914 20.0638 22.2814 20.0638C22.4623 20.0638 22.6398 20.0795 22.8188 20.0886C24.9838 20.1991 26.9886 20.9654 28.6738 22.2142C28.8528 22.3471 29.0326 22.4788 29.2045 22.6219L15.8647 34.6294C17.5502 35.8782 19.5546 36.6449 21.72 36.7554L32.5243 27.0297L36.6185 23.3442C36.1712 22.5154 35.6678 21.727 35.1096 20.989C34.5546 20.2553 33.9466 19.5711 33.2944 18.9408Z" fill="#191C29"/>
</g>
<mask id="mask3_5763_3277" style="mask-type:alpha" maskUnits="userSpaceOnUse" x="7" y="19" width="30" height="23">
<path fill-rule="evenodd" clip-rule="evenodd" d="M7.91992 19.252H36.6185V41.6382H7.91992V19.252Z" fill="white"/>
</mask>
<g mask="url(#mask3_5763_3277)">
<path fill-rule="evenodd" clip-rule="evenodd" d="M29.1474 33.4106C27.2327 34.9979 24.8471 35.9431 22.2571 35.9431C20.4497 35.9431 18.7458 35.4744 17.2275 34.657C16.9529 34.5076 16.7488 34.3873 16.5478 34.2599C16.52 34.2422 16.4926 34.2241 16.4648 34.2064C16.2607 34.0747 16.0605 33.9382 15.8651 33.7931C15.6857 33.6602 15.5059 33.5285 15.3343 33.3854L28.6738 21.378C26.9886 20.1292 24.9838 19.3624 22.8188 19.252L12.0141 28.9777L7.91992 32.6631C8.36726 33.4919 8.87101 34.2803 9.42881 35.0183C9.98387 35.752 10.5922 36.4362 11.2444 37.0669C14.1858 39.9101 18.0528 41.6382 22.2904 41.6382C26.499 41.6382 30.3433 39.9356 33.2764 37.1274C33.9521 36.4806 34.5797 35.7752 35.152 35.0183C35.6929 34.3031 36.1818 33.5403 36.6185 32.7398L32.4824 29.0162C32.0997 29.8576 31.6344 30.646 31.095 31.3663C30.5231 32.1295 29.8677 32.8141 29.1474 33.4106Z" fill="#191C29"/>
</g>
<path d="M131.356 80.2871C128.485 91.8049 116.818 98.8145 105.297 95.9423C93.7812 93.0707 86.7708 81.4044 89.644 69.8872C92.5146 58.368 104.182 51.3578 115.699 54.2293C127.219 57.1009 134.228 68.7685 131.356 80.2871Z" fill="#26E288" fill-opacity="0.99"/>
<mask id="mask4_5763_3277" style="mask-type:alpha" maskUnits="userSpaceOnUse" x="96" y="61" width="30" height="23">
<path fill-rule="evenodd" clip-rule="evenodd" d="M96.5879 61.3789H125.286V83.7651H96.5879V61.3789Z" fill="white"/>
</mask>
<g mask="url(#mask4_5763_3277)">
<path fill-rule="evenodd" clip-rule="evenodd" d="M121.962 65.9506C121.803 65.7969 121.641 65.6486 121.477 65.5016C120.039 64.2142 118.4 63.1864 116.62 62.4779C114.84 61.7697 112.92 61.3789 110.916 61.3789C106.707 61.3789 102.864 63.0814 99.93 65.8897C99.2543 66.5365 98.6268 67.2419 98.0545 67.9988C97.5139 68.714 97.025 69.4768 96.5879 70.2773L100.724 74.0009C101.107 73.1595 101.572 72.3711 102.111 71.6508C102.683 70.8876 103.339 70.203 104.059 69.6065C105.974 68.0192 108.359 67.0736 110.949 67.0736C111.13 67.0736 111.308 67.0893 111.487 67.0983C113.652 67.2088 115.657 67.9752 117.342 69.224C117.521 69.3569 117.701 69.4886 117.873 69.6317L104.533 81.6391C106.218 82.8879 108.223 83.6547 110.388 83.7651L121.192 74.0394L125.287 70.354C124.839 69.5251 124.336 68.7368 123.778 67.9988C123.223 67.2651 122.615 66.5809 121.962 65.9506Z" fill="#191C29"/>
</g>
<mask id="mask5_5763_3277" style="mask-type:alpha" maskUnits="userSpaceOnUse" x="96" y="66" width="30" height="23">
<path fill-rule="evenodd" clip-rule="evenodd" d="M96.5879 66.2617H125.286V88.648H96.5879V66.2617Z" fill="white"/>
</mask>
<g mask="url(#mask5_5763_3277)">
<path fill-rule="evenodd" clip-rule="evenodd" d="M117.815 80.4203C115.901 82.0077 113.515 82.9529 110.925 82.9529C109.118 82.9529 107.414 82.4842 105.895 81.6668C105.621 81.5173 105.417 81.397 105.216 81.2696C105.188 81.2519 105.161 81.2338 105.133 81.2162C104.929 81.0844 104.729 80.948 104.533 80.8029C104.354 80.67 104.174 80.5383 104.002 80.3952L117.342 68.3877C115.657 67.1389 113.652 66.3722 111.487 66.2617L100.682 75.9874L96.5879 79.6729C97.0352 80.5017 97.539 81.2901 98.0968 82.0281C98.6518 82.7618 99.2602 83.446 99.9124 84.0767C102.854 86.9199 106.721 88.648 110.958 88.648C115.167 88.648 119.011 86.9454 121.944 84.1372C122.62 83.4904 123.248 82.785 123.82 82.0281C124.361 81.3129 124.85 80.5501 125.287 79.7495L121.15 76.026C120.768 76.8674 120.302 77.6558 119.763 78.3761C119.191 79.1393 118.536 79.8238 117.815 80.4203Z" fill="#191C29"/>
</g>
<path d="M137.7 16.2466C138.652 23.5869 133.472 30.31 126.13 31.2624C118.791 32.2142 112.067 27.0351 111.116 19.6949C110.163 12.3541 115.343 5.63062 122.683 4.67856C130.024 3.72588 136.747 8.90586 137.7 16.2466Z" fill="#26E288" fill-opacity="0.99"/>
<mask id="mask6_5763_3277" style="mask-type:alpha" maskUnits="userSpaceOnUse" x="113" y="6" width="22" height="21">
<path fill-rule="evenodd" clip-rule="evenodd" d="M113.215 13.1758L129.877 6.64904L134.968 19.6463L118.306 26.1731L113.215 13.1758Z" fill="white"/>
</mask>
<g mask="url(#mask6_5763_3277)">
<path fill-rule="evenodd" clip-rule="evenodd" d="M128.987 10.0593C128.86 10.0062 128.731 9.95712 128.603 9.90897C127.475 9.4886 126.29 9.26459 125.095 9.25811C123.901 9.25168 122.697 9.46137 121.534 9.91722C119.09 10.8743 117.246 12.737 116.181 15.0346C115.936 15.5638 115.732 16.1161 115.572 16.6857C115.421 17.2239 115.31 17.7779 115.239 18.3421L118.487 19.5634C118.518 18.9877 118.609 18.4243 118.758 17.8834C118.916 17.3102 119.141 16.7636 119.424 16.2536C120.174 14.8965 121.344 13.805 122.848 13.2159C122.953 13.1748 123.06 13.1435 123.166 13.1081C124.448 12.6799 125.786 12.6688 127.049 13.0106C127.183 13.0471 127.317 13.0827 127.449 13.1267L122.435 23.1319C123.698 23.4736 125.036 23.4629 126.318 23.0346L130.379 14.9308L131.918 11.8599C131.47 11.4804 130.998 11.1372 130.507 10.8356C130.017 10.5359 129.509 10.2769 128.987 10.0593Z" fill="#191C29"/>
</g>
<mask id="mask7_5763_3277" style="mask-type:alpha" maskUnits="userSpaceOnUse" x="114" y="9" width="23" height="21">
<path fill-rule="evenodd" clip-rule="evenodd" d="M114.326 16.0098L130.988 9.48303L136.08 22.4803L119.417 29.0071L114.326 16.0098Z" fill="white"/>
</mask>
<g mask="url(#mask7_5763_3277)">
<path fill-rule="evenodd" clip-rule="evenodd" d="M129.871 19.4025C129.12 20.7596 127.95 21.8509 126.446 22.4399C125.397 22.851 124.301 22.9664 123.234 22.8371C123.04 22.8128 122.894 22.7893 122.749 22.7611C122.728 22.7571 122.708 22.7528 122.688 22.7489C122.54 22.7188 122.393 22.6851 122.246 22.6454C122.112 22.609 121.977 22.5734 121.845 22.5293L126.859 12.5242C125.597 12.1824 124.258 12.1932 122.976 12.6214L118.915 20.7253L117.376 23.7962C117.824 24.1757 118.296 24.5188 118.788 24.8205C119.277 25.1202 119.786 25.3791 120.308 25.5969C122.662 26.5787 125.3 26.7026 127.761 25.7389C130.204 24.7817 132.049 22.919 133.113 20.6215C133.359 20.0923 133.562 19.54 133.723 18.9704C133.874 18.4321 133.984 17.8781 134.056 17.3139L130.808 16.0927C130.777 16.6683 130.686 17.2318 130.537 17.7727C130.378 18.3459 130.153 18.8924 129.871 19.4025Z" fill="#191C29"/>
</g>
<defs>
<linearGradient id="paint0_linear_5763_3277" x1="53.5" y1="10.3359" x2="53.5" y2="108.211" gradientUnits="userSpaceOnUse">
<stop stop-color="white"/>
<stop offset="0.53125" stop-color="white" stop-opacity="0.52"/>
<stop offset="1" stop-color="white"/>
</linearGradient>
</defs>
</svg>
