<svg width="131" height="150" viewBox="0 0 131 150" fill="none" xmlns="http://www.w3.org/2000/svg">
<path d="M27.4562 117.58L0 101.575V35.4707L27.4562 51.4284V117.58Z" fill="#3F474F"/>
<path d="M27.457 117.579L93.6082 81.4656V15.3145L27.457 51.4273V117.579Z" fill="black"/>
<path d="M0 35.4704L66.104 0L93.6073 15.3139L27.4562 51.4268L0 35.4704Z" fill="url(#paint0_linear_4406_6175)"/>
<g filter="url(#filter0_d_4406_6175)">
<path d="M35.7759 118.087L29.7559 114.462V53.2041L35.7759 56.7862V118.087Z" fill="#30FF6D"/>
<path d="M35.7754 118.087L97.0766 84.6215V23.3203L35.7754 56.7855V118.087Z" fill="#30FF6D"/>
<path d="M29.7578 53.2019L90.2682 20.332L97.0791 23.3175L35.7779 56.7827L29.7578 53.2019Z" fill="#30FF6D"/>
</g>
<g filter="url(#filter1_d_4406_6175)">
<path d="M38.9121 118.646L95.7946 88.124L119.461 101.302L62.5382 132.377L38.9121 118.646Z" fill="url(#paint1_linear_4406_6175)"/>
</g>
<path d="M62.1202 136.926L34.6641 120.921V54.8174L62.1202 70.775V136.926Z" fill="#3F474F"/>
<path d="M62.1211 136.927L128.272 100.814V34.6631L62.1211 70.776V136.927Z" fill="#2E3337"/>
<path d="M34.6641 54.8181L100.768 19.3477L128.271 34.6615L62.1202 70.7744L34.6641 54.8181Z" fill="url(#paint2_linear_4406_6175)"/>
<defs>
<filter id="filter0_d_4406_6175" x="23.9129" y="14.0996" width="74.3338" height="104.766" filterUnits="userSpaceOnUse" color-interpolation-filters="sRGB">
<feFlood flood-opacity="0" result="BackgroundImageFix"/>
<feColorMatrix in="SourceAlpha" type="matrix" values="0 0 0 0 0 0 0 0 0 0 0 0 0 0 0 0 0 0 127 0" result="hardAlpha"/>
<feOffset dx="-2.33717" dy="-2.72669"/>
<feGaussianBlur stdDeviation="1.75287"/>
<feColorMatrix type="matrix" values="0 0 0 0 0.6 0 0 0 0 1 0 0 0 0 0.717874 0 0 0 1 0"/>
<feBlend mode="normal" in2="BackgroundImageFix" result="effect1_dropShadow_4406_6175"/>
<feBlend mode="normal" in="SourceGraphic" in2="effect1_dropShadow_4406_6175" result="shape"/>
</filter>
<filter id="filter1_d_4406_6175" x="38.0606" y="88.124" width="92.7565" height="61.8463" filterUnits="userSpaceOnUse" color-interpolation-filters="sRGB">
<feFlood flood-opacity="0" result="BackgroundImageFix"/>
<feColorMatrix in="SourceAlpha" type="matrix" values="0 0 0 0 0 0 0 0 0 0 0 0 0 0 0 0 0 0 127 0" result="hardAlpha"/>
<feOffset dx="5.25235" dy="11.4895"/>
<feGaussianBlur stdDeviation="3.05192"/>
<feColorMatrix type="matrix" values="0 0 0 0 0.251981 0 0 0 0 0.249045 0 0 0 0 0.395833 0 0 0 0.25 0"/>
<feBlend mode="normal" in2="BackgroundImageFix" result="effect1_dropShadow_4406_6175"/>
<feBlend mode="normal" in="SourceGraphic" in2="effect1_dropShadow_4406_6175" result="shape"/>
</filter>
<linearGradient id="paint0_linear_4406_6175" x1="6.44917" y1="37.0827" x2="94.3191" y2="13.7045" gradientUnits="userSpaceOnUse">
<stop offset="0.0915808" stop-color="#4E5862"/>
<stop offset="0.25023" stop-color="#4E5862" stop-opacity="0.72"/>
<stop offset="0.401983" stop-color="#4E5862"/>
<stop offset="0.763352" stop-color="#4E5862" stop-opacity="0.58"/>
<stop offset="1" stop-color="#4E5862"/>
</linearGradient>
<linearGradient id="paint1_linear_4406_6175" x1="20.8762" y1="128.358" x2="97.8757" y2="104.079" gradientUnits="userSpaceOnUse">
<stop offset="0.0915808" stop-color="#4E5862"/>
<stop offset="0.25023" stop-color="#4E5862" stop-opacity="0.72"/>
<stop offset="0.401983" stop-color="#4E5862"/>
<stop offset="0.763352" stop-color="#4E5862" stop-opacity="0.58"/>
<stop offset="1" stop-color="#4E5862"/>
</linearGradient>
<linearGradient id="paint2_linear_4406_6175" x1="13.7043" y1="66.1041" x2="103.186" y2="37.889" gradientUnits="userSpaceOnUse">
<stop offset="0.0915808" stop-color="#4E5862"/>
<stop offset="0.25023" stop-color="#4E5862" stop-opacity="0.72"/>
<stop offset="0.401983" stop-color="#4E5862"/>
<stop offset="0.763352" stop-color="#4E5862" stop-opacity="0.58"/>
<stop offset="1" stop-color="#4E5862"/>
</linearGradient>
</defs>
</svg>
