<svg width="18" height="18" viewBox="0 0 18 18" fill="none" xmlns="http://www.w3.org/2000/svg">
<circle cx="8.99997" cy="8.99997" r="8.99997" fill="#12161C"/>
<path d="M12.6 3.89941C12.1029 3.89941 11.7 4.30236 11.7 4.79941V10.9221C11.7 11.5338 11.3585 12.0987 10.8 12.3482V6.59941C10.8 6.10235 10.397 5.69941 9.89998 5.69941H8.69998C8.20292 5.69941 7.79998 6.10235 7.79998 6.59941V12.4859C7.79998 13.0323 7.4337 13.5142 6.89998 13.6311V8.6994C6.89998 8.20235 6.49704 7.7994 5.99999 7.7994H4.79999C4.30294 7.7994 3.89999 8.20235 3.89999 8.6994V12.7042C3.89999 13.4642 3.31005 14.0994 2.55 14.0994C2.22057 14.0994 1.89297 14.0915 1.56738 14.076C3.18852 16.4449 5.91272 17.9994 8.99998 17.9994C13.9705 17.9994 18 13.97 18 8.99943C18 8.36881 17.9351 7.75335 17.8117 7.15934C16.8789 8.22799 15.8358 9.19778 14.7 10.0509V4.79941C14.7 4.30236 14.297 3.89941 13.8 3.89941H12.6Z" fill="white"/>
<path fill-rule="evenodd" clip-rule="evenodd" d="M17.9987 8.8584C14.3362 12.8869 9.23185 15.5811 3.50098 16.1256C5.02174 17.301 6.92913 18.0003 8.99985 18.0003C13.9704 18.0003 17.9998 13.9709 17.9998 9.00031C17.9998 8.95292 17.9995 8.90561 17.9987 8.8584Z" fill="#F1B73C"/>
</svg>
