<svg width="18" height="18" viewBox="0 0 18 18" fill="none" xmlns="http://www.w3.org/2000/svg">
<path fill-rule="evenodd" clip-rule="evenodd" d="M8.97248 0C4.01835 0 0 4.13039 0 9.22266C0 13.2965 2.58715 16.7479 6.11009 17.9927C6.55045 18.0493 6.7156 17.7664 6.7156 17.54C6.7156 17.3137 6.7156 16.7479 6.7156 15.9558C4.23853 16.5216 3.68807 14.711 3.68807 14.711C3.30275 13.636 2.69724 13.3531 2.69724 13.3531C1.87156 12.7873 2.75229 12.7873 2.75229 12.7873C3.63303 12.8438 4.12844 13.7491 4.12844 13.7491C4.95413 15.1636 6.22018 14.7676 6.7156 14.5413C6.77064 13.9189 7.04587 13.5228 7.26605 13.2965C5.2844 13.0702 3.19266 12.278 3.19266 8.71344C3.19266 7.69498 3.52294 6.90285 4.12844 6.22388C4.01835 5.99756 3.74312 5.03569 4.23853 3.79091C4.23853 3.79091 5.00917 3.56459 6.7156 4.75279C7.43119 4.52646 8.20184 4.46988 8.97248 4.46988C9.74312 4.46988 10.5138 4.58304 11.2294 4.75279C12.9358 3.56459 13.7064 3.79091 13.7064 3.79091C14.2018 5.03569 13.8716 5.99756 13.8165 6.22388C14.367 6.84627 14.7523 7.69498 14.7523 8.71344C14.7523 12.278 12.6605 13.0136 10.6789 13.2399C11.0092 13.5228 11.2844 14.0886 11.2844 14.9373C11.2844 16.1821 11.2844 17.144 11.2844 17.4835C11.2844 17.7098 11.4495 17.9927 11.8899 17.9361C15.4679 16.6913 18 13.2399 18 9.16608C17.945 4.13039 13.9266 0 8.97248 0Z" fill="white"/>
</svg>
