<svg width="17" height="15" viewBox="0 0 17 15" fill="none" xmlns="http://www.w3.org/2000/svg"
     focusable="false" tabindex="-1" class="page-header__unlock-icon">
    <path d="M2.18 0C1.71 0 1.307.17.969.508.656.82.5 1.21.5 1.68v11.64c0 .47.156.873.469 1.211.338.313.742.469 1.21.469H13.82c.47 0 .86-.156 1.172-.469.339-.338.508-.742.508-1.21v-1.876c.26-.156.456-.351.586-.586.156-.26.234-.546.234-.859V5c0-.313-.078-.586-.234-.82a1.503 1.503 0 00-.586-.625V1.68c0-.47-.17-.86-.508-1.172A1.528 1.528 0 0013.82 0H2.18zm0 1.68h11.64v1.64h-5c-.442 0-.833.17-1.172.508-.312.313-.468.703-.468 1.172v5c0 .469.156.872.468 1.21.339.313.73.47 1.172.47h5v1.64H2.18V1.68zM8.82 5h5.86v5H8.82V5zm2.5 1.25c-.338 0-.638.13-.898.39-.235.235-.352.521-.352.86 0 .339.117.638.352.898.26.235.56.352.898.352.365 0 .664-.117.899-.352.234-.26.351-.56.351-.898a1.17 1.17 0 00-.351-.86 1.155 1.155 0 00-.899-.39z"
          fill="#fff"></path>
</svg>
