<svg width="38" height="38" viewBox="0 0 38 38" fill="none" xmlns="http://www.w3.org/2000/svg">
<rect width="38" height="38" rx="19" fill="white"/>
<path d="M11.3234 14.1356C15.5623 9.99388 22.4351 9.99388 26.674 14.1356L27.1842 14.634C27.3961 14.8411 27.3961 15.1768 27.1842 15.3839L25.439 17.0891C25.333 17.1926 25.1612 17.1926 25.0553 17.0891L24.3532 16.4031C21.396 13.5138 16.6014 13.5138 13.6442 16.4031L12.8923 17.1377C12.7864 17.2412 12.6146 17.2412 12.5086 17.1377L10.7634 15.4326C10.5514 15.2255 10.5514 14.8897 10.7634 14.6827L11.3234 14.1356ZM30.2832 17.6619L31.8364 19.1795C32.0484 19.3866 32.0484 19.7223 31.8364 19.9294L24.8329 26.7723C24.621 26.9794 24.2773 26.9794 24.0654 26.7723C24.0654 26.7723 24.0654 26.7723 24.0654 26.7723L19.0947 21.9157C19.0417 21.8639 18.9558 21.8639 18.9028 21.9157C18.9028 21.9157 18.9028 21.9157 18.9028 21.9157L13.9322 26.7723C13.7202 26.9794 13.3766 26.9794 13.1647 26.7723C13.1647 26.7723 13.1647 26.7723 13.1647 26.7723L6.16091 19.9293C5.94897 19.7222 5.94897 19.3865 6.16091 19.1794L7.71413 17.6618C7.92608 17.4548 8.26972 17.4548 8.48167 17.6618L13.4524 22.5185C13.5054 22.5703 13.5913 22.5703 13.6443 22.5185C13.6443 22.5185 13.6443 22.5185 13.6443 22.5185L18.6148 17.6618C18.8268 17.4548 19.1704 17.4548 19.3824 17.6618C19.3824 17.6618 19.3824 17.6618 19.3824 17.6618L24.3531 22.5185C24.4061 22.5703 24.492 22.5703 24.545 22.5185L29.5157 17.6619C29.7276 17.4549 30.0713 17.4549 30.2832 17.6619Z" fill="#3B99FC"/>
</svg>
