<svg width="32" height="32" viewBox="0 0 32 32" fill="none" xmlns="http://www.w3.org/2000/svg">
<g clip-path="url(#clip0_4601_2693)">
<path d="M15.5366 31.0156C24.1011 31.0156 31.0439 24.0728 31.0439 15.5083C31.0439 6.94384 24.1011 0.000976562 15.5366 0.000976562C6.97216 0.000976562 0.0292969 6.94384 0.0292969 15.5083C0.0292969 24.0728 6.97216 31.0156 15.5366 31.0156Z" fill="#444e76"/>
<path d="M7.12584 15.1713L22.0775 9.40649C22.7714 9.15579 23.3775 9.57578 23.1527 10.6251L23.1539 10.6238L20.6082 22.6174C20.4195 23.4678 19.9142 23.6745 19.2073 23.2739L15.3305 20.4167L13.4606 22.2181C13.2538 22.4249 13.0794 22.5994 12.6788 22.5994L12.954 18.654L20.1391 12.1629C20.4518 11.8877 20.0693 11.7326 19.657 12.0066L10.7778 17.5969L6.95009 16.4029C6.11916 16.1393 6.10107 15.5719 7.12584 15.1713Z" fill="#0E1017"/>
</g>
<defs>
<clipPath id="clip0_4601_2693">
<rect width="31.0146" height="31.0146" fill="white" transform="translate(0.0292969 0.000976562)"/>
</clipPath>
</defs>
</svg>
