<svg width="15" height="18" viewBox="0 0 15 18" fill="none" xmlns="http://www.w3.org/2000/svg">
<path d="M1.45537 16.875H8.36609C8.67145 16.8747 8.96421 16.756 9.18014 16.5451C9.39606 16.3342 9.51752 16.0483 9.51787 15.75V14.0625H8.36609V15.75H1.45537V2.25H8.36609V3.9375H9.51787V2.25C9.51752 1.95174 9.39606 1.66579 9.18014 1.45488C8.96421 1.24398 8.67145 1.12534 8.36609 1.125H1.45537C1.15001 1.12534 0.857252 1.24398 0.641326 1.45488C0.4254 1.66579 0.303939 1.95174 0.303589 2.25V15.75C0.303939 16.0483 0.4254 16.3342 0.641326 16.5451C0.857252 16.756 1.15001 16.8747 1.45537 16.875Z" fill="white" stroke="white" stroke-width="0.5"/>
<path d="M9.85531 11.5796L11.9205 9.5625H3.75891V8.4375H11.9205L9.85531 6.42037L10.6696 5.625L14.125 9L10.6696 12.375L9.85531 11.5796Z" fill="white" stroke="white" stroke-width="0.5"/>
</svg>
