<svg width="16" height="16" viewBox="0 0 16 16" fill="none" xmlns="http://www.w3.org/2000/svg">
<path d="M5.78125 4.72586H3.00813C3.69522 3.66991 4.70516 2.86427 5.8874 2.42904C7.06965 1.99381 8.36089 1.9523 9.56866 2.31068C10.7764 2.66907 11.836 3.40817 12.5895 4.4178C13.343 5.42744 13.7501 6.65355 13.75 7.91336H14.8125C14.814 6.49253 14.3772 5.10582 13.5617 3.94232C12.7462 2.77883 11.5916 1.89518 10.2555 1.41185C8.91943 0.928534 7.46677 0.86907 6.09563 1.24157C4.7245 1.61407 3.50162 2.40041 2.59375 3.49336V1.53836H1.53125V5.78836H5.78125V4.72586Z" fill="#36D777" stroke="#36D777" stroke-width="0.5"/>
<path d="M10.0313 11.1006H12.8044C12.1173 12.1565 11.1073 12.9622 9.9251 13.3974C8.74285 13.8326 7.45161 13.8741 6.24385 13.5158C5.03609 13.1574 3.97648 12.4183 3.22298 11.4086C2.46947 10.399 2.06242 9.1729 2.0625 7.91309H1C0.998541 9.33392 1.43534 10.7206 2.25085 11.8841C3.06635 13.0476 4.22087 13.9313 5.55697 14.4146C6.89308 14.8979 8.34573 14.9574 9.71687 14.5849C11.088 14.2124 12.3109 13.426 13.2188 12.3331V14.2881H14.2813V10.0381H10.0313V11.1006Z" fill="#36D777" stroke="#36D777" stroke-width="0.5"/>
</svg>
