<svg width="19" height="20" viewBox="0 0 19 20" fill="none" xmlns="http://www.w3.org/2000/svg">
<path d="M7.0371 5.49213C4.79832 7.80847 5.28687 11.6525 7.85135 13.3554C7.93585 13.4115 8.04827 13.4004 8.12085 13.3295C8.66074 12.8019 9.11747 12.291 9.51739 11.6411C9.57857 11.5417 9.54052 11.4127 9.43787 11.3571C9.0467 11.1451 8.65747 10.7478 8.43835 10.328L8.4381 10.3282C8.17561 9.80552 8.08625 9.21963 8.22521 8.61455C8.22536 8.61459 8.22551 8.61463 8.22566 8.61463C8.38556 7.83995 9.21722 7.11933 9.85241 6.45288C9.85108 6.45244 9.84978 6.45196 9.84844 6.45151L12.2283 4.0225C13.1768 3.05451 14.7368 3.04652 15.6951 4.00479C16.663 4.95317 16.679 6.52108 15.7306 7.48904L14.2891 8.97141C14.2224 9.04002 14.2007 9.14011 14.232 9.23059C14.5639 10.1931 14.6455 11.5502 14.4231 12.5756C14.4169 12.6043 14.4523 12.6231 14.4728 12.6021L17.5408 9.47072C19.5008 7.47036 19.4841 4.21351 17.5039 2.23328C15.483 0.212391 12.1931 0.229209 10.1929 2.27059L7.04939 5.47899C7.04523 5.48337 7.0413 5.48783 7.0371 5.49213Z" fill="white"/>
<path d="M12.7728 13.7967C12.7727 13.7968 12.7727 13.797 12.7726 13.7971C12.7746 13.7962 12.7764 13.7955 12.7784 13.7946C13.4045 12.6497 13.5278 11.3366 13.2343 10.0565L13.233 10.0579L13.2316 10.0572C12.9529 8.91713 12.1884 7.78501 11.15 7.08797C11.0607 7.02801 10.918 7.03495 10.8344 7.1026C10.3084 7.52787 9.7936 8.07322 9.45389 8.76915C9.40054 8.87841 9.44049 9.00965 9.54563 9.07069C9.93987 9.29957 10.2959 9.63467 10.5343 10.0796L10.5347 10.0793C10.7205 10.3936 10.9035 10.9899 10.7849 11.6306C10.7849 11.6306 10.7848 11.6306 10.7847 11.6306C10.674 12.4801 9.81621 13.2593 9.13427 13.9614L9.13461 13.9618C8.61551 14.4926 7.29594 15.8378 6.76756 16.3776C5.81917 17.3456 4.25126 17.3616 3.28331 16.4132C2.31536 15.4648 2.29935 13.8969 3.24774 12.9289L4.69354 11.4421C4.75907 11.3747 4.78135 11.2768 4.7522 11.1874C4.43117 10.2024 4.34322 8.87589 4.54586 7.85169C4.5515 7.82314 4.51638 7.80491 4.496 7.8257L1.47412 10.91C-0.505895 12.9308 -0.489114 16.2211 1.51146 18.2216C3.53224 20.2016 6.80554 20.1681 8.78547 18.1474C9.47331 17.378 12.4177 14.6518 12.7728 13.7967Z" fill="white"/>
</svg>
