<svg width="32" height="32" viewBox="0 0 32 32" fill="none" xmlns="http://www.w3.org/2000/svg">
<g clip-path="url(#clip0_4601_2687)">
<path d="M26.9843 18.5331C26.7388 18.6997 26.4522 18.7981 26.1548 18.8177C25.8573 18.8374 25.56 18.7777 25.2941 18.6449C24.6699 18.2975 24.3335 17.4829 24.3335 16.3728V12.9707C24.3335 11.3375 23.6769 10.1755 22.5785 9.86001C20.7221 9.32493 19.336 11.5651 18.801 12.4076L15.5179 17.6426V11.2536C15.4814 9.78015 14.9951 8.89767 14.075 8.63412C13.467 8.45842 12.5551 8.5303 11.6674 9.86401L4.32719 21.472C3.35054 19.6312 2.84414 17.5835 2.85185 15.5063C2.85185 8.51034 8.52625 2.82013 15.5179 2.82013C22.5096 2.82013 28.2042 8.51034 28.2042 15.5063V15.5422C28.2042 15.5422 28.2042 15.5662 28.2042 15.5782C28.2732 16.9318 27.8273 18.01 26.9883 18.5331H26.9843ZM31.0374 15.5103V15.4424C30.9806 6.91708 24.0417 0.000976562 15.5179 0.000976562C6.99416 0.000976562 0.0146484 6.95701 0.0146484 15.5063C0.0146484 24.0556 6.96984 31.0156 15.5179 31.0156C19.4384 31.0154 23.2098 29.5349 26.0561 26.8787C26.3324 26.6223 26.4949 26.2689 26.5086 25.8952C26.5223 25.5215 26.3859 25.1575 26.129 24.8822C26.0061 24.7482 25.8575 24.6396 25.6918 24.5624C25.5261 24.4852 25.3466 24.4411 25.1635 24.4326C24.9804 24.4241 24.7975 24.4513 24.6251 24.5127C24.4527 24.5741 24.2944 24.6684 24.1592 24.7903C22.9338 25.9355 21.4861 26.825 19.9031 27.4052C18.3201 27.9855 16.6344 28.2446 14.9472 28.167C13.26 28.0894 11.6061 27.6768 10.0848 26.9538C8.5635 26.2308 7.20619 25.2124 6.09436 23.9598L12.701 13.4978V18.3254C12.701 20.6455 13.6129 21.3962 14.379 21.6158C15.145 21.8354 16.3164 21.6837 17.5445 19.719L21.1923 13.9011C21.3058 13.7134 21.4152 13.5537 21.5125 13.4139V16.3728C21.5125 18.5411 22.3961 20.2741 23.9444 21.1286C24.6484 21.5031 25.4418 21.684 26.2412 21.6523C27.0406 21.6207 27.8167 21.3778 28.488 20.9489C30.1903 19.8588 31.1185 17.8862 31.0212 15.5103H31.0374Z" fill="#444e76"/>
</g>
<defs>
<clipPath id="clip0_4601_2687">
<rect width="31.0146" height="31.0146" fill="white" transform="translate(0.0146484 0.000976562)"/>
</clipPath>
</defs>
</svg>
