<svg width="27" height="27" viewBox="0 0 27 27" fill="none" xmlns="http://www.w3.org/2000/svg">
<path d="M10.9688 3.375H3.375V10.9772H5.0625V5.0625H10.9688V3.375Z" fill="#46DD83"/>
<path d="M24.8822 11.07L17.2884 6.8512C17.1602 6.77715 17.0147 6.73816 16.8665 6.73816C16.7184 6.73816 16.5729 6.77715 16.4447 6.8512L8.85092 11.07C8.72247 11.1461 8.61653 11.2549 8.54389 11.3853C8.47126 11.5158 8.43454 11.6632 8.43748 11.8125V20.25C8.43858 20.4003 8.47983 20.5476 8.55697 20.6767C8.6341 20.8057 8.74433 20.9118 8.87623 20.984L16.47 25.2028C16.5936 25.2728 16.7329 25.3106 16.875 25.3125C17.0197 25.3102 17.1616 25.2725 17.2884 25.2028L24.8822 20.984C25.0125 20.9108 25.121 20.8042 25.1966 20.6752C25.2722 20.5462 25.3122 20.3995 25.3125 20.25V11.8125C25.3137 11.6615 25.2745 11.513 25.1988 11.3824C25.1231 11.2518 25.0138 11.1439 24.8822 11.07ZM16.0312 23.0343L10.125 19.7521V13.2384L16.0312 16.5206V23.0343ZM16.875 15.0609L11.0194 11.8125L16.875 8.55558L22.7306 11.8125L16.875 15.0609ZM23.625 19.7521L17.7187 23.0343V16.5206L23.625 13.2384V19.7521Z" fill="#46DD83"/>
</svg>
