<?xml version="1.0" encoding="utf-8"?>
<!-- Generator: Adobe Illustrator 24.1.2, SVG Export Plug-In . SVG Version: 6.00 Build 0)  -->
<svg version="1.1" id="Outline" xmlns="http://www.w3.org/2000/svg" xmlns:xlink="http://www.w3.org/1999/xlink" x="0px" y="0px"
	 width="365.9px" height="393.1px" viewBox="0 0 365.9 393.1" style="enable-background:new 0 0 365.9 393.1;" xml:space="preserve"
	>
<style type="text/css">
	.st0{fill:#FFFFFF;}
</style>
<path class="st0" d="M169.4,268.3c-4.1,4.7-3.6,11.9,1.1,16c4.3,3.7,10.6,3.7,14.9,0l80.9-80.8l0,0c4.4-4.4,4.4-11.6,0-16l0,0
	l-80.8-80.8c-4.7-4.1-11.9-3.6-16,1.1c-3.7,4.3-3.7,10.6,0,14.9l61.5,61.5H11.3c-6.3,0-11.3,5.1-11.3,11.3c0,6.3,5.1,11.3,11.3,11.3
	h219.6L169.4,268.3z"/>
<path class="st0" d="M320.3,0H131.7c-25.2,0-45.6,20.5-45.6,45.7v46.1c0.2,6.3,5.4,11.2,11.7,11c6-0.2,10.8-5,11-11V45.7
	c0-12.7,10.3-23,23-23h188.6c12.7,0,23,10.3,23,23l0,0v301.8c0,12.7-10.3,23-23,23l0,0H131.7c-12.7,0-23-10.3-23-23l0,0v-45
	c0.2-6.3-4.7-11.5-11-11.7s-11.5,4.7-11.7,11c0,0.2,0,0.4,0,0.7v45c0,25.2,20.4,45.6,45.6,45.6h188.6c25.2,0,45.6-20.4,45.6-45.6
	V45.7C365.9,20.4,345.5,0,320.3,0z"/>
</svg>
