<?xml version="1.0" encoding="utf-8"?>
<!-- Generator: Adobe Illustrator 24.1.2, SVG Export Plug-In . SVG Version: 6.00 Build 0)  -->
<svg version="1.1" id="레이어_1" xmlns="http://www.w3.org/2000/svg" xmlns:xlink="http://www.w3.org/1999/xlink" x="0px"
	 y="0px" width="36px" height="35.4px" viewBox="0 0 36 35.4" style="enable-background:new 0 0 36 35.4;" xml:space="preserve">
<style type="text/css">
	.st0{fill:#FFFFFF;}
</style>
<path class="st0" d="M35.1,2.9h-2v-2c0-0.5-0.4-0.9-0.9-0.9s-0.9,0.4-0.9,0.9v2h-2c-0.5,0-0.9,0.4-0.9,0.9s0.4,0.9,0.9,0.9h2v2
	c0,0.5,0.4,0.9,0.9,0.9s0.9-0.4,0.9-0.9v-2h2c0.5,0,0.9-0.4,0.9-0.9S35.6,2.9,35.1,2.9L35.1,2.9L35.1,2.9z"/>
<path class="st0" d="M26.8,17.7c2.9-2.3,3.4-6.5,1.2-9.4c-1.2-1.6-3.1-2.5-5.2-2.6c-1.6,0-3.2,0.6-4.4,1.7c-2.1-3.9-7-5.4-11-3.3
	s-5.4,7-3.3,10.9c0.7,1.2,1.6,2.2,2.7,3c-4,1.2-6.8,4.5-6.8,8.4v8c0,0.5,0.4,0.9,0.9,0.9l0,0h20.9c0.5,0,0.9-0.4,0.9-0.9l0,0v-1.6
	h8.5c0.5,0,0.9-0.4,0.9-0.9l0,0v-7C32.1,21.6,29.9,18.7,26.8,17.7z M22.8,7.4c2.7-0.1,4.9,2.1,5,4.8c0,2.7-2.1,4.9-4.8,5
	c-1.8,0-3.5-0.9-4.4-2.5l0-0.1c0.1-0.2,0.1-0.3,0.2-0.5s0.1-0.4,0.2-0.6s0-0.2,0.1-0.3c0.2-0.6,0.3-1.3,0.3-1.9c0-0.4,0-0.8-0.1-1.3
	c0-0.3-0.1-0.5-0.2-0.8c0,0,0-0.1,0-0.1C20.1,8.1,21.4,7.4,22.8,7.4C22.8,7.4,22.8,7.4,22.8,7.4z M17.4,18.7c-0.5-0.2-1-0.4-1.6-0.6
	c0.7-0.5,1.3-1,1.8-1.6c0.4,0.5,0.9,1,1.4,1.3C18.5,18,18,18.3,17.4,18.7L17.4,18.7z M5,11.3C5,7.9,7.8,5,11.3,5
	c2.7,0,5.1,1.7,6,4.3c0.2,0.7,0.4,1.4,0.4,2.1c0,0.7-0.1,1.4-0.3,2c-0.8,2.3-3.1,4.3-5.6,4.3h-0.7C7.6,17.4,5,14.6,5,11.3z
	 M20.9,33.6H1.8v-7.1c0-1.5,0.5-2.9,1.5-4c1-1.2,2.3-2,3.8-2.5c0.9-0.3,1.8-0.4,2.8-0.5c1,0,1.9-0.1,2.9,0c0.5,0,1,0.1,1.5,0.2
	c0.5,0.1,1,0.2,1.5,0.4c0.3,0.1,0.5,0.2,0.7,0.2c0.7,0.3,1.4,0.6,2,1.1c0.4,0.3,0.7,0.6,1,1c0.3,0.3,0.5,0.7,0.6,1
	c0.3,0.5,0.4,1.1,0.5,1.7c0.2,1,0.3,2,0.3,3c0,0.7,0,1.4,0,2C20.9,31.2,20.9,32.4,20.9,33.6C20.9,33.6,20.9,33.6,20.9,33.6
	L20.9,33.6z M30.3,31h-7.6v-4.6c0,0,0-0.1,0-0.1s0-0.2,0-0.3c-0.1-1.6-0.6-3.1-1.5-4.4c0-0.1-0.1-0.1-0.2-0.2
	c-0.2-0.2-0.4-0.5-0.6-0.7l0-0.1c-0.4-0.4-0.8-0.7-1.2-1c0.8-0.5,1.7-0.7,2.6-0.6h2.2c3.4-0.1,6.2,2.6,6.2,6V31z"/>
</svg>
