<svg width="26" height="26" viewBox="0 0 26 26" fill="none" xmlns="http://www.w3.org/2000/svg">
<path d="M23.1594 6.61066L13.4094 0.923163C13.2852 0.850669 13.1439 0.812469 13 0.812469C12.8561 0.812469 12.7148 0.850669 12.5906 0.923163L2.84058 6.61066C2.71792 6.68222 2.61616 6.78468 2.54543 6.90782C2.47471 7.03096 2.43749 7.17049 2.4375 7.3125V18.6875C2.43749 18.8295 2.47471 18.969 2.54543 19.0922C2.61616 19.2153 2.71792 19.3178 2.84058 19.3893L12.5906 25.0768C12.7148 25.1493 12.8561 25.1875 13 25.1875C13.1439 25.1875 13.2852 25.1493 13.4094 25.0768L23.1594 19.3893C23.2821 19.3178 23.3838 19.2153 23.4546 19.0922C23.5253 18.969 23.5625 18.8295 23.5625 18.6875V7.3125C23.5625 7.17049 23.5253 7.03096 23.4546 6.90782C23.3838 6.78468 23.2821 6.68222 23.1594 6.61066ZM13 2.56563L21.1377 7.3125L13 12.0594L4.86232 7.3125L13 2.56563ZM4.0625 8.72723L12.1875 13.4665V22.9603L4.0625 18.221V8.72723ZM13.8125 22.9603V13.4665L21.9375 8.72723V18.221L13.8125 22.9603Z" fill="#46DD83"/>
</svg>
