<svg width="23" height="23" viewBox="0 0 23 23" fill="none" xmlns="http://www.w3.org/2000/svg">
<path d="M7.39246 7.39246V15.6067H15.6067V7.39246H7.39246ZM13.9639 13.9639H9.03531V9.03531H13.9639V13.9639Z" fill="#46DD83"/>
<path d="M23 9.03571V7.39286H19.7143V4.92857C19.7143 4.49286 19.5412 4.07499 19.2331 3.7669C18.925 3.4588 18.5071 3.28571 18.0714 3.28571H15.6071V0H13.9643V3.28571H9.03571V0H7.39286V3.28571H4.92857C4.49286 3.28571 4.07499 3.4588 3.7669 3.7669C3.4588 4.07499 3.28571 4.49286 3.28571 4.92857V7.39286H0V9.03571H3.28571V13.9643H0V15.6071H3.28571V18.0714C3.28571 18.5071 3.4588 18.925 3.7669 19.2331C4.07499 19.5412 4.49286 19.7143 4.92857 19.7143H7.39286V23H9.03571V19.7143H13.9643V23H15.6071V19.7143H18.0714C18.5071 19.7143 18.925 19.5412 19.2331 19.2331C19.5412 18.925 19.7143 18.5071 19.7143 18.0714V15.6071H23V13.9643H19.7143V9.03571H23ZM18.0714 18.0714H4.92857V4.92857H18.0714V18.0714Z" fill="#46DD83"/>
</svg>
