<?xml version="1.0" encoding="utf-8"?>
<!-- Generator: Adobe Illustrator 23.0.4, SVG Export Plug-In . SVG Version: 6.00 Build 0)  -->
<svg version="1.1" id="Layer_1" xmlns="http://www.w3.org/2000/svg" xmlns:xlink="http://www.w3.org/1999/xlink" x="0px" y="0px"
	 viewBox="0 0 26 28.9" style="enable-background:new 0 0 26 28.9;" xml:space="preserve">
<style type="text/css">
	.st0{fill:#CCCFE1;fill-opacity:0.38;}
</style>
<g>
	<path class="st0" d="M12.8,7c1.7,0,3.1-0.6,4.4-1.9c1.3-1.2,1.9-2.7,1.9-4.3c0-0.2,0-0.4,0-0.8c-0.2,0-0.4,0.1-0.5,0.1
		C17,0.3,15.7,1,14.5,2.2c-1.2,1.2-1.8,2.5-1.8,4C12.8,6.3,12.8,6.6,12.8,7z M18.8,28.9c1.2,0,2.5-0.8,3.9-2.3s2.5-3.4,3.3-5.5
		c-2.8-1.4-4.2-3.4-4.2-6c0-2.2,1.1-4,3.4-5.6c-1.6-1.9-3.7-2.8-6.3-2.8c-1.1,0-2.1,0.2-3,0.5l-0.6,0.2l-0.8,0.3
		c-0.5,0.2-1,0.3-1.4,0.3c-0.3,0-0.7-0.1-1.3-0.3l-0.6-0.2l-0.6-0.2C10,6.8,9.2,6.6,8.2,6.6c-2.5,0-4.5,0.8-6,2.4
		C0.8,10.6,0,12.7,0,15.4c0,3.7,1.2,7.1,3.6,10.2c1.7,2.2,3.2,3.3,4.6,3.3c0.6,0,1.2-0.1,1.8-0.3l0.7-0.3l0.6-0.2
		c0.8-0.3,1.6-0.4,2.3-0.4c0.7,0,1.6,0.2,2.5,0.5l0.5,0.2C17.5,28.7,18.2,28.9,18.8,28.9z"/>
</g>
</svg>
