<svg width="32" height="32" viewBox="0 0 32 32" fill="none" xmlns="http://www.w3.org/2000/svg">
<path d="M15.5513 31.0156C24.1157 31.0156 31.0586 24.0728 31.0586 15.5083C31.0586 6.94384 24.1157 0.000976562 15.5513 0.000976562C6.98681 0.000976562 0.0439453 6.94384 0.0439453 15.5083C0.0439453 24.0728 6.98681 31.0156 15.5513 31.0156Z" fill="#444e76"/>
<path d="M25.0505 11.1454C24.3859 11.4401 23.6711 11.6394 22.9214 11.7284C23.6868 11.2698 24.2743 10.5442 24.5515 9.67813C23.8353 10.103 23.0416 10.4112 22.1977 10.5774C21.5215 9.85726 20.5582 9.40723 19.4914 9.40723C17.4447 9.40723 15.7847 11.0672 15.7847 13.1139C15.7847 13.4044 15.8176 13.6872 15.8812 13.9587C12.8006 13.8042 10.0692 12.3286 8.24089 10.0853C7.92189 10.6327 7.73889 11.2698 7.73889 11.949C7.73889 13.2347 8.39376 14.3697 9.38781 15.0343C8.78049 15.0152 8.20855 14.8485 7.70903 14.5702C7.70876 14.5859 7.70876 14.6017 7.70876 14.6172C7.70876 16.4131 8.98698 17.9111 10.6823 18.2514C10.3716 18.3366 10.0435 18.3816 9.70598 18.3816C9.46659 18.3816 9.23467 18.3587 9.00854 18.3155C9.48014 19.7878 10.8488 20.8596 12.4711 20.8897C11.2023 21.884 9.60425 22.4764 7.86715 22.4764C7.56861 22.4764 7.27282 22.459 6.9834 22.4244C8.62292 23.4765 10.5718 24.0899 12.6649 24.0899C19.4828 24.0899 23.2114 18.4419 23.2114 13.5432C23.2114 13.3826 23.2078 13.2225 23.2006 13.0639C23.9254 12.5414 24.5537 11.8888 25.0505 11.1454Z" fill="#0E1119"/>
</svg>
