<svg width="92" height="34" viewBox="0 0 92 34" fill="none" xmlns="http://www.w3.org/2000/svg">
<g clip-path="url(#clip0_4497_4614)">
<g clip-path="url(#clip1_4497_4614)">
<path d="M32.96 21.1364C32.1598 24.3468 30.4253 27.2479 27.9761 29.4726C25.5269 31.6973 22.4729 33.1457 19.2004 33.6347C15.9279 34.1236 12.5839 33.6311 9.5913 32.2195C6.59872 30.8079 4.092 28.5405 2.3882 25.7042C0.684404 22.8679 -0.139945 19.59 0.0194187 16.2852C0.178782 12.9803 1.3147 9.79696 3.2835 7.13772C5.2523 4.47847 7.96555 2.4628 11.0801 1.34564C14.1946 0.228474 17.5705 0.0600038 20.7808 0.861536C25.083 1.93779 28.7821 4.67753 31.0657 8.47904C33.3493 12.2805 34.0306 16.8329 32.96 21.1364Z" fill="url(#paint0_linear_4497_4614)"/>
<path d="M32.96 21.1364C32.1598 24.3468 30.4253 27.2479 27.9761 29.4726C25.5269 31.6973 22.4729 33.1457 19.2004 33.6347C15.9279 34.1236 12.5839 33.6311 9.5913 32.2195C6.59872 30.8079 4.092 28.5405 2.3882 25.7042C0.684404 22.8679 -0.139945 19.59 0.0194187 16.2852C0.178782 12.9803 1.3147 9.79696 3.2835 7.13772C5.2523 4.47847 7.96555 2.4628 11.0801 1.34564C14.1946 0.228474 17.5705 0.0600038 20.7808 0.861536C25.083 1.93779 28.7821 4.67753 31.0657 8.47904C33.3493 12.2805 34.0306 16.8329 32.96 21.1364Z" fill="#07D2DF"/>
<path d="M32.96 21.1364C32.1598 24.3468 30.4253 27.2479 27.9761 29.4726C25.5269 31.6973 22.4729 33.1457 19.2004 33.6347C15.9279 34.1236 12.5839 33.6311 9.5913 32.2195C6.59872 30.8079 4.092 28.5405 2.3882 25.7042C0.684404 22.8679 -0.139945 19.59 0.0194187 16.2852C0.178782 12.9803 1.3147 9.79696 3.2835 7.13772C5.2523 4.47847 7.96555 2.4628 11.0801 1.34564C14.1946 0.228474 17.5705 0.0600038 20.7808 0.861536C25.083 1.93779 28.7821 4.67753 31.0657 8.47904C33.3493 12.2805 34.0306 16.8329 32.96 21.1364Z" fill="url(#paint1_linear_4497_4614)"/>
<path fill-rule="evenodd" clip-rule="evenodd" d="M25.6424 9.97393L25.2679 9.62234C24.1435 8.61738 22.8495 7.82027 21.4462 7.26817C20.0363 6.70381 18.5317 6.41327 17.013 6.41211C13.8154 6.43034 10.7495 7.68796 8.46008 9.92043C7.93441 10.43 7.44888 10.9794 7.00784 11.5638C6.58525 12.1277 6.20217 12.7202 5.86133 13.337L9.0792 16.2339C9.38394 15.5799 9.7608 14.9621 10.2028 14.3918C10.6456 13.8015 11.159 13.2676 11.7314 12.802C13.2274 11.5358 15.1219 10.8375 17.0818 10.83H17.5022C19.1612 10.9176 20.757 11.4948 22.0882 12.4886L22.501 12.802L12.083 22.1804C13.4134 23.1748 15.0102 23.7496 16.6691 23.8314L25.0768 16.2644L28.2641 13.3982C27.9177 12.7584 27.5243 12.1452 27.087 11.5638C26.6489 10.9959 26.1658 10.4643 25.6424 9.97393Z" fill="white"/>
<path fill-rule="evenodd" clip-rule="evenodd" d="M22.4171 21.3969C20.9201 22.6614 19.0262 23.3594 17.0667 23.3689C15.6993 23.3657 14.3542 23.0215 13.1533 22.3676C12.9393 22.253 12.7788 22.1613 12.6259 22.0619L12.5571 22.016C12.3966 21.9167 12.2437 21.8097 12.0909 21.695C11.938 21.5804 11.8081 21.4887 11.6781 21.3816L22.0502 12.0338C20.7198 11.0394 19.123 10.4646 17.4642 10.3828L9.05643 17.9498L5.86914 20.816C6.21377 21.4568 6.6073 22.0701 7.04622 22.6504C7.47239 23.2189 7.94538 23.7507 8.46025 24.2403C10.7302 26.5111 13.8066 27.7914 17.0175 27.8014C20.2283 27.8114 23.3126 26.5504 25.5967 24.2938C26.1269 23.7863 26.6151 23.2367 27.0566 22.6504C27.4792 22.0865 27.8623 21.494 28.2031 20.8772L24.9852 17.9803C24.6916 18.6272 24.3276 19.2398 23.8999 19.8071C23.4712 20.3947 22.9734 20.9284 22.4171 21.3969Z" fill="white"/>
</g>
</g>
<path d="M39.5183 16.8486V14.7161L43.928 9.72812H39.6268V7.70401H46.7834V9.80041L42.8075 14.698H46.7834V16.8486H39.5183ZM52.4977 17.1197C51.7507 17.1197 51.076 17.0294 50.4736 16.8486C49.8712 16.6559 49.3892 16.3366 49.0278 15.8908C48.6663 15.433 48.4856 14.8004 48.4856 13.9932C48.4856 13.1498 48.7507 12.4751 49.2808 11.9691C49.8109 11.451 50.6362 11.192 51.7567 11.192C52.2266 11.192 52.6784 11.2522 53.1121 11.3727C53.5579 11.4932 53.9375 11.6378 54.2507 11.8064V11.2281C54.2507 10.6739 54.07 10.2763 53.7085 10.0353C53.3591 9.78233 52.8652 9.65583 52.2266 9.65583C51.6844 9.65583 51.1423 9.75221 50.6001 9.94499C50.0579 10.1257 49.6302 10.3486 49.3169 10.6137V8.22811C49.6061 8.03534 50.082 7.85461 50.7447 7.68594C51.4194 7.51726 52.1603 7.43293 52.9676 7.43293C53.317 7.43293 53.7146 7.4751 54.1603 7.55943C54.6182 7.63172 55.0579 7.78233 55.4796 8.01124C55.9013 8.22811 56.2447 8.54739 56.5098 8.96908C56.7869 9.39077 56.9254 9.94499 56.9254 10.6317L56.9073 14.951C56.8953 15.7342 56.5037 16.2944 55.7326 16.6318C54.9616 16.9571 53.8832 17.1197 52.4977 17.1197ZM51.1603 14.0474C51.1603 14.4089 51.3049 14.698 51.5941 14.9149C51.8953 15.1197 52.2266 15.2221 52.588 15.2221C53.2025 15.2221 53.6302 15.18 53.8712 15.0956C54.1242 15.0113 54.2507 14.8426 54.2507 14.5896V13.1799C53.817 13.0354 53.3531 12.9631 52.8591 12.9631C51.7266 12.9631 51.1603 13.3245 51.1603 14.0474ZM67.9905 10.704V16.8486H65.2977V11.2462C65.2977 10.7763 65.1652 10.3968 64.9001 10.1076C64.6351 9.81848 64.1772 9.6739 63.5266 9.6739C63.2495 9.6739 62.9905 9.71005 62.7495 9.78233C62.5206 9.84258 62.3339 9.90884 62.1893 9.98113V16.8486H59.4965V8.48112C59.7977 8.31245 60.2194 8.1498 60.7616 7.99317C61.3158 7.83654 61.9001 7.71004 62.5146 7.61365C63.1411 7.50522 63.7134 7.451 64.2315 7.451C64.8098 7.451 65.3218 7.50522 65.7676 7.61365C66.2254 7.71004 66.611 7.86666 66.9242 8.08353C67.4062 7.89076 67.9062 7.74016 68.4242 7.63172C68.9544 7.51124 69.4483 7.451 69.9062 7.451C71.1351 7.451 72.0688 7.69196 72.7074 8.17389C73.346 8.65582 73.6652 9.4992 73.6652 10.704V16.8486H70.9725V11.2462C70.9725 10.7763 70.8399 10.3968 70.5749 10.1076C70.3098 9.81848 69.852 9.6739 69.2014 9.6739C68.9483 9.6739 68.7134 9.71005 68.4965 9.78233C68.2797 9.84258 68.0989 9.92691 67.9544 10.0353C67.9785 10.2402 67.9905 10.4631 67.9905 10.704ZM76.2318 6.45702V4.37869H79.0149V6.45702H76.2318ZM76.286 16.8486V7.83052H78.9788L78.9969 16.8486H76.286ZM85.7041 17.1197C82.6077 17.1197 81.0655 15.4932 81.0776 12.2402C81.0776 10.5173 81.4692 9.28233 82.2523 8.53534C83.0354 7.7763 84.186 7.39678 85.7041 7.39678C87.2342 7.39678 88.3969 7.78835 89.1921 8.57149C89.9873 9.34257 90.3849 10.5655 90.3849 12.2402C90.3849 13.8426 89.9812 15.0595 89.174 15.8908C88.3668 16.7101 87.2101 17.1197 85.7041 17.1197ZM85.7041 14.9691C86.3668 14.9691 86.8668 14.7402 87.2041 14.2824C87.5415 13.8125 87.7102 13.1317 87.7102 12.2402C87.7102 11.2281 87.5355 10.5233 87.1861 10.1257C86.8487 9.72812 86.3547 9.52932 85.7041 9.52932C85.0174 9.52932 84.5174 9.73414 84.2041 10.1438C83.8909 10.5534 83.7342 11.2522 83.7342 12.2402C83.7342 13.1558 83.8909 13.8426 84.2041 14.3004C84.5294 14.7462 85.0294 14.9691 85.7041 14.9691Z" fill="white"/>
<path d="M61.2641 27.7438C60.6618 27.7438 60.128 27.6523 59.6629 27.4693C59.1978 27.2863 58.8318 26.9699 58.5649 26.52C58.3056 26.0701 58.176 25.4411 58.176 24.6328C58.176 23.695 58.4048 22.9554 58.8623 22.414C59.3198 21.8726 60.0136 21.6019 60.9439 21.6019C61.0811 21.6019 61.2756 21.6172 61.5272 21.6477C61.7788 21.6782 62.0228 21.7582 62.2592 21.8879V19.4059H63.9519V26.0625C63.9519 26.4361 63.8223 26.7488 63.5631 27.0004C63.3038 27.2444 62.9683 27.4312 62.5566 27.5608C62.1448 27.6828 61.714 27.7438 61.2641 27.7438ZM61.3328 26.3141C61.6073 26.3141 61.8284 26.2798 61.9961 26.2112C62.1715 26.135 62.2592 26.0244 62.2592 25.8795V23.2146C61.9694 23.0545 61.6721 22.9744 61.3671 22.9744C60.8791 22.9744 60.5093 23.1002 60.2576 23.3518C60.0136 23.6035 59.8916 24.0457 59.8916 24.6786C59.8916 25.1895 59.9946 25.5898 60.2004 25.8795C60.4139 26.1693 60.7914 26.3141 61.3328 26.3141ZM67.6963 27.7438C67.2235 27.7438 66.7965 27.6866 66.4153 27.5723C66.034 27.4503 65.729 27.2482 65.5003 26.9661C65.2715 26.6763 65.1572 26.276 65.1572 25.7651C65.1572 25.2314 65.3249 24.8044 65.6604 24.4842C65.9959 24.1563 66.5182 23.9923 67.2273 23.9923C67.5247 23.9923 67.8106 24.0305 68.0851 24.1067C68.3673 24.183 68.6074 24.2745 68.8057 24.3812V24.0152C68.8057 23.6645 68.6913 23.4128 68.4626 23.2603C68.2414 23.1002 67.9288 23.0202 67.5247 23.0202C67.1816 23.0202 66.8385 23.0812 66.4953 23.2032C66.1522 23.3175 65.8815 23.4586 65.6833 23.6263V22.1166C65.8663 21.9946 66.1675 21.8802 66.5868 21.7735C67.0138 21.6667 67.4828 21.6134 67.9936 21.6134C68.2148 21.6134 68.4664 21.64 68.7485 21.6934C69.0383 21.7392 69.3166 21.8345 69.5834 21.9794C69.8503 22.1166 70.0676 22.3187 70.2354 22.5855C70.4108 22.8524 70.4984 23.2032 70.4984 23.6378L70.487 26.3713C70.4794 26.867 70.2316 27.2215 69.7436 27.435C69.2556 27.6409 68.5731 27.7438 67.6963 27.7438ZM66.8499 25.7995C66.8499 26.0282 66.9414 26.2112 67.1244 26.3485C67.315 26.4781 67.5247 26.5429 67.7535 26.5429C68.1423 26.5429 68.413 26.5162 68.5655 26.4628C68.7256 26.4095 68.8057 26.3027 68.8057 26.1426V25.2505C68.5312 25.159 68.2376 25.1132 67.925 25.1132C67.2083 25.1132 66.8499 25.342 66.8499 25.7995ZM75.1336 27.7438C74.9964 27.7438 74.7829 27.7286 74.4931 27.6981C74.211 27.6676 73.9403 27.5799 73.6811 27.435V29.6424H72.0112V23.0087C72.0112 22.6809 72.137 22.414 72.3887 22.2081C72.6403 22.0022 72.972 21.8497 73.3837 21.7506C73.8031 21.6439 74.2644 21.5905 74.7676 21.5905C75.3395 21.5905 75.8466 21.6896 76.2888 21.8879C76.7311 22.0785 77.0742 22.4025 77.3182 22.86C77.5698 23.3175 77.6956 23.9428 77.6956 24.7358C77.6956 25.3305 77.5927 25.8566 77.3868 26.3141C77.1886 26.764 76.895 27.1148 76.5061 27.3664C76.1249 27.618 75.6674 27.7438 75.1336 27.7438ZM74.6304 26.3713C75.0803 26.3713 75.4196 26.2455 75.6483 25.9939C75.8771 25.7423 75.9915 25.3038 75.9915 24.6786C75.9915 24.1525 75.9 23.7445 75.717 23.4548C75.534 23.165 75.1946 23.0202 74.699 23.0202C74.333 23.0202 74.07 23.0583 73.9098 23.1345C73.7573 23.2032 73.6811 23.2947 73.6811 23.409V26.1311C73.826 26.215 73.9823 26.276 74.15 26.3141C74.3254 26.3523 74.4855 26.3713 74.6304 26.3713ZM82.0028 27.7438C81.8656 27.7438 81.6521 27.7286 81.3623 27.6981C81.0802 27.6676 80.8095 27.5799 80.5503 27.435V29.6424H78.8804V23.0087C78.8804 22.6809 79.0062 22.414 79.2578 22.2081C79.5094 22.0022 79.8411 21.8497 80.2529 21.7506C80.6723 21.6439 81.1336 21.5905 81.6368 21.5905C82.2087 21.5905 82.7157 21.6896 83.158 21.8879C83.6002 22.0785 83.9434 22.4025 84.1874 22.86C84.439 23.3175 84.5648 23.9428 84.5648 24.7358C84.5648 25.3305 84.4619 25.8566 84.256 26.3141C84.0577 26.764 83.7642 27.1148 83.3753 27.3664C82.9941 27.618 82.5366 27.7438 82.0028 27.7438ZM81.4996 26.3713C81.9494 26.3713 82.2887 26.2455 82.5175 25.9939C82.7462 25.7423 82.8606 25.3038 82.8606 24.6786C82.8606 24.1525 82.7691 23.7445 82.5861 23.4548C82.4031 23.165 82.0638 23.0202 81.5682 23.0202C81.2022 23.0202 80.9391 23.0583 80.779 23.1345C80.6265 23.2032 80.5503 23.2947 80.5503 23.409V26.1311C80.6951 26.215 80.8514 26.276 81.0192 26.3141C81.1946 26.3523 81.3547 26.3713 81.4996 26.3713ZM87.4652 27.7438C87.0534 27.7438 86.6989 27.6981 86.4015 27.6066C86.1117 27.5227 85.8411 27.4274 85.5894 27.3206V25.8223C85.8182 25.9901 86.0965 26.1502 86.4244 26.3027C86.7599 26.4476 87.1297 26.52 87.5338 26.52C87.8083 26.52 87.9989 26.4743 88.1057 26.3828C88.22 26.2836 88.2772 26.1655 88.2772 26.0282C88.2772 25.8986 88.22 25.7956 88.1057 25.7194C87.9913 25.6355 87.8426 25.5669 87.6596 25.5135C87.4766 25.4602 87.2822 25.4106 87.0763 25.3648C86.8247 25.3115 86.5807 25.2238 86.3443 25.1018C86.1156 24.9722 85.9249 24.7892 85.7724 24.5528C85.6276 24.3088 85.5551 23.9962 85.5551 23.6149C85.5551 23.2489 85.6276 22.9401 85.7724 22.6885C85.9173 22.4369 86.1079 22.2348 86.3443 22.0823C86.5807 21.9298 86.8361 21.823 87.1106 21.762C87.3851 21.6934 87.652 21.6629 87.9112 21.6705C88.384 21.6858 88.7576 21.7392 89.0321 21.8307C89.3066 21.9145 89.562 22.0251 89.7984 22.1624V23.5005C89.5392 23.3557 89.2799 23.2222 89.0207 23.1002C88.769 22.9706 88.4793 22.9058 88.1514 22.9058C87.854 22.9058 87.6405 22.9554 87.5109 23.0545C87.3813 23.146 87.3165 23.2642 87.3165 23.409C87.3165 23.6302 87.4118 23.7827 87.6024 23.8665C87.793 23.9504 88.018 24.0267 88.2772 24.0953C88.4679 24.141 88.6661 24.1982 88.872 24.2668C89.0779 24.3278 89.2685 24.4193 89.4438 24.5413C89.6192 24.6557 89.7603 24.8197 89.867 25.0332C89.9814 25.2467 90.0386 25.5212 90.0386 25.8566C90.031 26.3218 89.9052 26.6916 89.6612 26.9661C89.4172 27.2406 89.1007 27.4388 88.7119 27.5608C88.323 27.6828 87.9074 27.7438 87.4652 27.7438Z" fill="#2DFFB3"/>
<defs>
<linearGradient id="paint0_linear_4497_4614" x1="33.7093" y1="0.616893" x2="0.246534" y2="33.0796" gradientUnits="userSpaceOnUse">
<stop stop-color="#31E566"/>
<stop offset="1" stop-color="#00C6FE"/>
</linearGradient>
<linearGradient id="paint1_linear_4497_4614" x1="0.696088" y1="1.05266" x2="30.8102" y2="31.1758" gradientUnits="userSpaceOnUse">
<stop stop-color="#65FF90"/>
<stop offset="1" stop-color="#5FFF95" stop-opacity="0"/>
</linearGradient>
<clipPath id="clip0_4497_4614">
<rect width="33.4551" height="33.4551" fill="white" transform="translate(0 0.363281)"/>
</clipPath>
<clipPath id="clip1_4497_4614">
<rect width="33.4551" height="33.4551" fill="white" transform="translate(0 0.363281)"/>
</clipPath>
</defs>
</svg>
