<svg width="118" height="43" viewBox="0 0 118 43" fill="none" xmlns="http://www.w3.org/2000/svg">
    <path fill-rule="evenodd" clip-rule="evenodd" d="M40.6199 9.95751C39.7913 8.85388 38.8825 7.82536 37.9081 6.87669C37.6711 6.64544 37.4282 6.42187 37.1836 6.20126C35.0354 4.26488 32.5863 2.71886 29.9271 1.65308C27.268 0.587893 24.3999 0 21.406 0C15.1187 0 9.37549 2.56094 4.99351 6.78561C3.98404 7.75794 3.04655 8.81898 2.19158 9.95751C1.38341 11.0333 0.653084 12.1813 0 13.3855L6.17972 18.9859C6.75146 17.7202 7.44609 16.5343 8.2525 15.4508C9.10689 14.3034 10.0859 13.2731 11.1615 12.3759C14.0226 9.98886 17.5864 8.56585 21.4552 8.56585C21.7256 8.56585 21.9907 8.58951 22.2581 8.60311C25.4925 8.7693 28.4881 9.92202 31.0051 11.8004C31.2725 12.0003 31.5411 12.1985 31.798 12.4138L11.8696 30.4752C14.3872 32.3536 17.3822 33.5063 20.6166 33.6731L36.7576 19.0438L42.8747 13.5002C42.2064 12.2541 41.4538 11.0676 40.6199 9.95751Z" fill="#78EB66"/>
    <path fill-rule="evenodd" clip-rule="evenodd" d="M34.6222 26.8239C33.7678 27.9719 32.7888 29.0016 31.7132 29.8988C28.8527 32.2864 25.2888 33.7088 21.4195 33.7088C18.7188 33.7088 16.1738 33.0033 13.9055 31.7736C13.8722 31.7559 13.8388 31.7388 13.806 31.7204C13.4947 31.5489 13.1898 31.3679 12.8902 31.1763C12.8481 31.1497 12.8071 31.1231 12.7656 31.0959C12.4607 30.8977 12.1616 30.6925 11.8696 30.4743C11.6016 30.2743 11.333 30.0762 11.0767 29.8609L31.0051 11.7995C28.4881 9.92107 25.4925 8.76835 22.2581 8.60156L6.1171 23.2309L0 28.7745C0.668299 30.0212 1.42087 31.207 2.25419 32.3172C3.08342 33.4208 3.99224 34.4499 4.9666 35.3986C9.36087 39.6753 15.138 42.2747 21.4687 42.2747C27.7566 42.2747 33.4992 39.7138 37.8812 35.4897C38.8912 34.5168 39.8282 33.4557 40.6831 32.3172C41.4913 31.2419 42.2216 30.094 42.8747 28.8892L36.695 23.2888C36.1232 24.5545 35.4286 25.7404 34.6222 26.8239Z" fill="#2FB6EE"/>
    <path d="M79.4573 24.9731C79.8515 24.9731 80.1718 25.0864 80.4182 25.3131C80.6744 25.5299 80.8025 25.8108 80.8025 26.1557V34.3453C80.8025 34.7198 80.6843 35.0154 80.4477 35.2322C80.2112 35.449 79.8959 35.5574 79.5017 35.5574C79.137 35.5574 78.8364 35.4638 78.5999 35.2766C78.3732 35.0795 78.2451 34.8134 78.2156 34.4783C78.0086 34.8232 77.7031 35.0943 77.299 35.2914C76.9048 35.4885 76.4663 35.587 75.9834 35.587C75.3625 35.587 74.8057 35.4293 74.313 35.114C73.8301 34.7888 73.4506 34.3354 73.1747 33.754C72.8988 33.1725 72.7608 32.5073 72.7608 31.7583C72.7608 31.0093 72.8938 30.354 73.1599 29.7922C73.4359 29.2206 73.8153 28.7821 74.2982 28.4766C74.7909 28.1711 75.3527 28.0183 75.9834 28.0183C76.4466 28.0183 76.8703 28.1119 77.2547 28.2992C77.6489 28.4864 77.9544 28.7377 78.1712 29.0531V26.1114C78.1712 25.7664 78.2846 25.4905 78.5112 25.2835C78.7477 25.0766 79.0631 24.9731 79.4573 24.9731ZM76.7817 33.6209C77.2448 33.6209 77.5996 33.4632 77.846 33.1479C78.0924 32.8325 78.2156 32.3792 78.2156 31.7879C78.2156 31.2064 78.0924 30.763 77.846 30.4574C77.5996 30.1421 77.2448 29.9844 76.7817 29.9844C76.3283 29.9844 75.9785 30.1372 75.7321 30.4427C75.4857 30.7482 75.3625 31.1867 75.3625 31.7583C75.3625 32.3496 75.4857 32.8079 75.7321 33.1331C75.9883 33.4583 76.3382 33.6209 76.7817 33.6209ZM85.7251 28.0183C86.8486 28.0183 87.6764 28.2893 88.2086 28.8314C88.7506 29.3635 89.0217 30.1766 89.0217 31.2705V34.3601C89.0217 34.7345 88.9083 35.0302 88.6817 35.247C88.4648 35.454 88.1593 35.5574 87.7651 35.5574C87.4202 35.5574 87.1344 35.4589 86.9077 35.2618C86.6909 35.0647 86.5727 34.7986 86.553 34.4635C86.415 34.8183 86.1834 35.0943 85.8582 35.2914C85.533 35.4885 85.1437 35.587 84.6903 35.587C84.1877 35.587 83.7344 35.4885 83.3303 35.2914C82.9263 35.0844 82.606 34.8035 82.3695 34.4488C82.1428 34.0841 82.0295 33.6751 82.0295 33.2218C82.0295 32.6995 82.1625 32.2856 82.4286 31.9801C82.7046 31.6647 83.1382 31.438 83.7295 31.3001C84.3208 31.1621 85.119 31.0931 86.1243 31.0931H86.5234V30.9157C86.5234 30.5708 86.4446 30.3244 86.2869 30.1766C86.1292 30.0189 85.8631 29.9401 85.4886 29.9401C85.0846 29.9401 84.4932 30.078 83.7147 30.354C83.488 30.4328 83.2959 30.4722 83.1382 30.4722C82.8918 30.4722 82.6947 30.3835 82.5469 30.2061C82.399 30.0288 82.3251 29.7972 82.3251 29.5114C82.3251 29.2945 82.3695 29.1172 82.4582 28.9792C82.5469 28.8412 82.6898 28.718 82.8869 28.6096C83.2318 28.4322 83.6654 28.2893 84.1877 28.1809C84.7101 28.0725 85.2225 28.0183 85.7251 28.0183ZM85.3112 33.8279C85.666 33.8279 85.9567 33.7047 86.1834 33.4583C86.4101 33.2021 86.5234 32.8769 86.5234 32.4827V32.3053H86.2869C85.6561 32.3053 85.2077 32.3644 84.9417 32.4827C84.6756 32.5911 84.5425 32.7783 84.5425 33.0444C84.5425 33.2711 84.6115 33.4583 84.7495 33.6061C84.8973 33.754 85.0846 33.8279 85.3112 33.8279ZM95.3155 28.0183C95.9363 28.0183 96.4882 28.1809 96.9711 28.5061C97.4639 28.8215 97.8433 29.2699 98.1094 29.8514C98.3853 30.4328 98.5233 31.098 98.5233 31.847C98.5233 32.596 98.3853 33.2563 98.1094 33.8279C97.8433 34.3896 97.4688 34.8232 96.9859 35.1288C96.503 35.4343 95.9462 35.587 95.3155 35.587C94.8523 35.587 94.4236 35.4934 94.0294 35.3061C93.645 35.1189 93.3444 34.8676 93.1276 34.5522V37.0653C93.1276 37.4102 93.0094 37.6861 92.7729 37.8931C92.5363 38.1001 92.2259 38.2035 91.8415 38.2035C91.4375 38.2035 91.1123 38.0902 90.8659 37.8635C90.6195 37.6467 90.4963 37.3659 90.4963 37.0209V29.2601C90.4963 28.8954 90.6097 28.6047 90.8363 28.3879C91.0729 28.1612 91.3882 28.0479 91.7824 28.0479C92.1569 28.0479 92.4575 28.1464 92.6842 28.3435C92.9207 28.5406 93.0537 28.8018 93.0833 29.127C93.2902 28.7821 93.5908 28.5111 93.985 28.314C94.3891 28.1169 94.8326 28.0183 95.3155 28.0183ZM94.5172 33.6209C94.9705 33.6209 95.3155 33.4682 95.552 33.1627C95.7984 32.8572 95.9215 32.4186 95.9215 31.847C95.9215 31.2459 95.7984 30.7876 95.552 30.4722C95.3056 30.147 94.9558 29.9844 94.5024 29.9844C94.0491 29.9844 93.6992 30.1421 93.4529 30.4574C93.2065 30.7728 93.0833 31.2261 93.0833 31.8174C93.0833 32.3989 93.2065 32.8473 93.4529 33.1627C93.6992 33.4682 94.054 33.6209 94.5172 33.6209ZM104.555 28.0183C105.175 28.0183 105.727 28.1809 106.21 28.5061C106.703 28.8215 107.082 29.2699 107.349 29.8514C107.624 30.4328 107.762 31.098 107.762 31.847C107.762 32.596 107.624 33.2563 107.349 33.8279C107.082 34.3896 106.708 34.8232 106.225 35.1288C105.742 35.4343 105.185 35.587 104.555 35.587C104.091 35.587 103.663 35.4934 103.269 35.3061C102.884 35.1189 102.584 34.8676 102.367 34.5522V37.0653C102.367 37.4102 102.249 37.6861 102.012 37.8931C101.775 38.1001 101.465 38.2035 101.081 38.2035C100.677 38.2035 100.351 38.0902 100.105 37.8635C99.8587 37.6467 99.7355 37.3659 99.7355 37.0209V29.2601C99.7355 28.8954 99.8488 28.6047 100.075 28.3879C100.312 28.1612 100.627 28.0479 101.022 28.0479C101.396 28.0479 101.697 28.1464 101.923 28.3435C102.16 28.5406 102.293 28.8018 102.322 29.127C102.529 28.7821 102.83 28.5111 103.224 28.314C103.628 28.1169 104.072 28.0183 104.555 28.0183ZM103.756 33.6209C104.21 33.6209 104.555 33.4682 104.791 33.1627C105.037 32.8572 105.161 32.4186 105.161 31.847C105.161 31.2459 105.037 30.7876 104.791 30.4722C104.545 30.147 104.195 29.9844 103.742 29.9844C103.288 29.9844 102.938 30.1421 102.692 30.4574C102.446 30.7728 102.322 31.2261 102.322 31.8174C102.322 32.3989 102.446 32.8473 102.692 33.1627C102.938 33.4682 103.293 33.6209 103.756 33.6209ZM111.842 35.587C111.182 35.587 110.625 35.5377 110.172 35.4392C109.719 35.3406 109.32 35.183 108.975 34.9661C108.837 34.8972 108.728 34.7789 108.649 34.6114C108.571 34.4438 108.531 34.2566 108.531 34.0496C108.531 33.7835 108.6 33.5667 108.738 33.3992C108.886 33.2218 109.068 33.1331 109.285 33.1331C109.433 33.1331 109.571 33.1528 109.699 33.1922C109.827 33.2218 109.985 33.276 110.172 33.3548C110.487 33.4632 110.763 33.547 111 33.6061C111.246 33.6653 111.557 33.6948 111.931 33.6948C112.197 33.6948 112.404 33.6603 112.552 33.5914C112.71 33.5125 112.789 33.4041 112.789 33.2661C112.789 33.1577 112.749 33.074 112.67 33.0148C112.601 32.9557 112.463 32.9015 112.256 32.8522C112.049 32.7931 111.7 32.7143 111.207 32.6157C110.33 32.4482 109.694 32.1969 109.3 31.8618C108.915 31.5169 108.723 31.034 108.723 30.4131C108.723 29.9598 108.861 29.5508 109.137 29.1861C109.423 28.8215 109.812 28.5357 110.305 28.3288C110.798 28.1218 111.35 28.0183 111.961 28.0183C112.404 28.0183 112.833 28.0725 113.247 28.1809C113.671 28.2893 114.045 28.4421 114.37 28.6392C114.676 28.8166 114.829 29.1024 114.829 29.4966C114.829 29.7725 114.755 30.0041 114.607 30.1914C114.459 30.3786 114.277 30.4722 114.06 30.4722C113.804 30.4722 113.498 30.3885 113.143 30.2209C112.907 30.1125 112.695 30.0337 112.508 29.9844C112.33 29.9253 112.118 29.8957 111.872 29.8957C111.626 29.8957 111.433 29.9351 111.295 30.014C111.157 30.083 111.089 30.1864 111.089 30.3244C111.089 30.4821 111.182 30.6053 111.369 30.694C111.566 30.7827 111.951 30.8812 112.522 30.9896C113.478 31.1572 114.153 31.4134 114.548 31.7583C114.942 32.0934 115.139 32.5812 115.139 33.2218C115.139 33.9412 114.838 34.5177 114.237 34.9514C113.646 35.3751 112.848 35.587 111.842 35.587Z" fill="white"/>
    <path d="M60.195 16.1433C61.4686 16.1433 62.1054 16.6606 62.1054 17.6954C62.1054 18.7461 61.4686 19.2715 60.195 19.2715H52.673C52.1158 19.2715 51.6621 19.0964 51.3118 18.7461C50.9616 18.3959 50.7865 17.974 50.7865 17.4805C50.7865 16.9552 50.9855 16.4696 51.3835 16.0239L56.3982 10.6509H52.5536C51.28 10.6509 50.6432 10.1256 50.6432 9.0749C50.6432 8.04011 51.28 7.52272 52.5536 7.52272H59.7891C60.3463 7.52272 60.8 7.69784 61.1502 8.04807C61.5004 8.39831 61.6756 8.82018 61.6756 9.31369C61.6756 9.82312 61.4766 10.3007 61.0786 10.7465L56.04 16.1433H60.195ZM69.0226 7.23617C70.8375 7.23617 72.1748 7.67396 73.0344 8.54954C73.91 9.40921 74.3478 10.7226 74.3478 12.4897V17.4805C74.3478 18.0855 74.1647 18.5631 73.7986 18.9133C73.4483 19.2476 72.9548 19.4148 72.318 19.4148C71.7608 19.4148 71.2992 19.2556 70.933 18.9372C70.5828 18.6188 70.3917 18.1889 70.3599 17.6477C70.137 18.2208 69.7629 18.6665 69.2376 18.9849C68.7122 19.3033 68.0834 19.4625 67.3511 19.4625C66.5392 19.4625 65.8069 19.3033 65.1541 18.9849C64.5014 18.6506 63.984 18.1969 63.602 17.6238C63.2358 17.0348 63.0527 16.3741 63.0527 15.6418C63.0527 14.798 63.2677 14.1294 63.6975 13.6359C64.1432 13.1265 64.8437 12.7603 65.7989 12.5374C66.7541 12.3146 68.0436 12.2031 69.6674 12.2031H70.3121V11.9166C70.3121 11.3594 70.1848 10.9614 69.9301 10.7226C69.6754 10.4679 69.2455 10.3405 68.6406 10.3405C67.9879 10.3405 67.0327 10.5634 65.775 11.0091C65.4089 11.1365 65.0984 11.2002 64.8437 11.2002C64.4457 11.2002 64.1273 11.0569 63.8885 10.7703C63.6497 10.4838 63.5303 10.1097 63.5303 9.64801C63.5303 9.29777 63.602 9.01122 63.7453 8.78834C63.8885 8.56546 64.1194 8.36647 64.4378 8.19135C64.995 7.9048 65.6954 7.67396 66.5392 7.49884C67.3829 7.32373 68.2107 7.23617 69.0226 7.23617ZM68.354 16.6208C68.9271 16.6208 69.3968 16.4219 69.7629 16.0239C70.1291 15.6099 70.3121 15.0846 70.3121 14.4478V14.1613H69.9301C68.9112 14.1613 68.1869 14.2568 67.757 14.4478C67.3272 14.6229 67.1123 14.9254 67.1123 15.3552C67.1123 15.7214 67.2237 16.0239 67.4466 16.2627C67.6854 16.5015 67.9879 16.6208 68.354 16.6208ZM91.7264 7.23617C93.0159 7.23617 94.0108 7.6262 94.7113 8.40627C95.4118 9.17041 95.762 10.4679 95.762 12.2986V17.4566C95.762 18.1093 95.5551 18.6029 95.1411 18.9372C94.7431 19.2556 94.2417 19.4148 93.6367 19.4148C93.0318 19.4148 92.5223 19.2556 92.1084 18.9372C91.7104 18.6029 91.5114 18.1093 91.5114 17.4566V12.2031C91.5114 11.5663 91.4 11.1206 91.1771 10.8659C90.9543 10.6111 90.6279 10.4838 90.1981 10.4838C89.6409 10.4838 89.1951 10.6828 88.8608 11.0808C88.5265 11.4788 88.3593 12.028 88.3593 12.7285V17.4566C88.3593 18.1093 88.1603 18.6029 87.7623 18.9372C87.3644 19.2556 86.8549 19.4148 86.2341 19.4148C85.6291 19.4148 85.1197 19.2556 84.7058 18.9372C84.3078 18.6029 84.1088 18.1093 84.1088 17.4566V12.2031C84.1088 11.5663 83.9973 11.1206 83.7745 10.8659C83.5516 10.6111 83.2252 10.4838 82.7954 10.4838C82.2382 10.4838 81.7924 10.6828 81.4581 11.0808C81.1397 11.4788 80.9805 12.028 80.9805 12.7285V17.4566C80.9805 18.1093 80.7736 18.6029 80.3597 18.9372C79.9617 19.2556 79.4602 19.4148 78.8553 19.4148C78.2503 19.4148 77.7409 19.2556 77.327 18.9372C76.929 18.6029 76.73 18.1093 76.73 17.4566V9.19429C76.73 8.57342 76.9369 8.10379 77.3508 7.7854C77.7807 7.45108 78.2901 7.28393 78.8791 7.28393C79.4363 7.28393 79.898 7.43516 80.2642 7.73764C80.6462 8.02419 80.8452 8.44607 80.8611 9.00326C81.6412 7.8252 82.8352 7.23617 84.4431 7.23617C86.1465 7.23617 87.2848 7.92868 87.8579 9.31369C88.2559 8.6769 88.7892 8.17543 89.4578 7.80928C90.1264 7.4272 90.8826 7.23617 91.7264 7.23617ZM100.286 19.4148C99.6813 19.4148 99.1719 19.2556 98.758 18.9372C98.36 18.6029 98.161 18.1093 98.161 17.4566V9.24205C98.161 8.58934 98.36 8.10379 98.758 7.7854C99.1719 7.45108 99.6813 7.28393 100.286 7.28393C100.891 7.28393 101.393 7.45108 101.791 7.7854C102.205 8.10379 102.412 8.58934 102.412 9.24205V17.4566C102.412 18.1093 102.205 18.6029 101.791 18.9372C101.393 19.2556 100.891 19.4148 100.286 19.4148ZM100.286 5.61235C99.5699 5.61235 98.9968 5.42928 98.5669 5.06312C98.153 4.68105 97.9461 4.17958 97.9461 3.55871C97.9461 2.93784 98.153 2.44433 98.5669 2.07817C98.9968 1.71202 99.5699 1.52894 100.286 1.52894C100.987 1.52894 101.552 1.71202 101.982 2.07817C102.412 2.44433 102.626 2.93784 102.626 3.55871C102.626 4.17958 102.412 4.68105 101.982 5.06312C101.568 5.42928 101.003 5.61235 100.286 5.61235ZM110.799 19.4625C109.51 19.4625 108.371 19.2158 107.384 18.7223C106.413 18.2128 105.657 17.4964 105.116 16.5731C104.591 15.6497 104.328 14.5672 104.328 13.3255C104.328 12.0837 104.591 11.0091 105.116 10.1017C105.657 9.17837 106.413 8.46995 107.384 7.97643C108.356 7.48292 109.494 7.23617 110.799 7.23617C112.105 7.23617 113.243 7.48292 114.214 7.97643C115.185 8.46995 115.933 9.17837 116.459 10.1017C117 11.0091 117.271 12.0837 117.271 13.3255C117.271 14.5672 117 15.6497 116.459 16.5731C115.933 17.4964 115.185 18.2128 114.214 18.7223C113.243 19.2158 112.105 19.4625 110.799 19.4625ZM110.799 16.2865C112.312 16.2865 113.068 15.2995 113.068 13.3255C113.068 11.3514 112.312 10.3644 110.799 10.3644C109.287 10.3644 108.531 11.3514 108.531 13.3255C108.531 15.2995 109.287 16.2865 110.799 16.2865Z" fill="white"/>
</svg>
