<svg width="20" height="20" viewBox="0 0 20 20" fill="none" xmlns="http://www.w3.org/2000/svg">
<path d="M13.5568 10.0351C13.4106 9.95155 13.2591 9.88366 13.1077 9.82621C13.2591 9.76877 13.4106 9.70088 13.5568 9.61732C14.5595 9.03764 15.1183 7.98795 15.1235 6.90693C14.1887 6.36903 12.998 6.32725 11.9901 6.90693C11.8439 6.99049 11.7081 7.08971 11.5828 7.18894C11.6089 7.02704 11.6246 6.85993 11.6246 6.69281C11.6246 5.53346 10.9926 4.52554 10.0579 3.98242C9.12305 4.52554 8.49115 5.53346 8.49115 6.69281C8.49115 6.85993 8.50682 7.02704 8.53293 7.18894C8.40759 7.08449 8.27181 6.98526 8.12559 6.90171C7.1229 6.32203 5.93221 6.36381 4.99219 6.90171C4.99219 7.98273 5.55098 9.03242 6.55889 9.6121C6.70511 9.69566 6.85656 9.76355 7.00801 9.82099C6.85656 9.87844 6.70511 9.94633 6.55889 10.0299C5.5562 10.6096 4.99741 11.6593 4.99219 12.7403C5.92699 13.2782 7.11768 13.32 8.12559 12.7403C8.27181 12.6567 8.40759 12.5575 8.53293 12.4583C8.50682 12.6254 8.49115 12.7925 8.49115 12.9596C8.49115 14.119 9.12305 15.1269 10.0579 15.67C10.9926 15.1269 11.6246 14.119 11.6246 12.9596C11.6246 12.7925 11.6089 12.6254 11.5828 12.4635C11.7081 12.5679 11.8439 12.6619 11.9901 12.7455C12.9928 13.3252 14.1835 13.2834 15.1235 12.7455C15.1183 11.6645 14.5595 10.6148 13.5568 10.0351ZM10.0579 11.9151C8.90372 11.9151 7.96892 10.9804 7.96892 9.82621C7.96892 8.67208 8.90372 7.73728 10.0579 7.73728C11.212 7.73728 12.1468 8.67208 12.1468 9.82621C12.1468 10.9804 11.212 11.9151 10.0579 11.9151Z" fill="#2DFF82"/>
<rect x="1" y="1" width="18" height="18" rx="3" stroke="#2DFF82" stroke-width="2"/>
</svg>
