<svg width="62" height="23" viewBox="0 0 62 23" fill="none" xmlns="http://www.w3.org/2000/svg">
<rect width="61.7637" height="22.1623" rx="11.0811" fill="#36E269"/>
<path d="M18.5408 15.6951C17.8123 15.6951 17.1216 15.6005 16.4688 15.4113C15.8254 15.2126 15.3003 14.9476 14.8934 14.6165C14.6758 14.4556 14.567 14.2286 14.567 13.9353C14.567 13.7366 14.6238 13.5663 14.7373 13.4243C14.8603 13.2729 15.0022 13.1973 15.1631 13.1973C15.3334 13.1973 15.5273 13.2635 15.7449 13.396C16.1518 13.6893 16.5776 13.9021 17.0223 14.0346C17.467 14.1671 17.959 14.2333 18.4983 14.2333C19.189 14.2333 19.7188 14.115 20.0878 13.8785C20.4568 13.6325 20.6413 13.2777 20.6413 12.8141C20.6413 12.4545 20.4663 12.1801 20.1162 11.9909C19.7756 11.7922 19.2032 11.603 18.3989 11.4232C17.5663 11.2434 16.8898 11.0353 16.3694 10.7987C15.849 10.5622 15.4564 10.2594 15.1914 9.89044C14.9265 9.52143 14.7941 9.05309 14.7941 8.48539C14.7941 7.89877 14.9596 7.37365 15.2908 6.91004C15.6219 6.44642 16.0808 6.08688 16.6675 5.83142C17.2635 5.56649 17.9306 5.43403 18.6686 5.43403C20.0216 5.43403 21.1239 5.79357 21.9754 6.51265C22.0984 6.61673 22.1836 6.72081 22.2309 6.82488C22.2876 6.9195 22.316 7.0425 22.316 7.19388C22.316 7.39258 22.2545 7.56762 22.1315 7.719C22.018 7.86093 21.8808 7.93189 21.7199 7.93189C21.6253 7.93189 21.5354 7.9177 21.4503 7.88931C21.3746 7.86093 21.2705 7.80889 21.138 7.73319C20.7501 7.44935 20.3717 7.24119 20.0027 7.10873C19.6431 6.96681 19.1984 6.89585 18.6686 6.89585C18.0252 6.89585 17.5143 7.02831 17.1358 7.29323C16.7668 7.54869 16.5823 7.90823 16.5823 8.37185C16.5823 8.75978 16.7479 9.05782 17.079 9.26597C17.4102 9.47413 17.9731 9.66809 18.7679 9.84786C19.61 10.0371 20.2912 10.25 20.8116 10.4865C21.3415 10.7136 21.7436 11.0069 22.018 11.3664C22.3018 11.726 22.4437 12.1754 22.4437 12.7147C22.4437 13.3013 22.2782 13.8217 21.947 14.2759C21.6253 14.7206 21.1664 15.0706 20.5704 15.3261C19.9837 15.5721 19.3072 15.6951 18.5408 15.6951ZM27.1371 15.6809C26.4275 15.6809 25.803 15.5343 25.2637 15.241C24.7339 14.9476 24.3223 14.5266 24.029 13.9778C23.7357 13.4291 23.589 12.7904 23.589 12.0619C23.589 11.3333 23.7357 10.6994 24.029 10.1601C24.3223 9.61132 24.7339 9.19028 25.2637 8.89697C25.803 8.60366 26.4275 8.45701 27.1371 8.45701C27.8467 8.45701 28.4664 8.60366 28.9963 8.89697C29.5356 9.19028 29.9472 9.61132 30.231 10.1601C30.5243 10.6994 30.671 11.3333 30.671 12.0619C30.671 12.7904 30.5243 13.4291 30.231 13.9778C29.9472 14.5266 29.5356 14.9476 28.9963 15.241C28.4664 15.5343 27.8467 15.6809 27.1371 15.6809ZM27.1229 14.3043C27.7001 14.3043 28.14 14.115 28.4428 13.7366C28.7456 13.3581 28.8969 12.7999 28.8969 12.0619C28.8969 11.3333 28.7456 10.7798 28.4428 10.4014C28.14 10.0134 27.7048 9.81947 27.1371 9.81947C26.5694 9.81947 26.1294 10.0134 25.8172 10.4014C25.5144 10.7798 25.363 11.3333 25.363 12.0619C25.363 12.7999 25.5144 13.3581 25.8172 13.7366C26.12 14.115 26.5552 14.3043 27.1229 14.3043ZM35.3005 15.6809C34.5909 15.6809 33.9664 15.5343 33.4271 15.241C32.8972 14.9476 32.4857 14.5266 32.1924 13.9778C31.899 13.4291 31.7524 12.7904 31.7524 12.0619C31.7524 11.3333 31.899 10.6994 32.1924 10.1601C32.4857 9.61132 32.8972 9.19028 33.4271 8.89697C33.9664 8.60366 34.5909 8.45701 35.3005 8.45701C36.0101 8.45701 36.6298 8.60366 37.1597 8.89697C37.699 9.19028 38.1106 9.61132 38.3944 10.1601C38.6877 10.6994 38.8344 11.3333 38.8344 12.0619C38.8344 12.7904 38.6877 13.4291 38.3944 13.9778C38.1106 14.5266 37.699 14.9476 37.1597 15.241C36.6298 15.5343 36.0101 15.6809 35.3005 15.6809ZM35.2863 14.3043C35.8634 14.3043 36.3034 14.115 36.6062 13.7366C36.9089 13.3581 37.0603 12.7999 37.0603 12.0619C37.0603 11.3333 36.9089 10.7798 36.6062 10.4014C36.3034 10.0134 35.8682 9.81947 35.3005 9.81947C34.7328 9.81947 34.2928 10.0134 33.9806 10.4014C33.6778 10.7798 33.5264 11.3333 33.5264 12.0619C33.5264 12.7999 33.6778 13.3581 33.9806 13.7366C34.2834 14.115 34.7186 14.3043 35.2863 14.3043ZM44.3296 8.45701C45.1622 8.45701 45.782 8.69355 46.1888 9.16662C46.5956 9.6397 46.7991 10.3541 46.7991 11.3097V14.801C46.7991 15.0659 46.7186 15.2741 46.5578 15.4255C46.4064 15.5768 46.1935 15.6525 45.9191 15.6525C45.6448 15.6525 45.4271 15.5768 45.2663 15.4255C45.1054 15.2741 45.025 15.0659 45.025 14.801V11.409C45.025 10.8697 44.9209 10.4771 44.7128 10.2311C44.5141 9.98505 44.1971 9.86205 43.7619 9.86205C43.251 9.86205 42.8394 10.0229 42.5272 10.3446C42.2244 10.6663 42.073 11.0968 42.073 11.6361V14.801C42.073 15.0659 41.9926 15.2741 41.8317 15.4255C41.6709 15.5768 41.4533 15.6525 41.1789 15.6525C40.9045 15.6525 40.6869 15.5768 40.526 15.4255C40.3747 15.2741 40.299 15.0659 40.299 14.801V9.30855C40.299 9.06255 40.3794 8.86385 40.5402 8.71247C40.7011 8.56108 40.9187 8.48539 41.1931 8.48539C41.4391 8.48539 41.6378 8.56108 41.7892 8.71247C41.95 8.85439 42.0304 9.04362 42.0304 9.28016V9.66336C42.267 9.27543 42.5839 8.97739 42.9813 8.76924C43.3787 8.56108 43.8281 8.45701 44.3296 8.45701Z" fill="#0E1017"/>
</svg>
