<svg width="293" height="104" viewBox="0 0 293 104" fill="none" xmlns="http://www.w3.org/2000/svg">
<g filter="url(#filter0_b_4537_6895)">
<rect width="293" height="104" rx="20" fill="#313855" fill-opacity="0.49"/>
<rect x="0.5" y="0.5" width="292" height="103" rx="19.5" stroke="#2F2954" stroke-opacity="0.09"/>
</g>
<mask id="mask0_4537_6895" style="mask-type:alpha" maskUnits="userSpaceOnUse" x="0" y="0" width="293" height="104">
<rect width="293" height="104" rx="20" fill="#313855" fill-opacity="0.49"/>
<rect x="0.5" y="0.5" width="292" height="103" rx="19.5" stroke="#2F2954" stroke-opacity="0.09"/>
</mask>
<g mask="url(#mask0_4537_6895)">
<g filter="url(#filter1_f_4537_6895)">
<path d="M120.644 391C9.27916 391 -81 309.964 -81 210C-81 110.036 9.27917 29 120.644 29C232.009 29 476.76 159.51 322.288 210C137.374 250.475 232.009 391 120.644 391Z" fill="#FF00F8" fill-opacity="0.47"/>
</g>
<g filter="url(#filter2_f_4537_6895)">
<path d="M311.644 59C200.279 59 110 -17.1116 110 -111C110 -204.888 200.279 -281 311.644 -281C423.009 -281 667.76 -158.421 513.288 -111C328.374 -72.9851 423.009 59 311.644 59Z" fill="#00FFA3" fill-opacity="0.47"/>
</g>
<g style="mix-blend-mode:color-dodge" opacity="0.3">
<path d="M91.2165 13.9374C85.8454 35.4784 64.0254 48.588 42.4793 43.2162C20.942 37.8457 7.83086 16.027 13.2045 -5.51281C18.5731 -27.0564 40.3932 -40.1672 61.933 -34.7967C83.4778 -29.4262 96.5876 -7.60496 91.2165 13.9374Z" fill="url(#paint0_linear_4537_6895)"/>
<path d="M91.2165 13.9374C85.8454 35.4784 64.0254 48.588 42.4793 43.2162C20.942 37.8457 7.83086 16.027 13.2045 -5.51281C18.5731 -27.0564 40.3932 -40.1672 61.933 -34.7967C83.4778 -29.4262 96.5876 -7.60496 91.2165 13.9374Z" fill="#07D2DF"/>
<path d="M91.2165 13.9374C85.8454 35.4784 64.0254 48.588 42.4793 43.2162C20.942 37.8457 7.83086 16.027 13.2045 -5.51281C18.5731 -27.0564 40.3932 -40.1672 61.933 -34.7967C83.4778 -29.4262 96.5876 -7.60496 91.2165 13.9374Z" fill="url(#paint1_linear_4537_6895)"/>
<mask id="mask1_4537_6895" style="mask-type:alpha" maskUnits="userSpaceOnUse" x="26" y="-22" width="54" height="43">
<path fill-rule="evenodd" clip-rule="evenodd" d="M26.1904 -21.4268H79.8635V20.4408H26.1904V-21.4268Z" fill="white"/>
</mask>
<g mask="url(#mask1_4537_6895)">
<path fill-rule="evenodd" clip-rule="evenodd" d="M73.6467 -12.8766C73.3493 -13.1641 73.0453 -13.4414 72.739 -13.7164C70.0497 -16.124 66.9845 -18.0463 63.6548 -19.3714C60.3266 -20.6958 56.7362 -21.4268 52.9874 -21.4268C45.1164 -21.4268 37.9274 -18.2426 32.441 -12.9906C31.1772 -11.7809 30.0036 -10.4617 28.9333 -9.04608C27.9223 -7.70844 27.008 -6.28183 26.1904 -4.78461L33.9259 2.17933C34.6424 0.605642 35.512 -0.868773 36.5208 -2.21597C37.5904 -3.64332 38.8168 -4.9236 40.1633 -6.03915C43.7442 -9.00784 48.2058 -10.7764 53.0497 -10.7764C53.3882 -10.7764 53.72 -10.747 54.0548 -10.7301C58.1039 -10.5234 61.8534 -9.0902 65.005 -6.75467C65.3398 -6.50611 65.6761 -6.25977 65.9977 -5.99209L41.049 16.4646C44.2014 18.8001 47.9501 20.2341 51.9999 20.4408L72.2064 2.2514L79.8636 -4.64122C79.027 -6.19138 78.0856 -7.66579 77.0416 -9.04608C76.0035 -10.4183 74.8665 -11.6978 73.6467 -12.8766Z" fill="white"/>
</g>
<mask id="mask2_4537_6895" style="mask-type:alpha" maskUnits="userSpaceOnUse" x="26" y="-13" width="54" height="43">
<path fill-rule="evenodd" clip-rule="evenodd" d="M26.1904 -12.2959H79.8635V29.5716H26.1904V-12.2959Z" fill="white"/>
</mask>
<g mask="url(#mask2_4537_6895)">
<path fill-rule="evenodd" clip-rule="evenodd" d="M65.8907 14.184C62.3098 17.1527 57.8482 18.9205 53.0043 18.9205C49.6241 18.9205 46.4373 18.044 43.5977 16.5151C43.0842 16.2357 42.7025 16.0107 42.3267 15.7724C42.2746 15.7393 42.2234 15.7055 42.1713 15.6724C41.7897 15.4261 41.4153 15.1709 41.0497 14.8995C40.7142 14.651 40.3779 14.4046 40.0571 14.1369L65.005 -8.31976C61.8534 -10.6553 58.1039 -12.0893 54.0548 -12.2959L33.8476 5.89346L26.1904 12.7861C27.0271 14.3362 27.9692 15.8106 29.0124 17.1909C30.0505 18.5631 31.1882 19.8427 32.408 21.0222C37.9091 26.3397 45.1413 29.5716 53.0666 29.5716C60.9376 29.5716 68.1273 26.3875 73.613 21.1355C74.8768 19.9258 76.0504 18.6065 77.1207 17.1909C78.1324 15.8533 79.0467 14.4267 79.8636 12.9295L72.1281 5.96552C71.4123 7.53921 70.542 9.01363 69.5332 10.3608C68.4636 11.7882 67.238 13.0685 65.8907 14.184Z" fill="white"/>
</g>
</g>
<g filter="url(#filter3_d_4537_6895)">
<path d="M250.713 59.4022C244.969 82.4379 221.635 96.4571 198.594 90.7126C175.562 84.9695 161.542 61.6369 167.288 38.6025C173.029 15.5642 196.363 1.54363 219.398 7.28676C242.437 13.0299 256.457 36.3652 250.713 59.4022Z" fill="url(#paint2_linear_4537_6895)"/>
<path d="M250.713 59.4022C244.969 82.4379 221.635 96.4571 198.594 90.7126C175.562 84.9695 161.542 61.6369 167.288 38.6025C173.029 15.5642 196.363 1.54363 219.398 7.28676C242.437 13.0299 256.457 36.3652 250.713 59.4022Z" fill="#07D2DF"/>
<path d="M250.713 59.4022C244.969 82.4379 221.635 96.4571 198.594 90.7126C175.562 84.9695 161.542 61.6369 167.288 38.6025C173.029 15.5642 196.363 1.54363 219.398 7.28676C242.437 13.0299 256.457 36.3652 250.713 59.4022Z" fill="url(#paint3_linear_4537_6895)"/>
<mask id="mask3_4537_6895" style="mask-type:alpha" maskUnits="userSpaceOnUse" x="181" y="21" width="58" height="46">
<path fill-rule="evenodd" clip-rule="evenodd" d="M181.177 21.5869H238.574V66.3594H181.177V21.5869Z" fill="white"/>
</mask>
<g mask="url(#mask3_4537_6895)">
<path fill-rule="evenodd" clip-rule="evenodd" d="M231.926 30.7303C231.608 30.4228 231.283 30.1264 230.955 29.8322C228.079 27.2576 224.801 25.202 221.241 23.7849C217.681 22.3686 213.842 21.5869 209.833 21.5869C201.416 21.5869 193.728 24.992 187.861 30.6084C186.51 31.902 185.255 33.3128 184.11 34.8266C183.029 36.2571 182.051 37.7827 181.177 39.3838L189.449 46.8309C190.215 45.148 191.145 43.5713 192.224 42.1306C193.368 40.6042 194.679 39.2351 196.119 38.0422C199.949 34.8675 204.72 32.9762 209.9 32.9762C210.262 32.9762 210.616 33.0077 210.975 33.0258C215.305 33.2468 219.314 34.7794 222.684 37.277C223.042 37.5428 223.402 37.8063 223.746 38.0925L197.066 62.1074C200.437 64.6049 204.446 66.1384 208.777 66.3594L230.386 46.908L238.574 39.5371C237.679 37.8794 236.673 36.3027 235.556 34.8266C234.446 33.3592 233.23 31.9909 231.926 30.7303Z" fill="white"/>
</g>
<mask id="mask4_4537_6895" style="mask-type:alpha" maskUnits="userSpaceOnUse" x="181" y="31" width="58" height="46">
<path fill-rule="evenodd" clip-rule="evenodd" d="M181.177 31.3486H238.574V76.1211H181.177V31.3486Z" fill="white"/>
</mask>
<g mask="url(#mask4_4537_6895)">
<path fill-rule="evenodd" clip-rule="evenodd" d="M223.632 59.6658C219.802 62.8405 215.031 64.731 209.851 64.731C206.236 64.731 202.828 63.7936 199.792 62.1587C199.243 61.8599 198.834 61.6192 198.433 61.3644C198.377 61.3291 198.322 61.2929 198.267 61.2575C197.858 60.9941 197.458 60.7212 197.067 60.431C196.708 60.1652 196.349 59.9018 196.006 59.6155L222.684 35.6007C219.314 33.1031 215.305 31.5696 210.975 31.3486L189.365 50.8001L181.177 58.1709C182.071 59.8286 183.079 61.4053 184.195 62.8814C185.305 64.3488 186.521 65.7171 187.826 66.9785C193.709 72.6649 201.443 76.1211 209.918 76.1211C218.335 76.1211 226.023 72.716 231.89 67.0996C233.241 65.806 234.496 64.3952 235.641 62.8814C236.723 61.451 237.7 59.9254 238.574 58.3243L230.302 50.8771C229.536 52.56 228.606 54.1367 227.527 55.5774C226.383 57.1038 225.072 58.4729 223.632 59.6658Z" fill="white"/>
</g>
</g>
<g style="mix-blend-mode:color-dodge" opacity="0.3">
<path d="M162.581 34.3868C160.711 41.8868 153.114 46.4511 145.612 44.5809C138.113 42.711 133.548 35.1143 135.419 27.6148C137.289 20.1139 144.886 15.5491 152.385 17.4189C159.887 19.2888 164.451 26.8863 162.581 34.3868Z" fill="url(#paint4_linear_4537_6895)"/>
<path d="M162.581 34.3868C160.711 41.8868 153.114 46.4511 145.612 44.5809C138.113 42.711 133.548 35.1143 135.419 27.6148C137.289 20.1139 144.886 15.5491 152.385 17.4189C159.887 19.2888 164.451 26.8863 162.581 34.3868Z" fill="#07D2DF"/>
<path d="M162.581 34.3868C160.711 41.8868 153.114 46.4511 145.612 44.5809C138.113 42.711 133.548 35.1143 135.419 27.6148C137.289 20.1139 144.886 15.5491 152.385 17.4189C159.887 19.2888 164.451 26.8863 162.581 34.3868Z" fill="url(#paint5_linear_4537_6895)"/>
<mask id="mask5_4537_6895" style="mask-type:alpha" maskUnits="userSpaceOnUse" x="139" y="22" width="20" height="15">
<path fill-rule="evenodd" clip-rule="evenodd" d="M139.94 22.0742H158.628V36.6513H139.94V22.0742Z" fill="white"/>
</mask>
<g mask="url(#mask5_4537_6895)">
<path fill-rule="evenodd" clip-rule="evenodd" d="M156.463 25.0511C156.36 24.951 156.254 24.8545 156.147 24.7587C155.211 23.9205 154.144 23.2512 152.984 22.7898C151.826 22.3287 150.576 22.0742 149.27 22.0742C146.53 22.0742 144.027 23.1828 142.117 25.0114C141.677 25.4326 141.268 25.892 140.895 26.3848C140.543 26.8505 140.225 27.3473 139.94 27.8685L142.634 30.2932C142.883 29.7453 143.186 29.2319 143.537 28.7629C143.91 28.2659 144.337 27.8202 144.805 27.4317C146.052 26.3981 147.606 25.7824 149.292 25.7824C149.41 25.7824 149.525 25.7926 149.642 25.7985C151.052 25.8704 152.357 26.3695 153.455 27.1826C153.571 27.2692 153.688 27.3549 153.8 27.4481L145.114 35.2669C146.211 36.0801 147.517 36.5794 148.927 36.6513L155.962 30.3183L158.628 27.9185C158.337 27.3787 158.009 26.8654 157.645 26.3848C157.284 25.9071 156.888 25.4616 156.463 25.0511Z" fill="white"/>
</g>
<mask id="mask6_4537_6895" style="mask-type:alpha" maskUnits="userSpaceOnUse" x="139" y="25" width="20" height="15">
<path fill-rule="evenodd" clip-rule="evenodd" d="M139.941 25.252H158.629V39.829H139.941V25.252Z" fill="white"/>
</mask>
<g mask="url(#mask6_4537_6895)">
<path fill-rule="evenodd" clip-rule="evenodd" d="M153.764 34.4715C152.517 35.5051 150.964 36.1206 149.277 36.1206C148.1 36.1206 146.991 35.8154 146.002 35.2831C145.823 35.1858 145.69 35.1075 145.56 35.0245C145.541 35.013 145.524 35.0012 145.506 34.9897C145.373 34.904 145.242 34.8151 145.115 34.7206C144.998 34.6341 144.881 34.5483 144.769 34.4551L153.456 26.6363C152.358 25.8232 151.053 25.3239 149.643 25.252L142.607 31.585L139.941 33.9848C140.233 34.5245 140.561 35.0379 140.924 35.5184C141.285 35.9962 141.681 36.4417 142.106 36.8524C144.022 38.7038 146.54 39.829 149.299 39.829C152.039 39.829 154.543 38.7204 156.453 36.8918C156.893 36.4706 157.301 36.0113 157.674 35.5184C158.026 35.0527 158.344 34.556 158.629 34.0347L155.936 31.6101C155.686 32.158 155.383 32.6713 155.032 33.1404C154.66 33.6373 154.233 34.0831 153.764 34.4715Z" fill="white"/>
</g>
</g>
<g style="mix-blend-mode:color-dodge" opacity="0.3">
<path d="M283.946 10.2901C281.441 20.3366 271.264 26.4507 261.215 23.9454C251.17 21.4407 245.056 11.2647 247.562 1.21882C250.066 -8.82881 260.242 -14.9435 270.288 -12.4388C280.336 -9.93408 286.451 0.243065 283.946 10.2901Z" fill="url(#paint6_linear_4537_6895)"/>
<path d="M283.946 10.2901C281.441 20.3366 271.264 26.4507 261.215 23.9454C251.17 21.4407 245.056 11.2647 247.562 1.21882C250.066 -8.82881 260.242 -14.9435 270.288 -12.4388C280.336 -9.93408 286.451 0.243065 283.946 10.2901Z" fill="#07D2DF"/>
<path d="M283.946 10.2901C281.441 20.3366 271.264 26.4507 261.215 23.9454C251.17 21.4407 245.056 11.2647 247.562 1.21882C250.066 -8.82881 260.242 -14.9435 270.288 -12.4388C280.336 -9.93408 286.451 0.243065 283.946 10.2901Z" fill="url(#paint7_linear_4537_6895)"/>
<mask id="mask7_4537_6895" style="mask-type:alpha" maskUnits="userSpaceOnUse" x="253" y="-7" width="26" height="21">
<path fill-rule="evenodd" clip-rule="evenodd" d="M253.618 -6.20215H278.651V13.3243H253.618V-6.20215Z" fill="white"/>
</mask>
<g mask="url(#mask7_4537_6895)">
<path fill-rule="evenodd" clip-rule="evenodd" d="M275.751 -2.21448C275.612 -2.34858 275.471 -2.47788 275.328 -2.60615C274.074 -3.72902 272.644 -4.62553 271.091 -5.24356C269.539 -5.86124 267.864 -6.20215 266.116 -6.20215C262.445 -6.20215 259.092 -4.7171 256.533 -2.26764C255.944 -1.70346 255.397 -1.08818 254.897 -0.427966C254.426 0.19589 253.999 0.861244 253.618 1.55952L257.226 4.80742C257.56 4.07347 257.966 3.38582 258.436 2.75751C258.935 2.09181 259.507 1.4947 260.135 0.974423C261.805 -0.410132 263.886 -1.23497 266.145 -1.23497C266.303 -1.23497 266.458 -1.22125 266.614 -1.21336C268.502 -1.11699 270.251 -0.448544 271.721 0.640718C271.877 0.75664 272.034 0.871533 272.184 0.996373L260.548 11.4699C262.018 12.5591 263.767 13.2279 265.655 13.3243L275.079 4.84103L278.651 1.6264C278.26 0.90343 277.821 0.215782 277.334 -0.427966C276.85 -1.06794 276.32 -1.6647 275.751 -2.21448Z" fill="white"/>
</g>
<mask id="mask8_4537_6895" style="mask-type:alpha" maskUnits="userSpaceOnUse" x="253" y="-2" width="26" height="20">
<path fill-rule="evenodd" clip-rule="evenodd" d="M253.618 -1.94434H278.651V17.5821H253.618V-1.94434Z" fill="white"/>
</mask>
<g mask="url(#mask8_4537_6895)">
<path fill-rule="evenodd" clip-rule="evenodd" d="M272.134 10.4055C270.464 11.7901 268.383 12.6146 266.124 12.6146C264.547 12.6146 263.061 12.2058 261.737 11.4927C261.497 11.3624 261.319 11.2575 261.144 11.1463C261.12 11.1309 261.096 11.1151 261.071 11.0997C260.893 10.9848 260.719 10.8658 260.548 10.7392C260.392 10.6233 260.235 10.5084 260.085 10.3836L271.721 -0.0899171C270.251 -1.17918 268.502 -1.84796 266.614 -1.94434L257.189 6.53894L253.618 9.75356C254.008 10.4765 254.448 11.1642 254.934 11.8079C255.418 12.4479 255.949 13.0447 256.518 13.5948C259.084 16.0748 262.457 17.5821 266.153 17.5821C269.824 17.5821 273.177 16.0971 275.735 13.6476C276.325 13.0834 276.872 12.4681 277.371 11.8079C277.843 11.1841 278.27 10.5187 278.651 9.82044L275.043 6.57255C274.709 7.30649 274.303 7.99414 273.833 8.62246C273.334 9.28815 272.762 9.88526 272.134 10.4055Z" fill="white"/>
</g>
</g>
</g>
<path d="M25.015 63.221C24.1537 63.221 23.4057 63.1587 22.771 63.034C22.1477 62.9207 21.5583 62.728 21.003 62.456V59.838C21.5243 60.2573 22.1137 60.5747 22.771 60.79C23.4283 61.0053 24.0573 61.113 24.658 61.113C25.1567 61.113 25.5477 61.0167 25.831 60.824C26.1143 60.6313 26.256 60.3253 26.256 59.906C26.256 59.6 26.1257 59.3563 25.865 59.175C25.6157 58.9937 25.2757 58.8293 24.845 58.682C24.4257 58.5347 23.961 58.3703 23.451 58.189C23.009 58.0417 22.584 57.849 22.176 57.611C21.7793 57.373 21.4507 57.05 21.19 56.642C20.9407 56.234 20.816 55.69 20.816 55.01C20.816 54.3867 20.969 53.803 21.275 53.259C21.581 52.7037 22.057 52.256 22.703 51.916C23.349 51.576 24.1763 51.406 25.185 51.406C25.8763 51.406 26.46 51.4683 26.936 51.593C27.4233 51.7177 27.9277 51.9047 28.449 52.154V54.789C28.0523 54.483 27.5933 54.2053 27.072 53.956C26.562 53.7067 26.0237 53.565 25.457 53.531C24.9357 53.5083 24.4993 53.5933 24.148 53.786C23.7967 53.9787 23.621 54.279 23.621 54.687C23.621 55.0043 23.7173 55.2537 23.91 55.435C24.1027 55.6163 24.3633 55.7693 24.692 55.894C25.032 56.0073 25.4173 56.132 25.848 56.268C26.46 56.4493 27.0097 56.6647 27.497 56.914C27.9843 57.1633 28.3697 57.4977 28.653 57.917C28.9363 58.3363 29.078 58.886 29.078 59.566C29.078 60.2573 28.9193 60.8807 28.602 61.436C28.2847 61.98 27.82 62.4163 27.208 62.745C26.6073 63.0623 25.8763 63.221 25.015 63.221ZM34.4525 63.34C33.4552 63.34 32.7129 63.1077 32.2255 62.643C31.7382 62.167 31.4945 61.4983 31.4945 60.637V56.336H30.2365V54.398H31.4945V52.035H34.1465V54.398H36.0335V56.336H34.1465V60.314C34.1465 60.6087 34.2089 60.8297 34.3335 60.977C34.4582 61.113 34.6679 61.181 34.9625 61.181C35.3592 61.181 35.7162 61.062 36.0335 60.824V62.983C35.7842 63.119 35.5235 63.2097 35.2515 63.255C34.9795 63.3117 34.7132 63.34 34.4525 63.34ZM41.271 63.255C40.5683 63.255 39.9337 63.17 39.367 63C38.8003 62.8187 38.347 62.5183 38.007 62.099C37.667 61.6683 37.497 61.0733 37.497 60.314C37.497 59.5207 37.7463 58.886 38.245 58.41C38.7437 57.9227 39.52 57.679 40.574 57.679C41.016 57.679 41.441 57.7357 41.849 57.849C42.2683 57.9623 42.6253 58.0983 42.92 58.257V57.713C42.92 57.1917 42.75 56.8177 42.41 56.591C42.0813 56.353 41.6167 56.234 41.016 56.234C40.506 56.234 39.996 56.3247 39.486 56.506C38.976 56.676 38.5737 56.8857 38.279 57.135V54.891C38.551 54.7097 38.9987 54.5397 39.622 54.381C40.2567 54.2223 40.9537 54.143 41.713 54.143C42.0417 54.143 42.4157 54.1827 42.835 54.262C43.2657 54.33 43.6793 54.4717 44.076 54.687C44.4727 54.891 44.7957 55.1913 45.045 55.588C45.3057 55.9847 45.436 56.506 45.436 57.152L45.419 61.215C45.4077 61.9517 45.0393 62.4787 44.314 62.796C43.5887 63.102 42.5743 63.255 41.271 63.255ZM40.013 60.365C40.013 60.705 40.149 60.977 40.421 61.181C40.7043 61.3737 41.016 61.47 41.356 61.47C41.934 61.47 42.3363 61.4303 42.563 61.351C42.801 61.2717 42.92 61.113 42.92 60.875V59.549C42.512 59.413 42.0757 59.345 41.611 59.345C40.5457 59.345 40.013 59.685 40.013 60.365ZM50.2005 63H47.6845V51.151H50.2345L50.2175 57.577L52.8185 54.398H55.8955L52.3425 58.138L56.1165 63H52.9035L50.2005 59.447V63ZM57.6786 53.225V51.27H60.2966V53.225H57.6786ZM57.7296 63V54.517H60.2626L60.2796 63H57.7296ZM62.5429 55.129C62.8262 54.9703 63.2229 54.8173 63.7329 54.67C64.2542 54.5227 64.8039 54.4037 65.3819 54.313C65.9712 54.211 66.5096 54.16 66.9969 54.16C68.1529 54.16 69.0482 54.3867 69.6829 54.84C70.3289 55.2933 70.6519 56.0867 70.6519 57.22V63H68.1189V57.73C68.1189 57.288 67.9942 56.931 67.7449 56.659C67.4956 56.387 67.0649 56.251 66.4529 56.251C66.1922 56.251 65.9316 56.285 65.6709 56.353C65.4102 56.4097 65.2119 56.472 65.0759 56.54V63H62.5429V55.129ZM76.2003 63.255C75.0329 63.1983 74.1093 62.8243 73.4293 62.133C72.7606 61.4417 72.4263 60.3877 72.4263 58.971C72.4263 57.7017 72.6303 56.7213 73.0383 56.03C73.4463 55.3273 74.0129 54.84 74.7383 54.568C75.4749 54.296 76.3306 54.16 77.3053 54.16C78.3819 54.16 79.2433 54.364 79.8893 54.772C80.5353 55.1687 80.8583 55.7353 80.8583 56.472V63.102C80.8583 64.3033 80.4729 65.2157 79.7023 65.839C78.9429 66.4623 77.8663 66.774 76.4723 66.774C75.7129 66.774 75.0613 66.723 74.5173 66.621C73.9846 66.519 73.5766 66.3887 73.2933 66.23V64.003C73.4633 64.0823 73.7126 64.173 74.0413 64.275C74.3699 64.3883 74.7383 64.479 75.1463 64.547C75.5543 64.6263 75.9623 64.666 76.3703 64.666C77.1523 64.666 77.6793 64.5073 77.9513 64.19C78.2346 63.884 78.3763 63.4873 78.3763 63V62.524C78.1043 62.7507 77.7926 62.9263 77.4413 63.051C77.0899 63.187 76.6763 63.255 76.2003 63.255ZM76.8463 61.351C77.4243 61.351 77.9343 61.2263 78.3763 60.977V57.033C78.3763 56.6703 78.2346 56.438 77.9513 56.336C77.6679 56.2227 77.3563 56.166 77.0163 56.166C76.2343 56.166 75.6903 56.4153 75.3843 56.914C75.0896 57.4127 74.9423 58.0473 74.9423 58.818C74.9423 59.6 75.1179 60.2177 75.4693 60.671C75.8206 61.1243 76.2796 61.351 76.8463 61.351ZM87.4737 63V60.994L93.0497 53.82H87.5587V51.661H96.3817V53.633L90.9247 60.858H96.3817V63H87.4737ZM97.5511 63L101.835 51.661H104.844L108.856 63H106.034L105.201 60.552H100.968L100.152 63H97.5511ZM101.631 58.529H104.521L103.059 54.228L101.631 58.529ZM110.291 63V51.661H113.096L116.275 56.081L119.522 51.661H122.259V63H119.505V55.316L116.173 59.77L112.926 55.333V63H110.291ZM26.426 83.34C24.6807 83.34 23.3717 82.9717 22.499 82.235C21.6377 81.4983 21.207 80.3423 21.207 78.767V71.661H24.08V78.648C24.08 79.5207 24.2557 80.1667 24.607 80.586C24.9583 81.0053 25.5193 81.215 26.29 81.215C26.9927 81.215 27.5367 81.0053 27.922 80.586C28.3187 80.1667 28.517 79.5207 28.517 78.648V71.661H31.135V78.767C31.135 79.821 30.931 80.688 30.523 81.368C30.1263 82.0367 29.571 82.5353 28.857 82.864C28.1543 83.1813 27.344 83.34 26.426 83.34ZM38.098 83.255C37.894 83.255 37.5766 83.2323 37.146 83.187C36.7266 83.1417 36.3243 83.0113 35.939 82.796V86.077H33.457V76.217C33.457 75.7297 33.644 75.333 34.018 75.027C34.392 74.721 34.885 74.4943 35.497 74.347C36.1203 74.1883 36.806 74.109 37.554 74.109C38.404 74.109 39.1576 74.2563 39.815 74.551C40.4723 74.8343 40.9823 75.316 41.345 75.996C41.719 76.676 41.906 77.6053 41.906 78.784C41.906 79.668 41.753 80.45 41.447 81.13C41.1523 81.7987 40.716 82.32 40.138 82.694C39.5713 83.068 38.8913 83.255 38.098 83.255ZM37.35 81.215C38.0186 81.215 38.523 81.028 38.863 80.654C39.203 80.28 39.373 79.6283 39.373 78.699C39.373 77.917 39.237 77.3107 38.965 76.88C38.693 76.4493 38.1886 76.234 37.452 76.234C36.908 76.234 36.517 76.2907 36.279 76.404C36.0523 76.506 35.939 76.642 35.939 76.812V80.858C36.1543 80.9827 36.3866 81.0733 36.636 81.13C36.8966 81.1867 37.1346 81.215 37.35 81.215ZM51.8842 83.34C50.8868 83.34 50.1445 83.1077 49.6572 82.643C49.1698 82.167 48.9262 81.4983 48.9262 80.637V76.336H47.6682V74.398H48.9262V72.035H51.5782V74.398H53.4652V76.336H51.5782V80.314C51.5782 80.6087 51.6405 80.8297 51.7652 80.977C51.8898 81.113 52.0995 81.181 52.3942 81.181C52.7908 81.181 53.1478 81.062 53.4652 80.824V82.983C53.2158 83.119 52.9552 83.2097 52.6832 83.255C52.4112 83.3117 52.1448 83.34 51.8842 83.34ZM59.2636 83.255C56.351 83.255 54.9003 81.725 54.9116 78.665C54.9116 77.0443 55.28 75.8827 56.0166 75.18C56.7533 74.466 57.8356 74.109 59.2636 74.109C60.703 74.109 61.7966 74.4773 62.5446 75.214C63.2926 75.9393 63.6666 77.0897 63.6666 78.665C63.6666 80.1723 63.287 81.317 62.5276 82.099C61.7683 82.8697 60.6803 83.255 59.2636 83.255ZM59.2636 81.232C59.887 81.232 60.3573 81.0167 60.6746 80.586C60.992 80.144 61.1506 79.5037 61.1506 78.665C61.1506 77.713 60.9863 77.05 60.6576 76.676C60.3403 76.302 59.8756 76.115 59.2636 76.115C58.6176 76.115 58.1473 76.3077 57.8526 76.693C57.558 77.0783 57.4106 77.7357 57.4106 78.665C57.4106 79.5263 57.558 80.1723 57.8526 80.603C58.1586 81.0223 58.629 81.232 59.2636 81.232Z" fill="white"/>
<path d="M74.3632 83.204C72.7879 83.204 71.6205 82.8923 70.8612 82.269C70.1019 81.6343 69.7222 80.8127 69.7222 79.804C69.7222 79.2827 69.8242 78.8463 70.0282 78.495C70.2435 78.1323 70.4985 77.8433 70.7932 77.628C71.0992 77.4013 71.3825 77.237 71.6432 77.135C71.4392 77.033 71.2125 76.8857 70.9632 76.693C70.7139 76.489 70.4985 76.2283 70.3172 75.911C70.1359 75.5823 70.0452 75.18 70.0452 74.704C70.0452 73.6613 70.3909 72.8567 71.0822 72.29C71.7849 71.7233 72.8785 71.44 74.3632 71.44C75.8479 71.44 76.9359 71.7233 77.6272 72.29C78.3299 72.8567 78.6812 73.6613 78.6812 74.704C78.6812 75.18 78.5905 75.5823 78.4092 75.911C78.2279 76.2283 78.0125 76.489 77.7632 76.693C77.5139 76.8857 77.2872 77.0273 77.0832 77.118C77.3439 77.2313 77.6215 77.4013 77.9162 77.628C78.2222 77.8433 78.4772 78.1323 78.6812 78.495C78.8965 78.8463 79.0042 79.2827 79.0042 79.804C79.0042 80.8127 78.6245 81.6343 77.8652 82.269C77.1059 82.8923 75.9385 83.204 74.3632 83.204ZM74.3632 76.336C74.7145 76.336 75.0489 76.2227 75.3662 75.996C75.6949 75.7693 75.8592 75.4293 75.8592 74.976C75.8592 74.568 75.7119 74.2393 75.4172 73.99C75.1339 73.7293 74.7825 73.599 74.3632 73.599C73.9439 73.599 73.5869 73.7293 73.2922 73.99C73.0089 74.2393 72.8672 74.568 72.8672 74.976C72.8672 75.4293 73.0259 75.7693 73.3432 75.996C73.6719 76.2227 74.0119 76.336 74.3632 76.336ZM74.3632 81.062C74.8165 81.062 75.1679 80.9713 75.4172 80.79C75.6779 80.5973 75.8535 80.3707 75.9442 80.11C76.0462 79.838 76.0972 79.583 76.0972 79.345C76.0972 78.971 75.9499 78.6367 75.6552 78.342C75.3605 78.036 74.9299 77.883 74.3632 77.883C73.7965 77.883 73.3659 78.036 73.0712 78.342C72.7765 78.6367 72.6292 78.971 72.6292 79.345C72.6292 79.583 72.6745 79.838 72.7652 80.11C72.8672 80.3707 73.0429 80.5973 73.2922 80.79C73.5529 80.9713 73.9099 81.062 74.3632 81.062ZM83.9828 83.204C83.4275 83.204 82.9402 83.1587 82.5208 83.068C82.1015 82.9887 81.7672 82.8923 81.5178 82.779V80.484C81.8578 80.6427 82.2035 80.7673 82.5548 80.858C82.9062 80.9487 83.3142 80.994 83.7788 80.994C84.6628 80.994 85.3655 80.739 85.8868 80.229C86.4195 79.719 86.7312 78.954 86.8218 77.934C86.5725 78.24 86.2495 78.5063 85.8528 78.733C85.4562 78.9597 84.9688 79.073 84.3908 79.073C81.7728 79.0617 80.4638 77.7923 80.4638 75.265C80.4638 74.5397 80.6338 73.888 80.9738 73.31C81.3138 72.732 81.8125 72.2787 82.4698 71.95C83.1272 71.61 83.9375 71.44 84.9008 71.44C86.5555 71.44 87.7512 71.9103 88.4878 72.851C89.2245 73.7803 89.5928 75.1233 89.5928 76.88C89.5928 78.0133 89.4625 78.9597 89.2018 79.719C88.9525 80.4783 88.6125 81.0903 88.1818 81.555C87.7625 82.0197 87.3035 82.371 86.8048 82.609C86.3062 82.847 85.8075 83.0057 85.3088 83.085C84.8215 83.1643 84.3795 83.204 83.9828 83.204ZM83.2518 75.333C83.2518 75.911 83.3935 76.3473 83.6768 76.642C83.9715 76.9253 84.3738 77.067 84.8838 77.067C85.3825 77.067 85.7792 76.965 86.0738 76.761C86.3798 76.5457 86.6065 76.2453 86.7538 75.86C86.6745 75.248 86.5498 74.789 86.3798 74.483C86.2098 74.177 85.9945 73.9673 85.7338 73.854C85.4845 73.7407 85.2068 73.684 84.9008 73.684C84.4928 73.684 84.1642 73.769 83.9148 73.939C83.6768 74.0977 83.5068 74.3017 83.4048 74.551C83.3028 74.8003 83.2518 75.061 83.2518 75.333ZM93.6206 77.713C92.6346 77.713 91.9206 77.4523 91.4786 76.931C91.0366 76.4097 90.8156 75.6277 90.8156 74.585C90.8156 73.5537 91.0366 72.7773 91.4786 72.256C91.9206 71.7233 92.6346 71.457 93.6206 71.457C94.618 71.457 95.332 71.7233 95.7626 72.256C96.2046 72.7773 96.4256 73.5537 96.4256 74.585C96.4256 75.6277 96.2046 76.4097 95.7626 76.931C95.332 77.4523 94.618 77.713 93.6206 77.713ZM93.6206 76.268C93.768 76.268 93.9153 76.2283 94.0626 76.149C94.2213 76.0697 94.3516 75.911 94.4536 75.673C94.5556 75.4237 94.6066 75.061 94.6066 74.585C94.6066 74.1203 94.5556 73.769 94.4536 73.531C94.3516 73.2817 94.2213 73.1173 94.0626 73.038C93.9153 72.9473 93.768 72.902 93.6206 72.902C93.4846 72.902 93.3373 72.9473 93.1786 73.038C93.02 73.1173 92.884 73.2817 92.7706 73.531C92.6686 73.769 92.6176 74.1203 92.6176 74.585C92.6176 75.061 92.6686 75.4237 92.7706 75.673C92.884 75.911 93.02 76.0697 93.1786 76.149C93.3373 76.2283 93.4846 76.268 93.6206 76.268ZM101.135 83.187C100.149 83.187 99.4346 82.9263 98.9926 82.405C98.5506 81.8837 98.3296 81.1017 98.3296 80.059C98.3296 79.0277 98.5506 78.2513 98.9926 77.73C99.4346 77.1973 100.149 76.931 101.135 76.931C102.132 76.931 102.846 77.1973 103.277 77.73C103.719 78.2513 103.94 79.0277 103.94 80.059C103.94 81.1017 103.719 81.8837 103.277 82.405C102.846 82.9263 102.132 83.187 101.135 83.187ZM101.135 81.742C101.282 81.742 101.429 81.7023 101.577 81.623C101.735 81.5437 101.866 81.385 101.968 81.147C102.07 80.8977 102.121 80.535 102.121 80.059C102.121 79.5943 102.07 79.243 101.968 79.005C101.866 78.7557 101.735 78.5913 101.577 78.512C101.429 78.4213 101.282 78.376 101.135 78.376C100.999 78.376 100.851 78.4213 100.693 78.512C100.534 78.5913 100.398 78.7557 100.285 79.005C100.183 79.243 100.132 79.5943 100.132 80.059C100.132 80.535 100.183 80.8977 100.285 81.147C100.398 81.385 100.534 81.5437 100.693 81.623C100.851 81.7023 100.999 81.742 101.135 81.742ZM92.9746 83.374L99.8936 71.355H101.713L94.7936 83.374H92.9746ZM109.288 83L113.572 71.661H116.581L120.593 83H117.771L116.938 80.552H112.705L111.889 83H109.288ZM113.368 78.529H116.258L114.796 74.228L113.368 78.529ZM124.782 79.277V83H122.028V71.661H127.128C128.454 71.661 129.497 71.9613 130.256 72.562C131.016 73.1627 131.395 74.092 131.395 75.35C131.395 76.608 131.016 77.577 130.256 78.257C129.497 78.937 128.454 79.277 127.128 79.277H124.782ZM124.782 77.152H126.788C127.378 77.152 127.797 76.999 128.046 76.693C128.296 76.387 128.42 76.0017 128.42 75.537C128.42 75.0157 128.296 74.5963 128.046 74.279C127.797 73.9617 127.378 73.803 126.788 73.803H124.782V77.152ZM133.317 83V71.661H138.842C140.123 71.661 141.126 71.9613 141.851 72.562C142.577 73.1513 142.939 74.0467 142.939 75.248C142.939 75.724 142.849 76.1887 142.667 76.642C142.497 77.084 142.237 77.4807 141.885 77.832C141.545 78.172 141.12 78.4157 140.61 78.563L143.517 83H140.015L137.771 79.09H136.071V83H133.317ZM136.071 77.067H138.383C138.871 77.067 139.256 76.9367 139.539 76.676C139.823 76.4153 139.964 75.9847 139.964 75.384C139.964 74.8627 139.84 74.466 139.59 74.194C139.341 73.922 138.978 73.786 138.502 73.786H136.071V77.067Z" fill="#38FA87"/>
<defs>
<filter id="filter0_b_4537_6895" x="-48" y="-48" width="389" height="200" filterUnits="userSpaceOnUse" color-interpolation-filters="sRGB">
<feFlood flood-opacity="0" result="BackgroundImageFix"/>
<feGaussianBlur in="BackgroundImage" stdDeviation="24"/>
<feComposite in2="SourceAlpha" operator="in" result="effect1_backgroundBlur_4537_6895"/>
<feBlend mode="normal" in="SourceGraphic" in2="effect1_backgroundBlur_4537_6895" result="shape"/>
</filter>
<filter id="filter1_f_4537_6895" x="-139.254" y="-29.2535" width="569.507" height="478.507" filterUnits="userSpaceOnUse" color-interpolation-filters="sRGB">
<feFlood flood-opacity="0" result="BackgroundImageFix"/>
<feBlend mode="normal" in="SourceGraphic" in2="BackgroundImageFix" result="shape"/>
<feGaussianBlur stdDeviation="29.1268" result="effect1_foregroundBlur_4537_6895"/>
</filter>
<filter id="filter2_f_4537_6895" x="51.7465" y="-339.254" width="569.507" height="456.507" filterUnits="userSpaceOnUse" color-interpolation-filters="sRGB">
<feFlood flood-opacity="0" result="BackgroundImageFix"/>
<feBlend mode="normal" in="SourceGraphic" in2="BackgroundImageFix" result="shape"/>
<feGaussianBlur stdDeviation="29.1268" result="effect1_foregroundBlur_4537_6895"/>
</filter>
<filter id="filter3_d_4537_6895" x="153.259" y="-5.14815" width="133.778" height="133.778" filterUnits="userSpaceOnUse" color-interpolation-filters="sRGB">
<feFlood flood-opacity="0" result="BackgroundImageFix"/>
<feColorMatrix in="SourceAlpha" type="matrix" values="0 0 0 0 0 0 0 0 0 0 0 0 0 0 0 0 0 0 127 0" result="hardAlpha"/>
<feOffset dx="11.1481" dy="12.7407"/>
<feGaussianBlur stdDeviation="11.9444"/>
<feComposite in2="hardAlpha" operator="out"/>
<feColorMatrix type="matrix" values="0 0 0 0 0.176471 0 0 0 0 0.980392 0 0 0 0 0.835686 0 0 0 0.44 0"/>
<feBlend mode="normal" in2="BackgroundImageFix" result="effect1_dropShadow_4537_6895"/>
<feBlend mode="normal" in="SourceGraphic" in2="effect1_dropShadow_4537_6895" result="shape"/>
</filter>
<linearGradient id="paint0_linear_4537_6895" x1="53.4058" y1="-76.21" x2="-27.0143" y2="1.81858" gradientUnits="userSpaceOnUse">
<stop stop-color="#31E566"/>
<stop offset="1" stop-color="#00C6FE"/>
</linearGradient>
<linearGradient id="paint1_linear_4537_6895" x1="12" y1="-32.6492" x2="84.3781" y2="39.7289" gradientUnits="userSpaceOnUse">
<stop stop-color="#65FF90"/>
<stop offset="1" stop-color="#5FFF95" stop-opacity="0"/>
</linearGradient>
<linearGradient id="paint2_linear_4537_6895" x1="210.279" y1="-37" x2="124.279" y2="46.4426" gradientUnits="userSpaceOnUse">
<stop stop-color="#31E566"/>
<stop offset="1" stop-color="#00C6FE"/>
</linearGradient>
<linearGradient id="paint3_linear_4537_6895" x1="166" y1="9.58333" x2="243.4" y2="86.9833" gradientUnits="userSpaceOnUse">
<stop stop-color="#65FF90"/>
<stop offset="1" stop-color="#5FFF95" stop-opacity="0"/>
</linearGradient>
<linearGradient id="paint4_linear_4537_6895" x1="149.416" y1="3" x2="121.416" y2="30.1674" gradientUnits="userSpaceOnUse">
<stop stop-color="#31E566"/>
<stop offset="1" stop-color="#00C6FE"/>
</linearGradient>
<linearGradient id="paint5_linear_4537_6895" x1="135" y1="18.1667" x2="160.2" y2="43.3667" gradientUnits="userSpaceOnUse">
<stop stop-color="#65FF90"/>
<stop offset="1" stop-color="#5FFF95" stop-opacity="0"/>
</linearGradient>
<linearGradient id="paint6_linear_4537_6895" x1="266.311" y1="-31.7534" x2="228.804" y2="4.63808" gradientUnits="userSpaceOnUse">
<stop stop-color="#31E566"/>
<stop offset="1" stop-color="#00C6FE"/>
</linearGradient>
<linearGradient id="paint7_linear_4537_6895" x1="247" y1="-11.4372" x2="280.756" y2="22.319" gradientUnits="userSpaceOnUse">
<stop stop-color="#65FF90"/>
<stop offset="1" stop-color="#5FFF95" stop-opacity="0"/>
</linearGradient>
</defs>
</svg>
