<svg width="64" height="65" viewBox="0 0 64 65" fill="none" xmlns="http://www.w3.org/2000/svg">
<path d="M63.0422 39.8135C58.7677 56.9563 41.4029 67.3892 24.256 63.1142C7.11622 58.8403 -3.31789 41.4764 0.958563 24.3346C5.23102 7.18979 22.5959 -3.24411 39.7377 1.02985C56.8835 5.30381 67.3166 22.6696 63.0422 39.8135Z" fill="url(#paint0_linear_3668:2076)"/>
<path d="M63.0422 39.8135C58.7677 56.9563 41.4029 67.3892 24.256 63.1142C7.11622 58.8403 -3.31789 41.4764 0.958563 24.3346C5.23102 7.18979 22.5959 -3.24411 39.7377 1.02985C56.8835 5.30381 67.3166 22.6696 63.0422 39.8135Z" fill="#07D2DF"/>
<path d="M63.0422 39.8135C58.7677 56.9563 41.4029 67.3892 24.256 63.1142C7.11622 58.8403 -3.31789 41.4764 0.958563 24.3346C5.23102 7.18979 22.5959 -3.24411 39.7377 1.02985C56.8835 5.30381 67.3166 22.6696 63.0422 39.8135Z" fill="url(#paint1_linear_3668:2076)"/>
<mask id="mask0_3668:2076" style="mask-type:alpha" maskUnits="userSpaceOnUse" x="11" y="11" width="44" height="34">
<path fill-rule="evenodd" clip-rule="evenodd" d="M11.2935 11.6689H54.0076V44.988H11.2935V11.6689Z" fill="white"/>
</mask>
<g mask="url(#mask0_3668:2076)">
<path fill-rule="evenodd" clip-rule="evenodd" d="M49.0602 18.4733C48.8235 18.2445 48.5815 18.0239 48.3378 17.805C46.1976 15.889 43.7582 14.3592 41.1084 13.3046C38.4598 12.2507 35.6024 11.6689 32.6191 11.6689C26.3551 11.6689 20.634 14.203 16.2678 18.3826C15.2621 19.3453 14.3281 20.3952 13.4763 21.5218C12.6717 22.5863 11.9441 23.7216 11.2935 24.9131L17.4495 30.4552C18.0197 29.2028 18.7118 28.0294 19.5146 26.9573C20.3658 25.8214 21.3418 24.8025 22.4134 23.9147C25.2632 21.5522 28.8137 20.1447 32.6686 20.1447C32.938 20.1447 33.2021 20.1681 33.4685 20.1816C36.6909 20.346 39.6748 21.4866 42.1829 23.3453C42.4494 23.5431 42.717 23.7392 42.9729 23.9522L23.1182 41.8237C25.627 43.6824 28.6103 44.8236 31.8332 44.988L47.914 30.5125L54.0077 25.0272C53.3419 23.7936 52.5927 22.6202 51.7619 21.5218C50.9358 20.4297 50.0309 19.4114 49.0602 18.4733Z" fill="white"/>
</g>
<mask id="mask1_3668:2076" style="mask-type:alpha" maskUnits="userSpaceOnUse" x="11" y="18" width="44" height="35">
<path fill-rule="evenodd" clip-rule="evenodd" d="M11.2944 18.9336H54.0086V52.2526H11.2944V18.9336Z" fill="white"/>
</mask>
<g mask="url(#mask1_3668:2076)">
<path fill-rule="evenodd" clip-rule="evenodd" d="M42.8888 40.0069C40.039 42.3694 36.4884 43.7763 32.6335 43.7763C29.9434 43.7763 27.4073 43.0787 25.1475 41.862C24.7388 41.6396 24.4351 41.4606 24.136 41.2709C24.0946 41.2446 24.0538 41.2177 24.0124 41.1914C23.7086 40.9953 23.4107 40.7922 23.1198 40.5763C22.8528 40.3785 22.5852 40.1824 22.3298 39.9694L42.1839 22.0979C39.6758 20.2392 36.6919 19.098 33.4695 18.9336L17.3881 33.4091L11.2944 38.8944C11.9602 40.128 12.71 41.3014 13.5402 42.3998C14.3664 43.4919 15.2718 44.5102 16.2425 45.4488C20.6204 49.6806 26.3759 52.2526 32.683 52.2526C38.947 52.2526 44.6687 49.7186 49.0344 45.539C50.0401 44.5763 50.9741 43.5264 51.8258 42.3998C52.631 41.3353 53.3586 40.2 54.0087 39.0085L47.8526 33.4664C47.283 34.7188 46.5903 35.8922 45.7875 36.9643C44.9363 38.1002 43.9609 39.1191 42.8888 40.0069Z" fill="white"/>
</g>
<defs>
<linearGradient id="paint0_linear_3668:2076" x1="32.9516" y1="-31.9277" x2="-31.0484" y2="30.1691" gradientUnits="userSpaceOnUse">
<stop stop-color="#31E566"/>
<stop offset="1" stop-color="#00C6FE"/>
</linearGradient>
<linearGradient id="paint1_linear_3668:2076" x1="-7.29561e-06" y1="2.73893" x2="57.6" y2="60.3389" gradientUnits="userSpaceOnUse">
<stop stop-color="#65FF90"/>
<stop offset="1" stop-color="#5FFF95" stop-opacity="0"/>
</linearGradient>
</defs>
</svg>
