<svg width="64" height="64" viewBox="0 0 64 64" fill="none" xmlns="http://www.w3.org/2000/svg">
<path d="M63.0478 39.7403C60.989 47.9741 55.7466 55.0542 48.4721 59.4253C41.1975 63.7965 32.4856 65.1014 24.2498 63.0535C20.1724 62.0358 16.3355 60.2249 12.958 57.7241C9.58053 55.2233 6.72871 52.0816 4.56539 48.4784C2.40208 44.8753 0.96964 40.8812 0.349882 36.7244C-0.269876 32.5675 -0.0648147 28.3293 0.953352 24.2517C1.96929 20.1746 3.77852 16.3376 6.27766 12.9599C8.77681 9.58223 11.9169 6.73011 15.5185 4.56648C19.1202 2.40285 23.1127 0.970112 27.2682 0.350118C31.4237 -0.269877 35.6606 -0.0649799 39.7368 0.95311C47.9688 3.00885 55.048 8.24885 59.419 15.5217C63.79 22.7946 65.0952 31.5055 63.0478 39.7403Z" fill="url(#paint0_linear_3725:1973)"/>
<path d="M63.0478 39.7403C60.989 47.9741 55.7466 55.0542 48.4721 59.4253C41.1975 63.7965 32.4856 65.1014 24.2498 63.0535C20.1724 62.0358 16.3355 60.2249 12.958 57.7241C9.58053 55.2233 6.72871 52.0816 4.56539 48.4784C2.40208 44.8753 0.96964 40.8812 0.349882 36.7244C-0.269876 32.5675 -0.0648147 28.3293 0.953352 24.2517C1.96929 20.1746 3.77852 16.3376 6.27766 12.9599C8.77681 9.58223 11.9169 6.73011 15.5185 4.56648C19.1202 2.40285 23.1127 0.970112 27.2682 0.350118C31.4237 -0.269877 35.6606 -0.0649799 39.7368 0.95311C47.9688 3.00885 55.048 8.24885 59.419 15.5217C63.79 22.7946 65.0952 31.5055 63.0478 39.7403Z" fill="#07D2DF"/>
<path d="M0.953352 24.2517C1.96929 20.1746 3.77852 16.3376 6.27766 12.9599C8.77681 9.58223 11.9169 6.73011 15.5185 4.56648C19.1202 2.40285 23.1127 0.970112 27.2682 0.350118C31.4237 -0.269877 35.6606 -0.0649799 39.7368 0.95311C43.8149 1.96756 47.6531 3.7758 51.0321 6.2745C54.411 8.7732 57.2645 11.9134 59.4294 15.5155C61.5943 19.1176 63.0281 23.1112 63.649 27.2678C64.2699 31.4244 64.0656 35.6626 63.0478 39.7403C60.989 47.9741 55.7466 55.0542 48.4721 59.4253C41.1975 63.7965 32.4856 65.1014 24.2498 63.0535C20.1724 62.0358 16.3355 60.2249 12.958 57.7241C9.58053 55.2233 6.72871 52.0816 4.56539 48.4784C2.40208 44.8753 0.96964 40.8812 0.349882 36.7244C-0.269876 32.5675 -0.0648147 28.3293 0.953352 24.2517Z" fill="url(#paint1_linear_3725:1973)"/>
<path d="M49.9444 19.952L44.1971 25.6999C44.3579 25.9339 44.5334 26.1679 44.6797 26.4165C45.4428 27.6514 45.9431 29.0303 46.1495 30.4672C46.3558 31.9041 46.2637 33.3681 45.8788 34.7678C45.1071 37.384 43.4798 39.6655 41.2576 41.2469V13.546C40.0084 13.0225 38.7167 12.6066 37.3968 12.3028C35.9062 11.9724 34.3889 11.7766 32.8633 11.7178V52.26C42.5299 51.9236 51.1728 45.8686 53.6297 36.9031C54.4235 33.9895 54.503 30.9274 53.8614 27.9765C53.2199 25.0256 51.8762 22.2729 49.9444 19.952Z" fill="white"/>
<path d="M31.1237 19.7755V11.7314C28.2246 11.8213 25.3657 12.4358 22.6856 13.545V41.2313C21.3134 40.2519 20.1501 39.0089 19.2635 37.5749C18.4959 36.3393 17.993 34.9578 17.7866 33.5178C17.5802 32.0778 17.6747 30.6106 18.0643 29.2091C18.4109 27.948 18.9805 26.7592 19.7461 25.6989L13.9988 19.951C12.279 22.0446 11.0185 24.4763 10.2988 27.0884C7.37399 37.9552 14.5984 49.0268 26.5464 51.674C28.0308 52.0115 29.5438 52.2074 31.0652 52.2591V19.7755H31.1237Z" fill="white"/>
<defs>
<linearGradient id="paint0_linear_3725:1973" x1="20045.4" y1="2084.48" x2="17244.2" y2="-632.693" gradientUnits="userSpaceOnUse">
<stop stop-color="#31E566"/>
<stop offset="1" stop-color="#00C6FE"/>
</linearGradient>
<linearGradient id="paint1_linear_3725:1973" x1="62.6676" y1="62.6733" x2="5.05726" y2="5.05378" gradientUnits="userSpaceOnUse">
<stop stop-color="#8F56FF"/>
<stop offset="1" stop-color="#8F56FF" stop-opacity="0"/>
</linearGradient>
</defs>
</svg>
