<svg xmlns="http://www.w3.org/2000/svg" viewBox="0 0 64 64"><title>icon_token_weth</title><rect width="64" height="64" style="fill:none"/><circle cx="32" cy="32" r="32" style="fill:#fefefe"/><path d="M17.62,44.58a18.47,18.47,0,0,1-5.3-7.92A18.26,18.26,0,0,1,31,12.43c8.33.64,15.46,4.3,19.79,11.72,6.6,11.3-.5,25.32-13.44,27.22a61.59,61.59,0,0,1-11.81.89,32.12,32.12,0,0,1-11-1.94c-1.09-.45-2.38-.92-2.44-2.29s1.3-1.85,2.34-2.33A32.67,32.67,0,0,1,17.62,44.58Zm17.2-28.33a16.91,16.91,0,1,0,17,16.89A16.92,16.92,0,0,0,34.82,16.25Zm.46-1.62A20.86,20.86,0,0,0,27.15,14a17.1,17.1,0,0,0-14,13.47.82.82,0,0,0,.54,1c1,.45,2,1,3,1.45C19.11,20.38,25.27,15.3,35.28,14.63ZM12.88,29.82A13.92,13.92,0,0,0,13.15,34a1.1,1.1,0,0,0,.65,1c1,.39,1.89.87,2.95,1.37a16.16,16.16,0,0,1-.25-4c0-.44-.05-.76-.52-1C15,30.91,14,30.39,12.88,29.82ZM14,36.74c1.05,3.21,4.31,7.19,6.21,7.61a19.14,19.14,0,0,1-2.93-5.65,1.15,1.15,0,0,0-.7-.77Z" style="fill:#160f11"/><path d="M34.82,16.25A16.91,16.91,0,1,1,18,33.24,16.92,16.92,0,0,1,34.82,16.25ZM27.31,34.4l-.19,0c-.28-1.51-.59-3-.81-4.52-.08-.59-.37-.65-.81-.6s-.95-.26-1,.53a5.3,5.3,0,0,1-.23,1.31c-.27.93-.14,2-.81,3a35.45,35.45,0,0,1-.74-3.66C22.63,29.2,22,29,20.92,29.34c.59,2.39,1.17,4.78,1.77,7.17.11.45.17.87.9.86s.75-.38.84-.86c.29-1.59.59-3.17.89-4.75.44,1.6.72,3.19,1,4.78.08.46.18.84.82.81s.82-.1,1-.75c.54-2.43,1.19-4.84,1.79-7.28-1.45-.13-1.45-.13-1.73,1.13S27.6,33.08,27.31,34.4Zm3.56-1.16c0,1.14,0,2.28,0,3.42,0,.54.18.69.7.68,1.3,0,2.61,0,3.91,0,.58,0,.78-.15.78-.75s-.23-.77-.8-.74c-.81,0-1.63,0-2.44,0-.51,0-.69-.13-.72-.67-.06-1,.06-1.59,1.27-1.37.47.08,1,0,1.46,0,.65,0,.71-.3.73-.82s-.31-.64-.76-.63-1.06,0-1.59,0-1.13,0-1.13-.91.54-.79,1.09-.8,1.3,0,2,0,.78-.14.78-.74-.2-.76-.77-.74c-1.22,0-2.45.05-3.67,0-.68,0-.81.24-.79.84C30.9,31.12,30.87,32.18,30.87,33.24Zm18.21,0c0-1.14,0-2.28,0-3.42,0-.45-.11-.6-.6-.66-1.14-.14-.83.63-.89,1.22-.09.86.57,2.08-1.29,2-1.18-.07-1.62-.33-1.43-1.5.06-.31,0-.65,0-1,.09-.66-.27-.71-.8-.72s-.71.11-.71.67c0,2.24,0,4.49,0,6.73,0,.63.23.72.78.73s.76-.23.73-.79c0-.73,0-1.47,0-2.2,0-.32,0-.6.46-.69,1.86-.34,2.26,0,2.26,1.83,0,.32,0,.65,0,1,0,.53,0,.88.75.88s.75-.35.74-.89C49.07,35.41,49.08,34.35,49.08,33.29ZM38.9,34c0,.85,0,1.71,0,2.56,0,.59.18.77.76.77s.78-.17.77-.76c0-1.43.06-2.86,0-4.27-.08-1.17.08-1.9,1.49-1.62.57.11.67-.22.65-.71s.05-.78-.6-.77c-1.5,0-3,0-4.52,0-.49,0-.67.16-.6.63s-.17,1,.51.83c1.7-.33,1.71.68,1.6,1.86C38.86,33,38.9,33.53,38.9,34Z" style="fill:#fefefe"/><path d="M35.28,14.63c-10,.67-16.17,5.75-18.67,15.34-1-.49-2-1-3-1.45a.82.82,0,0,1-.54-1A17.1,17.1,0,0,1,27.15,14,20.86,20.86,0,0,1,35.28,14.63Z" style="fill:#e90e75"/><path d="M12.88,29.82c1.14.57,2.1,1.09,3.1,1.54.47.21.52.53.52,1a16.16,16.16,0,0,0,.25,4c-1.06-.5-2-1-2.95-1.37a1.1,1.1,0,0,1-.65-1A13.92,13.92,0,0,1,12.88,29.82Z" style="fill:#e90e75"/><path d="M14,36.74l2.58,1.19a1.15,1.15,0,0,1,.7.77,19.14,19.14,0,0,0,2.93,5.65C18.34,43.93,15.08,40,14,36.74Z" style="fill:#e90e75"/><path d="M27.31,34.4c.29-1.32.57-2.64.85-3.95s.28-1.26,1.73-1.13c-.6,2.44-1.25,4.85-1.79,7.28-.14.65-.41.72-1,.75s-.74-.35-.82-.81c-.28-1.59-.56-3.18-1-4.78-.3,1.58-.6,3.16-.89,4.75-.09.48-.12.85-.84.86s-.79-.41-.9-.86c-.6-2.39-1.18-4.78-1.77-7.17,1.08-.31,1.71-.14,1.83,1.12a35.45,35.45,0,0,0,.74,3.66c.67-1.08.54-2.11.81-3a5.3,5.3,0,0,0,.23-1.31c0-.79.59-.48,1-.53s.73,0,.81.6c.22,1.51.53,3,.81,4.52Z" style="fill:#160f11"/><path d="M30.87,33.24c0-1.06,0-2.12,0-3.18,0-.6.11-.87.79-.84,1.22.06,2.45,0,3.67,0,.57,0,.78.13.77.74s-.21.78-.78.74-1.3,0-2,0-1.09-.15-1.09.8.47,1,1.13.91,1.06,0,1.59,0,.79,0,.76.63-.08.87-.73.82c-.49,0-1,.06-1.46,0-1.21-.22-1.33.41-1.27,1.37,0,.54.21.69.72.67.81,0,1.63,0,2.44,0,.57,0,.79.14.8.74s-.2.77-.78.75c-1.3,0-2.61,0-3.91,0-.52,0-.72-.14-.7-.68C30.9,35.52,30.87,34.38,30.87,33.24Z" style="fill:#160f11"/><path d="M49.08,33.29c0,1.06,0,2.12,0,3.18,0,.54,0,.89-.74.89s-.78-.35-.75-.88c0-.33,0-.66,0-1,0-1.87-.4-2.17-2.26-1.83-.49.09-.45.37-.46.69,0,.73,0,1.47,0,2.2,0,.56-.11.8-.73.79s-.79-.1-.78-.73c0-2.24,0-4.49,0-6.73,0-.56.21-.67.71-.67s.89.06.8.72c0,.32,0,.66,0,1-.19,1.17.25,1.43,1.43,1.5,1.86.1,1.2-1.12,1.29-2,.06-.59-.25-1.36.89-1.22.49.06.61.21.6.66C49.07,31,49.08,32.15,49.08,33.29Z" style="fill:#160f11"/><path d="M38.9,34c0-.49,0-1,0-1.47.11-1.18.1-2.19-1.6-1.86-.68.13-.46-.47-.51-.83s.11-.64.6-.63c1.51,0,3,0,4.52,0,.65,0,.58.35.6.77s-.08.82-.65.71c-1.41-.28-1.57.45-1.49,1.62.1,1.41,0,2.84,0,4.27,0,.59-.19.76-.77.76s-.79-.18-.76-.77C38.93,35.73,38.9,34.87,38.9,34Z" style="fill:#160f11"/></svg>