<svg xmlns="http://www.w3.org/2000/svg" viewBox="0 0 82.22 82.22"><title>icon_token_polygon</title><circle cx="41.11" cy="41.11" r="41.11" style="fill:#7259a5"/><path d="M54.32,32.32a3.4,3.4,0,0,0-3.22,0l-7.51,4.43-5.1,2.81L31.11,44a3.4,3.4,0,0,1-3.22,0L22.12,40.5a3.26,3.26,0,0,1-1.61-2.81V31a3.32,3.32,0,0,1,1.61-2.82l5.77-3.35a3.4,3.4,0,0,1,3.22,0l5.77,3.49a3.26,3.26,0,0,1,1.61,2.81v4.43l5.1-2.95V28A3.31,3.31,0,0,0,42,25.21L31.25,18.9a3.46,3.46,0,0,0-3.22,0L17,25.34A3,3,0,0,0,15.42,28V40.64A3.31,3.31,0,0,0,17,43.46l10.86,6.3a3.4,3.4,0,0,0,3.22,0l7.38-4.29,5.1-2.95L51,38.22a3.46,3.46,0,0,1,3.22,0L60,41.58a3.26,3.26,0,0,1,1.61,2.81V51.1A3.31,3.31,0,0,1,60,53.92l-5.64,3.35a3.4,3.4,0,0,1-3.22,0l-5.77-3.35a3.27,3.27,0,0,1-1.61-2.82V46.81l-5.09,2.95v4.43A3.31,3.31,0,0,0,40.24,57l10.86,6.3a3.4,3.4,0,0,0,3.22,0L65.19,57a3.27,3.27,0,0,0,1.61-2.82V41.44a3.31,3.31,0,0,0-1.61-2.81Z" style="fill:#fff"/></svg>