<svg xmlns="http://www.w3.org/2000/svg" viewBox="0 0 256 256"><title>icon_token_hecochain</title><path d="M128,0C57.6,0,0,57.6,0,128H0c0,70.4,57.6,128,128,128h0c70.4,0,128-57.6,128-128h0C256,57.6,198.4,0,128,0Z" transform="translate(0 0)" style="fill:#01943f"/><path d="M96.38,87.94l.28-.13c1-.47,2.06-.93,3.09-1.33V66.15a6.7,6.7,0,0,0-6.68-6.71H65.35V117.8A66.86,66.86,0,0,1,96.38,87.94Z" transform="translate(0 0)" style="fill:#fff"/><path d="M124.61,123.48h6.18A16.23,16.23,0,0,0,147,107.25h0V89.85c-3.34-.58-18.62-.9-22.16-.9a59.64,59.64,0,0,0-59.54,55.49c-.1,1.38-.15,2.76-.15,4.17s0,2.79.15,4.17h0v37.09A6.68,6.68,0,0,0,72,196.56H99.73V148.29a24.85,24.85,0,0,1,24.88-24.81Z" transform="translate(0 0)" style="fill:#fff"/><path d="M159.67,168.06l-.28.13c-1,.47-2.06.93-3.09,1.33v20.33a6.7,6.7,0,0,0,6.68,6.71h27.7V138.2A66.87,66.87,0,0,1,159.67,168.06Z" transform="translate(0 0)" style="fill:#fff"/><path d="M190.68,103.22h0V66.12A6.68,6.68,0,0,0,184,59.44H156.27v48.28a24.84,24.84,0,0,1-24.85,24.8h-6.21A16.23,16.23,0,0,0,109,148.74s0,0,0,0v17.39c3.34.58,18.62.9,22.16.9.4,0,.78,0,1.18,0a59.1,59.1,0,0,0,24-5.55l.15-.07a59.58,59.58,0,0,0,34.2-49.87c.1-1.38.15-2.76.15-4.17S190.78,104.6,190.68,103.22Z" transform="translate(0 0)" style="fill:#fff"/></svg>