<svg xmlns="http://www.w3.org/2000/svg" xmlns:xlink="http://www.w3.org/1999/xlink" viewBox="0 0 82.22 82.22"><defs><linearGradient id="a" x1="61.21" y1="470.04" x2="33.96" y2="522.24" gradientTransform="translate(0 -454)" gradientUnits="userSpaceOnUse"><stop offset="0" stop-color="#70c48e"/><stop offset="1" stop-color="#a253a0"/></linearGradient><linearGradient id="b" x1="49.29" y1="463.82" x2="22.04" y2="516.02" xlink:href="#a"/><linearGradient id="c" x1="55.21" y1="466.91" x2="27.96" y2="519.11" xlink:href="#a"/></defs><title>icon_token_solana</title><circle cx="41.11" cy="41.11" r="41.11"/><path d="M24.45,50.2a1.66,1.66,0,0,1,1.14-.47H65a.81.81,0,0,1,.57,1.38l-7.78,7.78a1.58,1.58,0,0,1-1.14.47H17.24A.81.81,0,0,1,16.67,58Z" style="fill:url(#a)"/><path d="M24.45,21.16a1.65,1.65,0,0,1,1.14-.47H65a.8.8,0,0,1,.57,1.37l-7.78,7.78a1.59,1.59,0,0,1-1.14.48H17.24a.81.81,0,0,1-.57-1.38Z" style="fill:url(#b)"/><path d="M57.76,35.59a1.58,1.58,0,0,0-1.14-.47H17.24a.8.8,0,0,0-.57,1.37l7.78,7.78a1.61,1.61,0,0,0,1.14.47H65a.8.8,0,0,0,.57-1.37Z" style="fill:url(#c)"/></svg>