<svg xmlns="http://www.w3.org/2000/svg" viewBox="0 0 51.35 51.35"><title>icon_token_wbnb</title><path d="M50.58,31.89A25.67,25.67,0,1,1,31.88.77,25.67,25.67,0,0,1,50.58,31.89Z" style="fill:#fbb800"/><path d="M26.19,43.62s-.05-.06-.07-.08l-10.8-10.8c-.08-.09-.08-.09,0-.17l3.89-3.88c.05-.05.08-.05.13,0l6.78,6.79c.07.07.1.06.17,0l6.77-6.78c.06-.06.1-.06.16,0q1.94,1.95,3.89,3.89c0,.06,0,.08,0,.14L29,40.84l-2.71,2.71s-.06,0-.06.07Z" style="fill:#fff"/><path d="M8.36,25.76s.06,0,.08-.06l3.89-3.89c.05,0,.08,0,.13,0l3.89,3.89c.06.06.07.09,0,.16l-3.89,3.88c-.06.06-.08.06-.14,0C11,28.45,9.74,27.15,8.44,25.86c0,0,0-.06-.08-.06Z" style="fill:#fff"/><path d="M44,25.8s0,0-.08.06l-3.87,3.88c-.07.07-.09.06-.15,0l-3.88-3.88c-.06-.06-.07-.09,0-.15,1.3-1.3,2.6-2.59,3.89-3.89.06-.05.08-.06.14,0L44,25.76l0,0Z" style="fill:#fff"/><path d="M37.16,18.91l0,0,0,.05-3.87,3.87c-.08.09-.08.09-.16,0l-6.78-6.78c-.06-.06-.09-.07-.15,0l-6.78,6.78c-.06.06-.09.07-.15,0L15.31,19c-.05,0-.06-.08,0-.14L26.12,8c.07-.07.1-.06.16,0L37.1,18.83A.17.17,0,0,1,37.16,18.91Z" style="fill:#fff"/><path d="M26.21,29.87l0,0-.05-.05-3.95-3.95c-.06-.06-.06-.09,0-.14l3.95-3.95c.06-.06.09-.06.15,0l3.95,3.95c.06.06.05.09,0,.14l-4,4Z" style="fill:#fff"/></svg>