<svg xmlns="http://www.w3.org/2000/svg" xmlns:xlink="http://www.w3.org/1999/xlink" viewBox="0 0 31 30.44"><defs><linearGradient id="a" x1="-660.27" y1="392.71" x2="-660.17" y2="392.65" gradientTransform="matrix(96, 0, 0, -60, 63392.72, 23572.88)" gradientUnits="userSpaceOnUse"><stop offset="0" stop-color="#00a4db"/><stop offset="1" stop-color="#c0f"/></linearGradient><linearGradient id="b" x1="-658.47" y1="395.16" x2="-658.41" y2="395" gradientTransform="matrix(75, 0, 0, -93, 49397.8, 36761.87)" xlink:href="#a"/><linearGradient id="c" x1="-658.31" y1="394.84" x2="-658.25" y2="394.68" gradientTransform="matrix(71, 0, 0, -90, 46757.67, 35543.78)" xlink:href="#a"/></defs><title>icon_token_uco</title><path d="M30.54,18.9A15.53,15.53,0,0,1,11.75,30,15.2,15.2,0,0,1,.46,11.54,15.51,15.51,0,0,1,19.25.46,15.2,15.2,0,0,1,30.54,18.9Z" style="fill:#fff"/><path d="M10.25,9.23a9.5,9.5,0,0,1,1.84-.17,10.5,10.5,0,0,1,3.35.64,13.57,13.57,0,0,1,4.44,2.59,13.94,13.94,0,0,1,1.56,1.6,7.66,7.66,0,0,0,.41-1,8.16,8.16,0,0,0,.33-1.36l.11-.72a17.26,17.26,0,0,0-1.76-1.48,17,17,0,0,0-2.89-1.68A13.07,13.07,0,0,0,10.5,6.4,12,12,0,0,0,5.82,8c-.3.18-.58.38-.86.58l-.18.14,0,.24c0,.33-.06.68-.07,1a11.66,11.66,0,0,0,1,4.89,13.57,13.57,0,0,0,.87,1.64,8.19,8.19,0,0,0,.55.79c0-.21-.06-.41-.08-.61a17.85,17.85,0,0,1,0-3.58,17.56,17.56,0,0,1,.38-2.29c.06-.23.11-.42.14-.56a8.91,8.91,0,0,1,2.75-1Z" style="fill:url(#a)"/><path d="M18.15,23.12a18.06,18.06,0,0,1-2.17.81l-.56.15a7.71,7.71,0,0,1-1.13-.76,8.18,8.18,0,0,1-1.15-1.1,9.23,9.23,0,0,1-1.08-1.52,10.23,10.23,0,0,1-1.12-3.23,13.64,13.64,0,0,1,.6-7.31,7.64,7.64,0,0,0-1.07.14,7.79,7.79,0,0,0-1.33.39L8.46,11a16.75,16.75,0,0,0-.4,2.27,17.55,17.55,0,0,0,0,3.35,13.24,13.24,0,0,0,2.5,6.84,12.09,12.09,0,0,0,3.74,3.27c.31.17.63.32.94.46l.21.09.22-.09c.31-.14.63-.29.93-.46a11.54,11.54,0,0,0,3.75-3.27,12.54,12.54,0,0,0,1-1.57c.08-.15.23-.45.41-.87l-.49.37A17.93,17.93,0,0,1,18.15,23.12Z" style="fill:url(#b)"/><path d="M26.32,10c0-.34,0-.69-.07-1l0-.23L26,8.56c-.27-.2-.56-.39-.86-.58a11.84,11.84,0,0,0-4.74-1.59,11.66,11.66,0,0,0-1.87-.07c-.17,0-.51,0-1,.08l.56.24a18.2,18.2,0,0,1,3.12,1.78,18.74,18.74,0,0,1,1.8,1.47l.41.4a7.65,7.65,0,0,1-.09,1.36A8.73,8.73,0,0,1,23,13.19a9.31,9.31,0,0,1-.79,1.68A10.12,10.12,0,0,1,20,17.44,13.69,13.69,0,0,1,15.48,20a13.79,13.79,0,0,1-2.18.55,9.23,9.23,0,0,0,.65.86,7.65,7.65,0,0,0,1,.95l.57.45A15.61,15.61,0,0,0,17.72,22a16.84,16.84,0,0,0,2.92-1.67,13.24,13.24,0,0,0,4.72-5.55A12.07,12.07,0,0,0,26.32,10Z" style="fill:url(#c)"/></svg>