<svg width="31" height="31" viewBox="0 0 31 31" fill="none" xmlns="http://www.w3.org/2000/svg">
<path d="M30.5361 18.8996C28.4656 27.0522 20.0545 32.0138 11.749 29.9807C3.44692 27.9482 -1.6071 19.6905 0.464304 11.5384C2.53377 3.38487 10.9449 -1.57716 19.2479 0.455397C27.553 2.48796 32.6065 10.7466 30.5361 18.8996Z" fill="url(#paint0_linear)"/>
<path d="M30.5361 18.8996C28.4656 27.0522 20.0545 32.0138 11.749 29.9807C3.44692 27.9482 -1.6071 19.6905 0.464304 11.5384C2.53377 3.38487 10.9449 -1.57716 19.2479 0.455397C27.553 2.48796 32.6065 10.7466 30.5361 18.8996Z" fill="#07D2DF"/>
<path d="M30.5361 18.8996C28.4656 27.0522 20.0545 32.0138 11.749 29.9807C3.44692 27.9482 -1.6071 19.6905 0.464304 11.5384C2.53377 3.38487 10.9449 -1.57716 19.2479 0.455397C27.553 2.48796 32.6065 10.7466 30.5361 18.8996Z" fill="url(#paint1_linear)"/>
<mask id="mask0" mask-type="alpha" maskUnits="userSpaceOnUse" x="5" y="5" width="22" height="17">
<path fillRule="evenodd" clipRule="evenodd" d="M5.47018 5.5155H26.1598V21.361H5.47018V5.5155Z" fill="white"/>
</mask>
<g mask="url(#mask0)">
<path fillRule="evenodd" clipRule="evenodd" d="M23.7634 8.75145C23.6488 8.64263 23.5316 8.53771 23.4136 8.43362C22.3769 7.52242 21.1953 6.79491 19.9118 6.29339C18.6289 5.79215 17.2448 5.5155 15.7998 5.5155C12.7657 5.5155 9.9945 6.7206 7.87962 8.70831C7.39248 9.16614 6.94007 9.66543 6.52749 10.2012C6.13778 10.7074 5.78534 11.2474 5.47018 11.814L8.45204 14.4496C8.72822 13.854 9.06343 13.296 9.4523 12.7862C9.8646 12.246 10.3373 11.7614 10.8564 11.3392C12.2368 10.2157 13.9566 9.54631 15.8238 9.54631C15.9543 9.54631 16.0822 9.55744 16.2112 9.56385C17.7721 9.64205 19.2174 10.1845 20.4323 11.0684C20.5613 11.1625 20.6909 11.2557 20.8149 11.357L11.1978 19.8561C12.413 20.7401 13.858 21.2828 15.4191 21.361L23.2082 14.4769L26.1599 11.8683C25.8374 11.2816 25.4745 10.7236 25.0721 10.2012C24.6719 9.68185 24.2336 9.19759 23.7634 8.75145Z" fill="white"/>
</g>
<mask id="mask1" mask-type="alpha" maskUnits="userSpaceOnUse" x="5" y="8" width="22" height="17">
<path fillRule="evenodd" clipRule="evenodd" d="M5.47064 8.97046H26.1603V24.8159H5.47064V8.97046Z" fill="white"/>
</mask>
<g mask="url(#mask1)">
<path fillRule="evenodd" clipRule="evenodd" d="M20.7741 18.9922C19.3938 20.1158 17.674 20.7849 15.8067 20.7849C14.5037 20.7849 13.2753 20.4531 12.1807 19.8745C11.9828 19.7687 11.8356 19.6836 11.6908 19.5934C11.6707 19.5809 11.651 19.5681 11.6309 19.5555C11.4838 19.4623 11.3395 19.3657 11.1985 19.263C11.0692 19.169 10.9396 19.0757 10.8159 18.9744L20.4327 10.4753C19.2178 9.59138 17.7725 9.04866 16.2117 8.97046L8.42228 15.8545L5.47064 18.4632C5.79314 19.0498 6.15631 19.6079 6.55844 20.1303C6.9586 20.6496 7.39717 21.1339 7.86736 21.5803C9.9879 23.5928 12.7757 24.8159 15.8307 24.8159C18.8648 24.8159 21.6363 23.6108 23.7509 21.6231C24.2381 21.1653 24.6905 20.666 25.103 20.1303C25.493 19.624 25.8455 19.0841 26.1603 18.5174L23.1785 15.8818C22.9026 16.4774 22.5671 17.0354 22.1782 17.5453C21.7659 18.0855 21.2935 18.57 20.7741 18.9922Z" fill="white"/>
</g>
<defs>
<linearGradient id="paint0_linear" x1="15.9609" y1="-15.2182" x2="-14.4872" y2="14.8716" gradientUnits="userSpaceOnUse">
<stop stop-color="#31E566"/>
<stop offset="1" stop-color="#00C6FE"/>
</linearGradient>
<linearGradient id="paint1_linear" x1="-3.53381e-06" y1="1.26818" x2="27.3881" y2="29.1635" gradientUnits="userSpaceOnUse">
<stop stop-color="#65FF90"/>
<stop offset="1" stop-color="#5FFF95" stop-opacity="0"/>
</linearGradient>
</defs>
</svg>
