<svg xmlns="http://www.w3.org/2000/svg" viewBox="0 0 50.38 50.38"><path d="M49.62,31.28A25.18,25.18,0,1,1,31.28.75,25.17,25.17,0,0,1,49.62,31.28Z" style="fill:#50af95"/><path d="M29.2,27.92h0c-.2,0-1.25.08-3.57.08-1.85,0-3.17-.06-3.63-.08h0c-7.14-.31-12.48-1.56-12.48-3.05S14.86,22.14,22,21.82v4.86c.47,0,1.81.12,3.66.12,2.22,0,3.33-.1,3.53-.12V21.83c7.13.31,12.46,1.56,12.46,3s-5.33,2.73-12.46,3.05h0Zm0-6.6V17h10V10.34H12.05V17H22v4.35c-8.09.37-14.17,2-14.17,3.9S13.91,28.74,22,29.11V43.05h7.2V29.1c8.07-.37,14.14-2,14.14-3.89s-6.07-3.52-14.14-3.89Zm0,0" style="fill:#fff;fill-rule:evenodd"/></svg>
