<svg width="20" height="20" viewBox="0 0 20 20" fill="none" xmlns="http://www.w3.org/2000/svg">
<path d="M13.5554 10.0351C13.4091 9.95155 13.2577 9.88366 13.1062 9.82621C13.2577 9.76877 13.4091 9.70088 13.5554 9.61732C14.558 9.03764 15.1168 7.98795 15.1221 6.90693C14.1873 6.36903 12.9966 6.32725 11.9887 6.90693C11.8424 6.99049 11.7066 7.08971 11.5813 7.18894C11.6074 7.02704 11.6231 6.85993 11.6231 6.69281C11.6231 5.53346 10.9912 4.52554 10.0564 3.98242C9.12159 4.52554 8.48969 5.53346 8.48969 6.69281C8.48969 6.85993 8.50535 7.02704 8.53147 7.18894C8.40613 7.08449 8.27035 6.98526 8.12412 6.90171C7.12144 6.32203 5.93074 6.36381 4.99072 6.90171C4.99072 7.98273 5.54951 9.03242 6.55742 9.6121C6.70365 9.69566 6.8551 9.76355 7.00654 9.82099C6.8551 9.87844 6.70365 9.94633 6.55742 10.0299C5.55473 10.6096 4.99594 11.6593 4.99072 12.7403C5.92552 13.2782 7.11621 13.32 8.12412 12.7403C8.27035 12.6567 8.40613 12.5575 8.53147 12.4583C8.50535 12.6254 8.48969 12.7925 8.48969 12.9596C8.48969 14.119 9.12159 15.1269 10.0564 15.67C10.9912 15.1269 11.6231 14.119 11.6231 12.9596C11.6231 12.7925 11.6074 12.6254 11.5813 12.4635C11.7066 12.5679 11.8424 12.6619 11.9887 12.7455C12.9913 13.3252 14.182 13.2834 15.1221 12.7455C15.1168 11.6645 14.558 10.6148 13.5554 10.0351ZM10.0564 11.9151C8.90225 11.9151 7.96745 10.9804 7.96745 9.82621C7.96745 8.67208 8.90225 7.73728 10.0564 7.73728C11.2105 7.73728 12.1453 8.67208 12.1453 9.82621C12.1453 10.9804 11.2105 11.9151 10.0564 11.9151Z" fill="#2DFF82"/>
<rect x="1" y="1" width="18" height="18" rx="3" stroke="#2DFF82" stroke-width="2"/>
</svg>
